{
.appVersion = "3260";
.formatVersion = 3;
DisplayStrings = (
g
);
axes = (
{
name = Weight;
tag = wght;
}
);
classes = (
{
automatic = 1;
code = "A Aacute Abreve Abreveacute Abrevedotbelow Abrevegrave Abrevehookabove Abrevetilde Acaron Acircumflex Acircumflexacute Acircumflexdotbelow Acircumflexgrave Acircumflexhookabove Acircumflextilde Adieresis Adotbelow Agrave Ahookabove Amacron Aogonek Aring Atilde AE AEacute B Bhook C Cacute Ccaron Ccedilla Ccircumflex Cdotaccent D Eth Dcaron Dcroat Dhook Dmacronbelow E Eacute Ebreve Ecaron Ecircumflex Ecircumflexacute Ecircumflexdotbelow Ecircumflexgrave Ecircumflexhookabove Ecircumflextilde Edieresis Edotaccent Edotbelow Egrave Ehookabove Emacron Eogonek Eopen Etilde Schwa F G Gbreve Gcaron Gcircumflex Gcommaaccent Gdotaccent Gmacron H Hbar Hcircumflex I IJ Iacute Ibreve Icircumflex Idieresis Idotaccent Idotbelow Igrave Ihookabove Imacron Iogonek Itilde J Jacute Jcircumflex K Kcommaaccent Khook L Lacute Lcaron Lcommaaccent Ldot Lmacronbelow Lslash M Macute N Nacute Ncaron Ncommaaccent Ndotaccent Ngrave Nhookleft Nmacronbelow Ntilde Eng O Oacute Obreve Ocircumflex Ocircumflexacute Ocircumflexdotbelow Ocircumflexgrave Ocircumflexhookabove Ocircumflextilde Odieresis Odotbelow Ograve Ohookabove Ohorn Ohornacute Ohorndotbelow Ohorngrave Ohornhookabove Ohorntilde Ohungarumlaut Omacron Oogonek Oopen Oslash Oslashacute Otilde OE P Thorn Q R Racute Rcaron Rcommaaccent Rmacronbelow S Sacute Saltillo Scaron Scedilla Scircumflex Scommaaccent Sdotbelow Germandbls T Tbar Tcaron Tcedilla Tcommaaccent Tmacronbelow U Uacute Ubreve Ucircumflex Udieresis Udotbelow Ugrave Uhookabove Uhorn Uhornacute Uhorndotbelow Uhorngrave Uhornhookabove Uhorntilde Uhungarumlaut Umacron Uogonek Uring Utilde V W Wacute Wcircumflex Wdieresis Wgrave X Y Yacute Ycircumflex Ydieresis Ydotbelow Ygrave Yhook Yhookabove Ymacron Ytilde Z Zacute Zcaron Zdotaccent Omega";
name = Uppercase;
}
);
customParameters = (
{
name = fsType;
value = (
);
},
{

glyphs = (
{
color = 8;
glyphname = A;
kernLeft = KO_A;
kernRight = KO_A;
lastChange = "2024-03-02 06:05:35 +0000";
layers = (
{
anchors = (
{
name = bottom;
pos = (287,0);
},
{
name = ogonek;
pos = (537,0);
},
{
name = top;
pos = (384,690);
}
);
guides = (
{
locked = 1;
pos = (644,65);
}
);
layerId = m01;
shapes = (
{
closed = 1;
nodes = (
(165,0,l),
(169,16,l),
(73,90,l),
(71,22,l),
(386,616,l),
(364,616,l),
(488,36,l),
(507,92,l),
(401,16,l),
(397,0,l),
(626,0,l),
(630,16,l),
(544,98,l),
(580,36,l),
(440,690,l),
(383,690,l),
(-15,22,l),
(47,101,l),
(-49,16,l),
(-53,0,l)
);
},
{
closed = 1;
nodes = (
(481,222,l),
(492,267,l),
(155,267,l),
(144,222,l)
);
},
{
closed = 1;
nodes = (
(399,609,l),
(399,690,l),
(275,690,l),
(271,674,l),
(357,609,l)
);
}
);
width = 684;
},
{
associatedMasterId = m01;
guides = (
{
pos = (669,73);
}
);
layerId = "8D6CD965-FB63-4573-AAD5-B671B6418A40";
name = "21 Aug 23 at 21:42";
shapes = (
{
closed = 1;
nodes = (
(244,0,l),
(244,16,l),
(113,93,l),
(126,13,l),
(345,640,l),
(320,640,l),
(563,13,l),
(574,93,l),
(443,16,l),
(443,0,l),
(711,0,l),
(711,16,l),
(616,89,l),
(661,13,l),
(387,690,l),
(326,690,l),
(52,13,l),
(97,89,l),
(2,16,l),
(2,0,l)
);
},
{
closed = 1;
nodes = (
(521,220,l),
(521,266,l),
(170,266,l),
(170,220,l)
);
},
{
closed = 1;
nodes = (
(346,690,l),
(217,690,l),
(217,674,l),
(310,604,l)
);
}
);
width = 713;
},
{
anchors = (
{
name = bottom;
pos = (317,0);
},
{
name = ogonek;
pos = (594,0);
},
{
name = top;
pos = (405,690);
}
);
guides = (
{
pos = (650,88);
}
);
layerId = "B15366B1-D24E-431F-AB58-0431975245D7";
shapes = (
{
closed = 1;
nodes = (
(219,0,l),
(225,23,l),
(121,113,l),
(136,39,l),
(352,563,l),
(336,563,l),
(466,26,l),
(495,129,l),
(386,23,l),
(380,0,l),
(689,0,l),
(694,22,l),
(603,129,l),
(653,34,l),
(495,690,l),
(381,690,l),
(-24,28,l),
(60,142,l),
(-50,22,l),
(-56,0,l)
);
},
{
closed = 1;
nodes = (
(474,183,l),
(485,243,l),
(148,243,l),
(137,183,l)
);
},
{
closed = 1;
nodes = (
(431,586,l),
(431,690,l),
(271,690,l),
(266,668,l),
(346,586,l)
);
}
);
width = 749;
},
{
associatedMasterId = "B15366B1-D24E-431F-AB58-0431975245D7";
layerId = "2673D41E-0651-4898-8658-132E2CD5E64B";
name = "28 Oct 23 at 16:32";
shapes = (
{
closed = 1;
nodes = (
(122,0,l),
(410,690,l),
(387,690,l),
(-39,0,l)
);
},
{
closed = 1;
nodes = (
(213,0,l),
(220,22,l),
(155,83,l),
(15,87,l),
(-49,23,l),
(-56,0,l)
);
},
{
closed = 1;
nodes = (
(475,183,l),
(486,243,l),
(149,243,l),
(138,183,l)
);
},
{
closed = 1;
nodes = (
(682,0,l),
(689,22,l),
(637,83,l),
(447,87,l),
(383,23,l),
(376,0,l)
);
},
{
closed = 1;
nodes = (
(657,0,l),
(494,690,l),
(337,690,l),
(337,555,l),
(468,0,l)
);
},
{
closed = 1;
nodes = (
(402,595,l),
(402,690,l),
(269,690,l),
(262,668,l),
(337,595,l)
);
}
);
width = 744;
},
{
associatedMasterId = m01;
guides = (
{
locked = 1;
pos = (644,65);
}
);
layerId = "7C8C7BE0-70CC-41DD-90E7-15815B92E9BC";
name = "28 Oct 23 at 16:42";
shapes = (
{
closed = 1;
nodes = (
(59,0,l),
(425,690,l),
(383,690,l),
(-28,0,l)
);
},
{
closed = 1;
nodes = (
(165,0,l),
(169,16,l),
(98,73,l),
(15,73,l),
(-49,16,l),
(-53,0,l)
);
},
{
closed = 1;
nodes = (
(481,222,l),
(492,267,l),
(155,267,l),
(144,222,l)
);
},
{
closed = 1;
nodes = (
(626,0,l),
(630,16,l),
(572,73,l),
(481,73,l),
(401,16,l),
(397,0,l)
);
},
{
closed = 1;
nodes = (
(588,0,l),
(440,690,l),
(364,690,l),
(364,616,l),
(496,0,l)
);
},
{
closed = 1;
nodes = (
(399,609,l),
(399,690,l),
(275,690,l),
(271,674,l),
(357,609,l)
);
}
);
width = 684;
}
);
metricLeft = "=V";
metricRight = "=V";
unicode = 65;
userData = {
KernOnName = A;
};
},
{
color = 8;
glyphname = AE;
kernLeft = KO_A;
kernRight = KO_AE;
lastChange = "2024-01-09 04:10:28 +0000";
layers = (
{
anchors = (
{
name = bottom;
pos = (385,0);
},
{
name = top;
pos = (534,690);
}
);
layerId = m01;
shapes = (
{
closed = 1;
nodes = (
(165,0,l),
(169,16,l),
(73,90,l),
(71,22,l),
(386,616,l),
(364,616,l),
(448,36,l),
(467,90,l),
(361,16,l),
(357,0,l),
(544,0,l),
(444,690,l),
(383,690,l),
(-15,22,l),
(47,101,l),
(-49,16,l),
(-53,0,l)
);
},
{
closed = 1;
nodes = (
(481,222,l),
(492,267,l),
(155,267,l),
(144,222,l)
);
},
{
closed = 1;
nodes = (
(746,0,l),
(760,59,l),
(426,35,l),
(416,0,l)
);
},
{
closed = 1;
nodes = (
(790,0,l),
(820,161,l),
(804,161,l),
(659,41,l),
(649,0,l)
);
},
{
closed = 1;
nodes = (
(711,388,l),
(467,374,l),
(458,337,l),
(696,324,l)
);
},
{
closed = 1;
nodes = (
(389,609,l),
(389,690,l),
(265,690,l),
(261,674,l),
(347,609,l)
);
},
{
closed = 1;
nodes = (
(727,245,l),
(766,450,l),
(750,450,l),
(660,375,l),
(651,337,l),
(711,245,l)
);
},
{
closed = 1;
nodes = (
(806,690,l),
(431,690,l),
(421,647,l),
(792,631,l)
);
},
{
closed = 1;
nodes = (
(793,548,l),
(821,698,l),
(810,698,l),
(696,690,l),
(686,646,l),
(777,548,l)
);
}
);
width = 879;
},
{
anchors = (
{
name = bottom;
pos = (422,0);
},
{
name = top;
pos = (572,690);
}
);
guides = (
{
pos = (650,88);
}
);
layerId = "B15366B1-D24E-431F-AB58-0431975245D7";
shapes = (
{
closed = 1;
nodes = (
(219,0,l),
(225,23,l),
(121,118,l),
(136,39,l),
(389,563,l),
(373,563,l),
(453,26,l),
(482,123,l),
(373,23,l),
(367,0,l),
(648,0,l),
(532,690,l),
(418,690,l),
(-24,28,l),
(61,134,l),
(-50,22,l),
(-56,0,l)
);
},
{
closed = 1;
nodes = (
(511,183,l),
(522,243,l),
(185,243,l),
(174,183,l)
);
},
{
closed = 1;
nodes = (
(831,0,l),
(846,71,l),
(574,43,l),
(564,0,l)
);
},
{
closed = 1;
nodes = (
(875,0,l),
(916,189,l),
(889,189,l),
(706,41,l),
(696,0,l)
);
},
{
closed = 1;
nodes = (
(789,395,l),
(516,375,l),
(507,336,l),
(770,316,l)
);
},
{
closed = 1;
nodes = (
(458,586,l),
(458,690,l),
(298,690,l),
(293,668,l),
(373,586,l)
);
},
{
closed = 1;
nodes = (
(800,231,l),
(845,462,l),
(819,462,l),
(706,375,l),
(697,337,l),
(774,231,l)
);
},
{
closed = 1;
nodes = (
(902,690,l),
(474,690,l),
(464,646,l),
(882,606,l)
);
},
{
closed = 1;
nodes = (
(878,508,l),
(921,698,l),
(902,698,l),
(750,690,l),
(740,646,l),
(852,508,l)
);
}
);
width = 959;
}
);
metricLeft = "=A";
metricRight = "=E";
unicode = 198;
},
{
color = 8;
glyphname = B;
kernLeft = KO_H;
kernRight = KO_B;
lastChange = "2024-03-02 06:05:36 +0000";
layers = (
{
guides = (
{
angle = 180;
pos = (877,390);
}
);
layerId = m01;
shapes = (
{
closed = 1;
nodes = (
(141,0,l),
(301,690,l),
(126,690,l),
(122,674,l),
(221,590,l),
(197,651,l),
(55,39,l),
(95,99,l),
(-21,17,l),
(-25,0,l)
);
},
{
closed = 1;
nodes = (
(226,0,ls),
(437,0,o),
(570,89,o),
(570,231,cs),
(570,339,o),
(480,392,o),
(298,392,cs),
(181,392,l),
(181,347,l),
(294,347,l),
(410,347,o),
(468,306,o),
(468,222,cs),
(468,113,o),
(383,45,o),
(247,45,c),
(114,45,l),
(114,0,l)
);
},
{
closed = 1;
nodes = (
(442,366,l),
(446,387,l),
(415,387,l),
(411,366,l)
);
},
{
closed = 1;
nodes = (
(350,367,l),
(494,367,o),
(595,440,o),
(595,544,cs),
(595,638,o),
(508,690,o),
(353,690,cs),
(256,690,l),
(256,645,l),
(349,645,l),
(445,645,o),
(493,612,o),
(493,544,cs),
(493,468,o),
(456,418,o),
(381,392,c),
(287,392,l),
(287,367,l)
);
}
);
width = 612;
},
{
layerId = "B15366B1-D24E-431F-AB58-0431975245D7";
shapes = (
{
closed = 1;
nodes = (
(228,0,l),
(388,690,l),
(120,690,l),
(115,668,l),
(231,558,l),
(188,651,l),
(46,39,l),
(113,132,l),
(-23,24,l),
(-28,0,l)
);
},
{
closed = 1;
nodes = (
(279,0,l),
(525,0,o),
(680,84,o),
(680,217,cs),
(680,325,o),
(570,393,o),
(394,393,cs),
(225,393,l),
(225,332,l),
(358,332,l),
(427,332,o),
(476,285,o),
(476,217,cs),
(476,121,o),
(396,61,o),
(269,61,cs),
(158,61,l),
(158,0,l)
);
},
{
closed = 1;
nodes = (
(511,357,l),
(518,392,l),
(487,392,l),
(480,357,l)
);
},
{
closed = 1;
nodes = (
(412,374,l),
(590,374,o),
(716,442,o),
(716,539,cs),
(716,636,o),
(618,690,o),
(444,690,cs),
(357,690,l),
(357,629,l),
(426,629,l),
(480,629,o),
(514,596,o),
(514,543,cs),
(514,465,o),
(469,406,o),
(405,402,cs),
(278,393,l),
(278,374,l)
);
}
);
width = 718;
},
{
associatedMasterId = m01;
guides = (
{
angle = 180;
pos = (877,390);
}
);
layerId = "BBA5E314-E9C3-438F-B836-0924522CD9DC";
name = "26 Nov 23 at 20:41";
shapes = (
{
closed = 1;
nodes = (
(141,0,l),
(301,690,l),
(126,690,l),
(122,674,l),
(221,590,l),
(197,651,l),
(55,39,l),
(95,99,l),
(-21,17,l),
(-25,0,l)
);
},
{
closed = 1;
nodes = (
(226,0,ls),
(437,0,o),
(570,87,o),
(570,226,cs),
(570,337,o),
(480,392,o),
(298,392,cs),
(181,392,l),
(181,347,l),
(294,347,l),
(410,347,o),
(468,306,o),
(468,222,cs),
(468,113,o),
(383,45,o),
(247,45,c),
(114,45,l),
(114,0,l)
);
},
{
closed = 1;
nodes = (
(482,367,o),
(583,436,o),
(583,534,cs),
(583,638,o),
(503,690,o),
(341,690,cs),
(244,690,l),
(244,645,l),
(337,645,l),
(437,645,o),
(481,610,o),
(481,530,cs),
(481,464,o),
(444,418,o),
(369,392,c),
(275,392,l),
(275,367,l),
(338,367,l)
);
},
{
closed = 1;
nodes = (
(403,366,l),
(434,366,l),
(438,387,l),
(407,387,l)
);
}
);
width = 613;
}
);
metricLeft = "=H";
metricRight = "=O";
unicode = 66;
userData = {
KernOnName = B;
};
},
{
color = 8;
glyphname = C;
kernLeft = KO_C;
kernRight = KO_C;
lastChange = "2024-03-02 06:05:35 +0000";
layers = (
{
anchors = (
{
name = bottom;
pos = (275,0);
},
{
name = top;
pos = (434,690);
}
);
layerId = m01;
shapes = (
{
closed = 1;
nodes = (
(403,-16,o),
(495,31,o),
(556,115,c),
(534,138,l),
(480,77,o),
(407,43,o),
(330,43,cs),
(228,43,o),
(156,133,o),
(156,262,cs),
(156,482,o),
(276,655,o),
(429,655,cs),
(483,655,o),
(518,638,o),
(553,593,c),
(553,669,l),
(473,669,l),
(557,528,l),
(575,528,l),
(640,638,l),
(584,683,o),
(521,706,o),
(449,706,cs),
(228,706,o),
(54,514,o),
(54,269,cs),
(54,94,o),
(149,-16,o),
(300,-16,cs)
);
}
);
width = 619;
},
{
associatedMasterId = m01;
layerId = "C1F9149C-4474-43C9-84A6-C9633AA68D38";
name = "21 Aug 23 at 21:39";
shapes = (
{
closed = 1;
nodes = (
(502,-16,o),
(611,47,o),
(660,147,c),
(629,164,l),
(572,81,o),
(494,40,o),
(395,40,cs),
(232,40,o),
(130,167,o),
(130,369,cs),
(130,542,o),
(223,650,o),
(372,650,cs),
(452,650,o),
(511,630,o),
(552,589,c),
(552,659,l),
(474,659,l),
(565,512,l),
(581,512,l),
(640,642,l),
(587,681,o),
(491,706,o),
(390,706,cs),
(184,706,o),
(40,552,o),
(40,333,cs),
(40,138,o),
(188,-16,o),
(377,-16,cs)
);
}
);
width = 700;
},
{
associatedMasterId = m01;
background = {
shapes = (
{
closed = 1;
nodes = (
(20,130,o),
(118,-16,o),
(305,-16,cs),
(423,-16,o),
(530,46,o),
(601,159,c),
(581,175,l),
(495,80,o),
(429,43,o),
(346,43,cs),
(193,43,o),
(127,175,o),
(175,386,cs),
(212,546,o),
(326,659,o),
(449,659,cs),
(497,659,o),
(545,634,o),
(580,590,c),
(580,673,l),
(488,673,l),
(597,535,l),
(612,535,l),
(689,648,l),
(632,686,o),
(552,706,o),
(464,706,cs),
(290,706,o),
(116,545,o),
(68,338,cs)
);
}
);
};
layerId = "A4D6058F-B004-4B44-B1F9-F9DE195D463A";
name = "23 Aug 23 at 20:31";
shapes = (
{
closed = 1;
nodes = (
(430,-16,o),
(532,49,o),
(605,159,c),
(585,175,l),
(507,87,o),
(423,43,o),
(331,43,cs),
(203,43,o),
(133,181,o),
(172,356,cs),
(211,532,o),
(322,655,o),
(440,655,cs),
(495,655,o),
(540,637,o),
(588,595,c),
(588,668,l),
(509,668,l),
(601,545,l),
(615,545,l),
(694,644,l),
(642,677,o),
(561,706,o),
(460,706,cs),
(278,706,o),
(117,555,o),
(71,341,cs),
(26,141,o),
(132,-16,o),
(311,-16,cs)
);
}
);
width = 673;
},
{
associatedMasterId = m01;
layerId = "7FE713EC-3BE4-4D8D-98E9-BC6929674969";
name = "24 Aug 23 at 15:28";
shapes = (
{
closed = 1;
nodes = (
(427,-16,o),
(537,55,o),
(589,168,c),
(563,180,l),
(511,92,o),
(428,43,o),
(333,43,cs),
(202,43,o),
(129,168,o),
(171,356,cs),
(210,532,o),
(318,655,o),
(432,655,cs),
(486,655,o),
(521,638,o),
(556,593,c),
(556,669,l),
(492,669,l),
(579,533,l),
(597,533,l),
(662,638,l),
(609,682,o),
(533,706,o),
(452,706,cs),
(272,706,o),
(114,562,o),
(69,356,cs),
(21,138,o),
(118,-16,o),
(303,-16,cs)
);
}
);
width = 648;
},
{
anchors = (
{
name = bottom;
pos = (274,0);
},
{
name = top;
pos = (454,690);
}
);
layerId = "B15366B1-D24E-431F-AB58-0431975245D7";
shapes = (
{
closed = 1;
nodes = (
(470,-16,o),
(576,53,o),
(618,163,c),
(584,178,l),
(539,119,o),
(478,86,o),
(412,86,cs),
(319,86,o),
(260,167,o),
(260,297,cs),
(260,491,o),
(359,643,o),
(486,643,cs),
(535,643,o),
(574,612,o),
(603,550,c),
(603,660,l),
(456,660,l),
(570,480,l),
(596,480,l),
(691,634,l),
(634,680,o),
(551,706,o),
(459,706,cs),
(228,706,o),
(47,523,o),
(47,291,cs),
(47,102,o),
(161,-16,o),
(343,-16,cs)
);
}
);
width = 664;
},
{
associatedMasterId = "B15366B1-D24E-431F-AB58-0431975245D7";
layerId = "A31EA3A2-7954-4577-B158-A4EF6166D9A2";
name = "22 Oct 23 at 13:56";
shapes = (
{
closed = 1;
nodes = (
(479,-16,o),
(591,39,o),
(642,136,c),
(606,161,l),
(561,110,o),
(505,85,o),
(436,85,cs),
(304,85,o),
(230,217,o),
(267,384,cs),
(300,535,o),
(396,642,o),
(499,642,cs),
(520,642,o),
(542,630,o),
(556,612,c),
(556,660,l),
(484,660,l),
(605,511,l),
(629,511,l),
(713,636,l),
(661,681,o),
(575,706,o),
(471,706,cs),
(270,706,o),
(98,562,o),
(53,356,cs),
(5,138,o),
(120,-16,o),
(332,-16,cs)
);
}
);
width = 696;
},
{
associatedMasterId = "B15366B1-D24E-431F-AB58-0431975245D7";
layerId = "F18498B9-0925-4674-A0F8-D7AB893D54E6";
name = "23 Oct 23 at 11:18";
shapes = (
{
closed = 1;
nodes = (
(464,-16,o),
(574,49,o),
(618,152,c),
(579,175,l),
(521,110,o),
(478,85,o),
(424,85,cs),
(293,85,o),
(228,208,o),
(267,384,cs),
(300,535,o),
(386,642,o),
(489,642,cs),
(510,642,o),
(532,630,o),
(546,612,c),
(546,660,l),
(474,660,l),
(585,511,l),
(609,511,l),
(699,645,l),
(646,684,o),
(561,706,o),
(461,706,cs),
(266,706,o),
(98,562,o),
(53,356,cs),
(3,127,o),
(111,-16,o),
(332,-16,cs)
);
}
);
width = 669;
},
{
associatedMasterId = "B15366B1-D24E-431F-AB58-0431975245D7";
layerId = "A65CE49F-07B6-49BA-B0DD-AE18582B23ED";
name = "27 Oct 23 at 19:28";
shapes = (
{
closed = 1;
nodes = (
(461,-16,o),
(568,53,o),
(610,163,c),
(571,180,l),
(522,116,o),
(470,85,o),
(414,85,cs),
(289,85,o),
(228,208,o),
(267,384,cs),
(300,535,o),
(386,642,o),
(489,642,cs),
(510,642,o),
(532,630,o),
(546,612,c),
(546,660,l),
(476,660,l),
(583,501,l),
(609,501,l),
(699,645,l),
(646,684,o),
(561,706,o),
(461,706,cs),
(266,706,o),
(98,562,o),
(53,356,cs),
(3,127,o),
(111,-16,o),
(332,-16,cs)
);
}
);
width = 658;
},
{
associatedMasterId = m01;
background = {
shapes = (
{
closed = 1;
nodes = (
(262,706,o),
(114,571,o),
(67,356,cs),
(19,138,o),
(116,-16,o),
(301,-16,cs),
(489,-16,o),
(637,119,o),
(684,334,cs),
(732,552,o),
(635,706,o),
(450,706,cs)
);
},
{
closed = 1;
nodes = (
(190,35,o),
(127,168,o),
(169,356,cs),
(208,532,o),
(316,655,o),
(430,655,cs),
(561,655,o),
(624,522,o),
(582,334,cs),
(543,158,o),
(435,35,o),
(321,35,cs)
);
}
);
};
layerId = "FF7C7B60-DE9F-4739-A6FA-F3271706DF9A";
name = "27 Oct 23 at 19:45";
shapes = (
{
closed = 1;
nodes = (
(404,-16,o),
(498,33,o),
(557,115,c),
(535,138,l),
(480,77,o),
(407,43,o),
(331,43,cs),
(200,43,o),
(127,168,o),
(169,356,cs),
(208,532,o),
(316,655,o),
(430,655,cs),
(484,655,o),
(519,638,o),
(554,593,c),
(554,669,l),
(474,669,l),
(558,538,l),
(576,538,l),
(641,638,l),
(585,683,o),
(522,706,o),
(450,706,cs),
(270,706,o),
(112,562,o),
(67,356,cs),
(19,138,o),
(116,-16,o),
(301,-16,cs)
);
}
);
width = 626;
},
{
associatedMasterId = "B15366B1-D24E-431F-AB58-0431975245D7";
layerId = "3EC75D78-509A-4102-9667-7E5631FA932A";
name = "27 Oct 23 at 19:45";
shapes = (
{
closed = 1;
nodes = (
(461,-16,o),
(567,53,o),
(609,163,c),
(570,180,l),
(522,117,o),
(470,86,o),
(413,86,cs),
(288,86,o),
(227,209,o),
(266,384,cs),
(300,543,o),
(385,643,o),
(487,643,cs),
(508,643,o),
(531,630,o),
(545,612,c),
(545,660,l),
(475,660,l),
(582,501,l),
(608,501,l),
(698,645,l),
(645,684,o),
(560,706,o),
(460,706,cs),
(276,706,o),
(98,558,o),
(55,369,cs),
(1,132,o),
(109,-16,o),
(334,-16,cs)
);
}
);
width = 657;
},
{
associatedMasterId = "B15366B1-D24E-431F-AB58-0431975245D7";
layerId = "FB058CD1-3AFA-41FE-BA72-6D7831B5D9EB";
name = "28 Oct 23 at 11:59";
shapes = (
{
closed = 1;
nodes = (
(461,-16,o),
(567,53,o),
(609,163,c),
(570,180,l),
(522,117,o),
(470,86,o),
(413,86,cs),
(315,86,o),
(254,165,o),
(254,290,cs),
(254,488,o),
(357,643,o),
(487,643,cs),
(508,643,o),
(531,630,o),
(545,612,c),
(545,660,l),
(475,660,l),
(582,501,l),
(608,501,l),
(698,645,l),
(645,684,o),
(560,706,o),
(460,706,cs),
(209,706,o),
(41,467,o),
(41,261,cs),
(41,91,o),
(154,-16,o),
(334,-16,cs)
);
}
);
width = 657;
},
{
associatedMasterId = "B15366B1-D24E-431F-AB58-0431975245D7";
layerId = "4817A93F-E265-4E54-9EA7-1A21354565E4";
name = "28 Oct 23 at 13:32";
shapes = (
{
closed = 1;
nodes = (
(464,-16,o),
(566,53,o),
(608,163,c),
(569,180,l),
(521,117,o),
(469,86,o),
(412,86,cs),
(314,86,o),
(253,165,o),
(253,290,cs),
(253,488,o),
(356,643,o),
(486,643,cs),
(507,643,o),
(530,630,o),
(544,612,c),
(544,660,l),
(474,660,l),
(581,501,l),
(607,501,l),
(697,645,l),
(644,684,o),
(559,706,o),
(459,706,cs),
(208,706,o),
(40,467,o),
(40,261,cs),
(40,83,o),
(149,-16,o),
(343,-16,cs)
);
}
);
width = 655;
},
{
associatedMasterId = m01;
background = {
shapes = (
{
closed = 1;
nodes = (
(530,-16,o),
(700,185,o),
(700,440,cs),
(700,603,o),
(600,706,o),
(442,706,cs),
(225,706,o),
(55,505,o),
(55,250,cs),
(55,87,o),
(155,-16,o),
(313,-16,cs)
);
},
{
closed = 1;
nodes = (
(220,35,o),
(156,117,o),
(156,247,cs),
(156,475,o),
(277,655,o),
(432,655,cs),
(535,655,o),
(599,573,o),
(599,443,cs),
(599,215,o),
(478,35,o),
(323,35,cs)
);
}
);
};
layerId = "ED008416-E12F-4AF0-A4D7-CDDD4D419CA3";
name = "2 Nov 23 at 17:04";
shapes = (
{
closed = 1;
nodes = (
(405,-16,o),
(497,31,o),
(558,115,c),
(536,138,l),
(482,77,o),
(409,43,o),
(332,43,cs),
(230,43,o),
(158,133,o),
(158,262,cs),
(158,482,o),
(278,655,o),
(431,655,cs),
(485,655,o),
(520,638,o),
(555,593,c),
(555,669,l),
(475,669,l),
(559,538,l),
(577,538,l),
(642,638,l),
(586,683,o),
(523,706,o),
(451,706,cs),
(230,706,o),
(56,509,o),
(56,259,cs),
(56,90,o),
(151,-16,o),
(302,-16,cs)
);
}
);
width = 625;
},
{
associatedMasterId = "B15366B1-D24E-431F-AB58-0431975245D7";
layerId = "C63C63CC-3557-460E-8380-6C3521364543";
name = "2 Nov 23 at 17:05";
shapes = (
{
closed = 1;
nodes = (
(467,-16,o),
(569,53,o),
(611,163,c),
(577,178,l),
(530,116,o),
(476,86,o),
(415,86,cs),
(317,86,o),
(256,160,o),
(256,277,cs),
(256,482,o),
(354,643,o),
(479,643,cs),
(500,643,o),
(523,630,o),
(537,612,c),
(537,660,l),
(467,660,l),
(574,491,l),
(600,491,l),
(690,645,l),
(637,684,o),
(552,706,o),
(452,706,cs),
(223,706,o),
(43,510,o),
(43,261,cs),
(43,83,o),
(152,-16,o),
(346,-16,cs)
);
}
);
width = 658;
},
{
associatedMasterId = "B15366B1-D24E-431F-AB58-0431975245D7";
layerId = "8B1AD2E0-C342-4733-BEC1-223CA5C962C1";
name = "9 Nov 23 at 20:57";
shapes = (
{
closed = 1;
nodes = (
(471,-16,o),
(577,53,o),
(619,163,c),
(585,178,l),
(540,119,o),
(479,86,o),
(413,86,cs),
(320,86,o),
(261,167,o),
(261,297,cs),
(261,491,o),
(360,643,o),
(487,643,cs),
(536,643,o),
(575,612,o),
(604,550,c),
(604,660,l),
(477,660,l),
(571,480,l),
(597,480,l),
(692,634,l),
(635,680,o),
(552,706,o),
(460,706,cs),
(229,706,o),
(48,523,o),
(48,291,cs),
(48,102,o),
(162,-16,o),
(344,-16,cs)
);
}
);
width = 666;
},
{
associatedMasterId = m01;
layerId = "03F4A75B-8571-4737-B6CD-A104EA722273";
name = "20 Nov 23 at 16:09";
shapes = (
{
closed = 1;
nodes = (
(403,-16,o),
(495,31,o),
(556,115,c),
(534,138,l),
(480,77,o),
(407,43,o),
(330,43,cs),
(228,43,o),
(156,133,o),
(156,262,cs),
(156,482,o),
(276,655,o),
(429,655,cs),
(483,655,o),
(518,638,o),
(553,593,c),
(553,669,l),
(473,669,l),
(557,538,l),
(575,538,l),
(640,638,l),
(584,683,o),
(521,706,o),
(449,706,cs),
(228,706,o),
(54,514,o),
(54,269,cs),
(54,94,o),
(149,-16,o),
(300,-16,cs)
);
}
);
width = 619;
}
);
metricLeft = "=O";
metricRight = "=O";
unicode = 67;
userData = {
KernOnName = C;
};
},
{
color = 8;
glyphname = D;
kernLeft = KO_H;
kernRight = KO_D;
lastChange = "2024-03-02 06:05:35 +0000";
layers = (
{
anchors = (
{
name = bottom;
pos = (280,0);
},
{
name = center;
pos = (172,345);
},
{
name = top;
pos = (392,690);
}
);
layerId = m01;
shapes = (
{
closed = 1;
nodes = (
(206,0,ls),
(474,0,o),
(663,167,o),
(663,405,cs),
(663,588,o),
(555,690,o),
(361,690,cs),
(254,690,l),
(254,645,l),
(357,645,l),
(488,645,o),
(561,558,o),
(561,401,cs),
(561,192,o),
(427,45,o),
(237,45,c),
(114,45,l),
(114,0,l)
);
},
{
closed = 1;
nodes = (
(141,0,l),
(301,690,l),
(126,690,l),
(122,674,l),
(221,590,l),
(197,651,l),
(55,39,l),
(95,99,l),
(-21,17,l),
(-25,0,l)
);
}
);
width = 670;
},
{
associatedMasterId = m01;
layerId = "98DB709B-2A4B-4572-A508-226DEC1A946F";
name = "20 Aug 23 at 21:11";
shapes = (
{
closed = 1;
nodes = (
(297,0,ls),
(534,0,o),
(700,147,o),
(700,357,cs),
(700,562,o),
(549,690,o),
(309,690,cs),
(189,690,l),
(189,639,l),
(283,639,ls),
(502,639,o),
(610,535,o),
(610,325,cs),
(610,150,o),
(499,52,o),
(301,52,cs),
(189,52,l),
(189,0,l)
);
},
{
closed = 1;
nodes = (
(211,0,l),
(211,690,l),
(42,690,l),
(42,674,l),
(121,617,l),
(121,73,l),
(42,16,l),
(42,0,l)
);
}
);
width = 740;
},
{
associatedMasterId = m01;
layerId = "5543FCE0-794B-43A2-94CC-D01C3C910482";
name = "24 Aug 23 at 14:41";
shapes = (
{
closed = 1;
nodes = (
(143,0,l),
(303,690,l),
(208,690,l),
(48,0,l)
);
},
{
closed = 1;
nodes = (
(529,645,o),
(597,524,o),
(549,308,cs),
(515,154,o),
(394,45,o),
(257,45,c),
(86,45,l),
(86,0,l),
(208,0,ls),
(439,0,o),
(610,119,o),
(651,309,cs),
(705,553,o),
(602,690,o),
(363,690,cs),
(246,690,l),
(246,645,l),
(359,645,l)
);
},
{
closed = 1;
nodes = (
(118,0,l),
(122,16,l),
(158,64,l),
(63,64,l),
(-19,16,l),
(-23,0,l)
);
},
{
closed = 1;
nodes = (
(128,690,l),
(124,674,l),
(193,626,l),
(288,626,l),
(288,674,l),
(288,690,l)
);
}
);
width = 679;
},
{
anchors = (
{
name = bottom;
pos = (317,0);
},
{
name = center;
pos = (211,345);
},
{
name = top;
pos = (427,690);
}
);
layerId = "B15366B1-D24E-431F-AB58-0431975245D7";
shapes = (
{
closed = 1;
nodes = (
(275,0,l),
(564,0,o),
(746,155,o),
(746,402,cs),
(746,579,o),
(620,690,o),
(420,690,cs),
(291,690,l),
(291,629,l),
(397,629,l),
(490,629,o),
(542,552,o),
(542,415,cs),
(542,217,o),
(420,61,o),
(265,61,cs),
(164,61,l),
(164,0,l)
);
},
{
closed = 1;
nodes = (
(228,0,l),
(388,690,l),
(120,690,l),
(115,668,l),
(231,558,l),
(188,651,l),
(46,39,l),
(113,132,l),
(-23,24,l),
(-28,0,l)
);
}
);
width = 749;
},
{
associatedMasterId = "B15366B1-D24E-431F-AB58-0431975245D7";
layerId = "DA7BCB1C-34C4-4BB6-AC27-1B26E6A63C93";
name = "15 Oct 23 at 15:35";
shapes = (
{
closed = 1;
nodes = (
(275,0,l),
(515,0,o),
(694,129,o),
(739,334,cs),
(787,553,o),
(664,690,o),
(420,690,cs),
(291,690,l),
(291,629,l),
(397,629,l),
(521,629,o),
(573,515,o),
(532,334,cs),
(497,174,o),
(386,61,o),
(265,61,cs),
(164,61,l),
(164,0,l)
);
},
{
closed = 1;
nodes = (
(95,0,l),
(95,82,l),
(54,82,l),
(-15,23,l),
(-22,0,l)
);
},
{
closed = 1;
nodes = (
(226,0,l),
(386,690,l),
(195,690,l),
(35,0,l)
);
},
{
closed = 1;
nodes = (
(255,608,l),
(255,690,l),
(122,690,l),
(115,668,l),
(176,608,l)
);
}
);
width = 752;
},
{
associatedMasterId = "B15366B1-D24E-431F-AB58-0431975245D7";
layerId = "234EE904-1AF9-4286-9324-98FE41F5CC4C";
name = "22 Oct 23 at 13:56";
shapes = (
{
closed = 1;
nodes = (
(275,0,l),
(526,0,o),
(692,120,o),
(739,334,cs),
(787,553,o),
(664,690,o),
(420,690,cs),
(291,690,l),
(291,629,l),
(397,629,l),
(521,629,o),
(573,515,o),
(532,334,cs),
(497,174,o),
(386,61,o),
(265,61,cs),
(164,61,l),
(164,0,l)
);
},
{
closed = 1;
nodes = (
(95,0,l),
(95,82,l),
(54,82,l),
(-15,23,l),
(-22,0,l)
);
},
{
closed = 1;
nodes = (
(226,0,l),
(386,690,l),
(195,690,l),
(35,0,l)
);
},
{
closed = 1;
nodes = (
(255,608,l),
(255,690,l),
(122,690,l),
(115,668,l),
(176,608,l)
);
}
);
width = 748;
},
{
associatedMasterId = m01;
layerId = "102D031C-1D23-4EE5-8F1D-A774B90DECD4";
name = "27 Oct 23 at 19:17";
shapes = (
{
closed = 1;
nodes = (
(206,0,ls),
(437,0,o),
(608,119,o),
(649,309,cs),
(703,553,o),
(600,690,o),
(361,690,cs),
(254,690,l),
(254,645,l),
(357,645,l),
(527,645,o),
(595,524,o),
(547,308,cs),
(512,146,o),
(392,45,o),
(237,45,c),
(114,45,l),
(114,0,l)
);
},
{
closed = 1;
nodes = (
(85,0,l),
(85,73,l),
(63,73,l),
(-21,16,l),
(-25,0,l)
);
},
{
closed = 1;
nodes = (
(141,0,l),
(301,690,l),
(206,690,l),
(46,0,l)
);
},
{
closed = 1;
nodes = (
(226,690,l),
(126,690,l),
(122,674,l),
(189,617,l),
(226,617,l)
);
}
);
width = 673;
},
{
associatedMasterId = "B15366B1-D24E-431F-AB58-0431975245D7";
layerId = "57FC212A-A14B-4CA4-AD1D-4ACC1B84930F";
name = "27 Oct 23 at 19:23";
shapes = (
{
closed = 1;
nodes = (
(275,0,l),
(515,0,o),
(694,129,o),
(739,334,cs),
(789,562,o),
(675,690,o),
(420,690,cs),
(291,690,l),
(291,629,l),
(397,629,l),
(521,629,o),
(573,515,o),
(532,334,cs),
(497,174,o),
(386,61,o),
(265,61,cs),
(164,61,l),
(164,0,l)
);
},
{
closed = 1;
nodes = (
(120,0,l),
(120,82,l),
(54,84,l),
(-15,23,l),
(-22,0,l)
);
},
{
closed = 1;
nodes = (
(226,0,l),
(386,690,l),
(195,690,l),
(35,0,l)
);
},
{
closed = 1;
nodes = (
(265,690,l),
(122,690,l),
(115,668,l),
(176,608,l),
(265,606,l)
);
}
);
width = 748;
},
{
associatedMasterId = m01;
layerId = "33550FF0-65F0-43BC-8058-CA9D6F29DEA1";
name = "27 Oct 23 at 19:38";
shapes = (
{
closed = 1;
nodes = (
(206,0,ls),
(437,0,o),
(608,119,o),
(649,309,cs),
(703,553,o),
(600,690,o),
(361,690,cs),
(254,690,l),
(254,645,l),
(357,645,l),
(520,645,o),
(593,515,o),
(547,308,cs),
(512,146,o),
(392,45,o),
(237,45,c),
(114,45,l),
(114,0,l)
);
},
{
closed = 1;
nodes = (
(85,0,l),
(85,73,l),
(63,73,l),
(-21,16,l),
(-25,0,l)
);
},
{
closed = 1;
nodes = (
(141,0,l),
(301,690,l),
(206,690,l),
(46,0,l)
);
},
{
closed = 1;
nodes = (
(226,690,l),
(126,690,l),
(122,674,l),
(189,617,l),
(226,617,l)
);
}
);
width = 673;
},
{
associatedMasterId = "B15366B1-D24E-431F-AB58-0431975245D7";
layerId = "64D79FCD-30D2-42DE-9C03-A12D996AA7B2";
name = "27 Oct 23 at 19:38";
shapes = (
{
closed = 1;
nodes = (
(275,0,l),
(503,0,o),
(693,128,o),
(734,310,cs),
(787,543,o),
(666,690,o),
(420,690,cs),
(291,690,l),
(291,629,l),
(397,629,l),
(519,629,o),
(569,506,o),
(527,310,cs),
(497,171,o),
(382,61,o),
(265,61,cs),
(164,61,l),
(164,0,l)
);
},
{
closed = 1;
nodes = (
(126,0,l),
(126,82,l),
(55,86,l),
(-15,23,l),
(-22,0,l)
);
},
{
closed = 1;
nodes = (
(226,0,l),
(386,690,l),
(195,690,l),
(35,0,l)
);
},
{
closed = 1;
nodes = (
(242,690,l),
(122,690,l),
(115,668,l),
(176,608,l),
(242,604,l)
);
}
);
width = 748;
},
{
associatedMasterId = "B15366B1-D24E-431F-AB58-0431975245D7";
layerId = "BAF59344-0CA6-4330-B703-9D6D2FACB69C";
name = "28 Oct 23 at 13:24";
shapes = (
{
closed = 1;
nodes = (
(275,0,l),
(552,0,o),
(746,162,o),
(746,392,cs),
(746,575,o),
(620,690,o),
(420,690,cs),
(291,690,l),
(291,629,l),
(397,629,l),
(490,629,o),
(542,552,o),
(542,415,cs),
(542,217,o),
(420,61,o),
(265,61,cs),
(164,61,l),
(164,0,l)
);
},
{
closed = 1;
nodes = (
(126,0,l),
(126,82,l),
(55,86,l),
(-15,23,l),
(-22,0,l)
);
},
{
closed = 1;
nodes = (
(226,0,l),
(386,690,l),
(195,690,l),
(35,0,l)
);
},
{
closed = 1;
nodes = (
(242,690,l),
(122,690,l),
(115,668,l),
(176,608,l),
(242,604,l)
);
}
);
width = 750;
},
{
associatedMasterId = m01;
layerId = "EEC8D233-3315-41F0-BF5D-B79F6EB57E29";
name = "28 Oct 23 at 13:24";
shapes = (
{
closed = 1;
nodes = (
(206,0,ls),
(487,0,o),
(663,164,o),
(663,426,cs),
(663,595,o),
(555,690,o),
(361,690,cs),
(254,690,l),
(254,645,l),
(357,645,l),
(488,645,o),
(561,565,o),
(561,422,cs),
(561,201,o),
(427,45,o),
(237,45,c),
(114,45,l),
(114,0,l)
);
},
{
closed = 1;
nodes = (
(85,0,l),
(85,73,l),
(63,73,l),
(-21,16,l),
(-25,0,l)
);
},
{
closed = 1;
nodes = (
(141,0,l),
(301,690,l),
(206,690,l),
(46,0,l)
);
},
{
closed = 1;
nodes = (
(226,690,l),
(126,690,l),
(122,674,l),
(189,617,l),
(226,617,l)
);
}
);
width = 674;
},
{
associatedMasterId = m01;
layerId = "EE22FA5C-7B3D-48CE-8150-0951D1B04C28";
name = "2 Nov 23 at 17:03";
shapes = (
{
closed = 1;
nodes = (
(206,0,ls),
(487,0,o),
(663,160,o),
(663,416,cs),
(663,584,o),
(547,690,o),
(361,690,cs),
(254,690,l),
(254,645,l),
(357,645,l),
(488,645,o),
(561,561,o),
(561,412,cs),
(561,197,o),
(427,45,o),
(237,45,c),
(114,45,l),
(114,0,l)
);
},
{
closed = 1;
nodes = (
(141,0,l),
(301,690,l),
(126,690,l),
(122,674,l),
(221,590,l),
(197,651,l),
(55,39,l),
(95,99,l),
(-21,17,l),
(-25,0,l)
);
}
);
width = 674;
},
{
associatedMasterId = "B15366B1-D24E-431F-AB58-0431975245D7";
layerId = "5238351F-B998-44B4-969A-95C9599D6D7F";
name = "2 Nov 23 at 17:09";
shapes = (
{
closed = 1;
nodes = (
(275,0,l),
(552,0,o),
(746,162,o),
(746,392,cs),
(746,575,o),
(620,690,o),
(420,690,cs),
(291,690,l),
(291,629,l),
(397,629,l),
(490,629,o),
(542,552,o),
(542,415,cs),
(542,217,o),
(420,61,o),
(265,61,cs),
(164,61,l),
(164,0,l)
);
},
{
closed = 1;
nodes = (
(228,0,l),
(388,690,l),
(120,690,l),
(115,668,l),
(231,558,l),
(188,651,l),
(46,39,l),
(113,132,l),
(-23,24,l),
(-28,0,l)
);
}
);
width = 750;
},
{
associatedMasterId = "B15366B1-D24E-431F-AB58-0431975245D7";
layerId = "047E66D0-0553-4825-A5B9-209D03924BE8";
name = "9 Nov 23 at 20:57";
shapes = (
{
closed = 1;
nodes = (
(275,0,l),
(552,0,o),
(746,162,o),
(746,392,cs),
(746,575,o),
(620,690,o),
(420,690,cs),
(291,690,l),
(291,629,l),
(397,629,l),
(490,629,o),
(542,552,o),
(542,415,cs),
(542,217,o),
(420,61,o),
(265,61,cs),
(164,61,l),
(164,0,l)
);
},
{
closed = 1;
nodes = (
(228,0,l),
(388,690,l),
(120,690,l),
(115,668,l),
(231,558,l),
(188,651,l),
(46,39,l),
(113,132,l),
(-23,24,l),
(-28,0,l)
);
}
);
width = 750;
}
);
metricLeft = "=H";
metricRight = "=O";
unicode = 68;
userData = {
KernOnName = D;
};
},
{
color = 8;
glyphname = E;
kernLeft = KO_H;
kernRight = KO_E;
lastChange = "2024-03-02 06:05:35 +0000";
layers = (
{
anchors = (
{
name = bottom;
pos = (241,0);
},
{
name = ogonek;
pos = (421,0);
},
{
name = top;
pos = (400,690);
},
{
name = topleft;
pos = (124,690);
}
);
layerId = m01;
shapes = (
{
closed = 1;
nodes = (
(141,0,l),
(301,690,l),
(126,690,l),
(122,674,l),
(221,590,l),
(197,651,l),
(55,39,l),
(95,99,l),
(-21,17,l),
(-25,0,l)
);
},
{
closed = 1;
nodes = (
(458,0,l),
(472,59,l),
(148,43,l),
(138,0,l)
);
},
{
closed = 1;
nodes = (
(502,0,l),
(532,161,l),
(516,161,l),
(371,41,l),
(361,0,l)
);
},
{
closed = 1;
nodes = (
(463,388,l),
(219,377,l),
(210,334,l),
(448,324,l)
);
},
{
closed = 1;
nodes = (
(479,245,l),
(518,450,l),
(502,450,l),
(412,375,l),
(403,337,l),
(463,245,l)
);
},
{
closed = 1;
nodes = (
(608,690,l),
(291,690,l),
(281,647,l),
(594,631,l)
);
},
{
closed = 1;
nodes = (
(595,548,l),
(623,698,l),
(612,698,l),
(498,690,l),
(488,646,l),
(579,548,l)
);
}
);
width = 591;
},
{
associatedMasterId = m01;
layerId = "BA23D21B-E65B-4B48-A938-F1D9B3DCD6C8";
name = "21 Aug 23 at 20:22";
shapes = (
{
closed = 1;
nodes = (
(211,0,l),
(211,690,l),
(42,690,l),
(42,674,l),
(121,617,l),
(121,73,l),
(42,16,l),
(42,0,l)
);
},
{
closed = 1;
nodes = (
(536,0,l),
(536,54,l),
(195,38,l),
(195,0,l)
);
},
{
closed = 1;
nodes = (
(576,0,l),
(587,182,l),
(571,182,l),
(467,41,l),
(467,0,l)
);
},
{
closed = 1;
nodes = (
(451,385,l),
(186,374,l),
(186,337,l),
(451,327,l)
);
},
{
closed = 1;
nodes = (
(474,247,l),
(484,461,l),
(468,461,l),
(397,375,l),
(397,336,l),
(458,247,l)
);
},
{
closed = 1;
nodes = (
(536,690,l),
(195,690,l),
(195,652,l),
(536,636,l)
);
},
{
closed = 1;
nodes = (
(571,533,l),
(564,696,l),
(553,696,l),
(465,690,l),
(465,646,l),
(555,533,l)
);
}
);
width = 650;
},
{
anchors = (
{
name = bottom;
pos = (250,0);
},
{
name = ogonek;
pos = (439,0);
},
{
name = top;
pos = (400,690);
},
{
name = topleft;
pos = (122,690);
}
);
guides = (
{
angle = 77.2479;
pos = (636,603);
}
);
layerId = "B15366B1-D24E-431F-AB58-0431975245D7";
shapes = (
{
closed = 1;
nodes = (
(228,0,l),
(388,690,l),
(120,690,l),
(115,668,l),
(231,558,l),
(188,651,l),
(46,39,l),
(113,132,l),
(-23,24,l),
(-28,0,l)
);
},
{
closed = 1;
nodes = (
(488,0,l),
(503,71,l),
(211,47,l),
(201,0,l)
);
},
{
closed = 1;
nodes = (
(532,0,l),
(573,189,l),
(546,189,l),
(363,41,l),
(353,0,l)
);
},
{
closed = 1;
nodes = (
(485,395,l),
(269,377,l),
(260,334,l),
(466,316,l)
);
},
{
closed = 1;
nodes = (
(496,231,l),
(541,462,l),
(515,462,l),
(402,375,l),
(393,337,l),
(470,231,l)
);
},
{
closed = 1;
nodes = (
(638,690,l),
(351,690,l),
(341,646,l),
(618,606,l)
);
},
{
closed = 1;
nodes = (
(614,508,l),
(657,698,l),
(638,698,l),
(486,690,l),
(476,646,l),
(588,508,l)
);
}
);
width = 616;
},
{
associatedMasterId = m01;
layerId = "5FA4F11C-D1CC-4571-8A89-2A1DDB9769E5";
name = "20 Nov 23 at 16:10";
shapes = (
{
closed = 1;
nodes = (
(141,0,l),
(301,690,l),
(126,690,l),
(122,674,l),
(221,590,l),
(197,651,l),
(55,39,l),
(95,99,l),
(-21,17,l),
(-25,0,l)
);
},
{
closed = 1;
nodes = (
(458,0,l),
(472,59,l),
(148,43,l),
(138,0,l)
);
},
{
closed = 1;
nodes = (
(502,0,l),
(532,151,l),
(516,151,l),
(379,41,l),
(369,0,l)
);
},
{
closed = 1;
nodes = (
(463,388,l),
(219,377,l),
(210,334,l),
(448,324,l)
);
},
{
closed = 1;
nodes = (
(479,245,l),
(518,450,l),
(502,450,l),
(412,375,l),
(403,337,l),
(463,245,l)
);
},
{
closed = 1;
nodes = (
(608,690,l),
(291,690,l),
(281,647,l),
(594,631,l)
);
},
{
closed = 1;
nodes = (
(595,558,l),
(623,698,l),
(612,698,l),
(503,690,l),
(493,646,l),
(579,558,l)
);
}
);
width = 591;
},
{
associatedMasterId = m01;
layerId = "303FA63F-267F-4FD2-85E1-8CA2394AF6AA";
name = "26 Nov 23 at 20:54";
shapes = (
{
closed = 1;
nodes = (
(141,0,l),
(301,690,l),
(126,690,l),
(122,674,l),
(221,590,l),
(197,651,l),
(55,39,l),
(95,99,l),
(-21,17,l),
(-25,0,l)
);
},
{
closed = 1;
nodes = (
(458,0,l),
(472,59,l),
(148,43,l),
(138,0,l)
);
},
{
closed = 1;
nodes = (
(502,0,l),
(532,161,l),
(516,161,l),
(379,41,l),
(369,0,l)
);
},
{
closed = 1;
nodes = (
(463,388,l),
(219,377,l),
(210,334,l),
(448,324,l)
);
},
{
closed = 1;
nodes = (
(479,245,l),
(518,450,l),
(502,450,l),
(412,375,l),
(403,337,l),
(463,245,l)
);
},
{
closed = 1;
nodes = (
(608,690,l),
(291,690,l),
(281,647,l),
(594,631,l)
);
},
{
closed = 1;
nodes = (
(595,548,l),
(623,698,l),
(612,698,l),
(503,690,l),
(493,646,l),
(579,548,l)
);
}
);
width = 591;
},
{
associatedMasterId = "B15366B1-D24E-431F-AB58-0431975245D7";
layerId = "8D893EA0-2E40-4E23-9967-3D309DDD7066";
name = "9 Dec 23 at 07:59";
shapes = (
{
closed = 1;
nodes = (
(228,0,l),
(388,690,l),
(120,690,l),
(115,668,l),
(231,558,l),
(188,651,l),
(46,39,l),
(113,132,l),
(-23,24,l),
(-28,0,l)
);
},
{
closed = 1;
nodes = (
(488,0,l),
(503,71,l),
(211,47,l),
(201,0,l)
);
},
{
closed = 1;
nodes = (
(532,0,l),
(566,166,l),
(542,166,l),
(380,41,l),
(370,0,l)
);
},
{
closed = 1;
nodes = (
(485,395,l),
(269,377,l),
(260,334,l),
(466,316,l)
);
},
{
closed = 1;
nodes = (
(498,242,l),
(539,454,l),
(516,454,l),
(402,375,l),
(393,337,l),
(475,242,l)
);
},
{
closed = 1;
nodes = (
(638,690,l),
(351,690,l),
(341,646,l),
(618,606,l)
);
},
{
closed = 1;
nodes = (
(618,526,l),
(654,698,l),
(635,698,l),
(496,690,l),
(486,646,l),
(595,526,l)
);
}
);
width = 616;
}
);
metricLeft = "=H";
metricRight = "=O";
unicode = 69;
userData = {
KernOnName = E;
};
},
{
color = 8;
glyphname = Schwa;
kernRight = KO_Schwa;
lastChange = "2024-01-10 08:03:29 +0000";
layers = (
{
layerId = m01;
shapes = (
{
closed = 1;
nodes = (
(506,-16,o),
(659,155,o),
(659,397,cs),
(659,578,o),
(540,706,o),
(371,706,cs),
(269,706,o),
(183,687,o),
(129,652,c),
(191,537,l),
(209,537,l),
(290,669,l),
(223,669,l),
(222,617,l),
(264,643,o),
(306,655,o),
(358,655,cs),
(475,655,o),
(558,554,o),
(558,410,cs),
(558,200,o),
(447,35,o),
(305,35,cs),
(179,35,o),
(122,135,o),
(159,295,c),
(581,308,l),
(591,351,l),
(63,351,l),
(11,126,o),
(98,-16,o),
(289,-16,cs)
);
}
);
width = 671;
},
{
layerId = "B15366B1-D24E-431F-AB58-0431975245D7";
shapes = (
{
closed = 1;
nodes = (
(561,-16,o),
(725,143,o),
(725,396,cs),
(725,586,o),
(593,706,o),
(382,706,cs),
(299,706,o),
(205,683,o),
(118,643,c),
(188,490,l),
(215,490,l),
(337,663,l),
(247,663,l),
(224,581,l),
(277,623,o),
(324,642,o),
(379,642,cs),
(463,642,o),
(522,556,o),
(522,434,cs),
(522,209,o),
(440,50,o),
(323,50,cs),
(244,50,o),
(224,133,o),
(254,266,c),
(561,313,l),
(572,361,l),
(52,361,l),
(-1,129,o),
(94,-16,o),
(299,-16,cs)
);
}
);
width = 731;
}
);
metricLeft = "=O";
metricRight = "=O";
unicode = 399;
},
{
color = 8;
glyphname = F;
kernLeft = KO_H;
kernRight = KO_F;
lastChange = "2024-03-02 06:05:35 +0000";
layers = (
{
layerId = m01;
shapes = (
{
closed = 1;
nodes = (
(244,0,l),
(248,16,l),
(126,95,l),
(150,39,l),
(301,690,l),
(126,690,l),
(122,674,l),
(221,590,l),
(197,651,l),
(55,39,l),
(95,99,l),
(-21,17,l),
(-25,0,l)
);
},
{
closed = 1;
nodes = (
(454,380,l),
(215,369,l),
(206,326,l),
(439,316,l)
);
},
{
closed = 1;
nodes = (
(454,237,l),
(493,442,l),
(477,442,l),
(387,367,l),
(378,329,l),
(438,237,l)
);
},
{
closed = 1;
nodes = (
(595,690,l),
(287,690,l),
(277,647,l),
(581,631,l)
);
},
{
closed = 1;
nodes = (
(576,548,l),
(604,698,l),
(593,698,l),
(479,690,l),
(469,646,l),
(560,548,l)
);
}
);
width = 539;
},
{
associatedMasterId = m01;
layerId = "0FF89FAD-9CF1-4AED-8B0B-CAB51495754A";
name = "21 Aug 23 at 20:24";
shapes = (
{
closed = 1;
nodes = (
(315,0,l),
(315,16,l),
(211,73,l),
(211,690,l),
(42,690,l),
(42,674,l),
(121,617,l),
(121,73,l),
(42,16,l),
(42,0,l)
);
},
{
closed = 1;
nodes = (
(441,365,l),
(186,354,l),
(186,317,l),
(441,307,l)
);
},
{
closed = 1;
nodes = (
(464,227,l),
(474,441,l),
(458,441,l),
(387,355,l),
(387,316,l),
(448,227,l)
);
},
{
closed = 1;
nodes = (
(526,690,l),
(195,690,l),
(195,652,l),
(526,636,l)
);
},
{
closed = 1;
nodes = (
(561,533,l),
(554,696,l),
(543,696,l),
(455,690,l),
(455,646,l),
(545,533,l)
);
}
);
width = 624;
},
{
associatedMasterId = m01;
layerId = "CB547575-C0BF-4453-B647-9F42EF522C72";
name = "24 Aug 23 at 14:46";
shapes = (
{
closed = 1;
nodes = (
(139,0,l),
(299,690,l),
(204,690,l),
(44,0,l)
);
},
{
closed = 1;
nodes = (
(128,690,l),
(124,674,l),
(189,626,l),
(284,626,l),
(284,674,l),
(284,690,l)
);
},
{
closed = 1;
nodes = (
(457,367,l),
(213,356,l),
(204,313,l),
(442,303,l)
);
},
{
closed = 1;
nodes = (
(607,690,l),
(299,690,l),
(289,647,l),
(593,631,l)
);
},
{
closed = 1;
nodes = (
(588,558,l),
(616,698,l),
(605,698,l),
(496,690,l),
(486,646,l),
(572,558,l)
);
},
{
closed = 1;
nodes = (
(245,0,l),
(249,16,l),
(154,64,l),
(59,64,l),
(-23,16,l),
(-27,0,l)
);
},
{
closed = 1;
nodes = (
(457,224,l),
(496,429,l),
(480,429,l),
(390,354,l),
(381,316,l),
(441,224,l)
);
}
);
width = 539;
},
{
guides = (
{
pos = (283,82);
}
);
layerId = "B15366B1-D24E-431F-AB58-0431975245D7";
shapes = (
{
closed = 1;
nodes = (
(335,0,l),
(340,22,l),
(194,120,l),
(237,39,l),
(388,690,l),
(120,690,l),
(115,668,l),
(231,558,l),
(188,651,l),
(46,39,l),
(113,132,l),
(-23,24,l),
(-28,0,l)
);
},
{
closed = 1;
nodes = (
(475,384,l),
(259,366,l),
(250,323,l),
(456,305,l)
);
},
{
closed = 1;
nodes = (
(486,220,l),
(531,451,l),
(505,451,l),
(392,364,l),
(383,326,l),
(460,220,l)
);
},
{
closed = 1;
nodes = (
(638,690,l),
(351,690,l),
(341,646,l),
(618,606,l)
);
},
{
closed = 1;
nodes = (
(609,508,l),
(652,698,l),
(633,698,l),
(481,690,l),
(471,646,l),
(583,508,l)
);
}
);
width = 575;
},
{
associatedMasterId = m01;
layerId = "5C1C86B4-40DE-48E0-ADBB-C14BD158A425";
name = "20 Nov 23 at 16:10";
shapes = (
{
closed = 1;
nodes = (
(244,0,l),
(248,16,l),
(126,95,l),
(150,39,l),
(301,690,l),
(126,690,l),
(122,674,l),
(221,590,l),
(197,651,l),
(55,39,l),
(95,99,l),
(-21,17,l),
(-25,0,l)
);
},
{
closed = 1;
nodes = (
(454,380,l),
(215,369,l),
(206,326,l),
(439,316,l)
);
},
{
closed = 1;
nodes = (
(454,237,l),
(493,442,l),
(477,442,l),
(387,367,l),
(378,329,l),
(438,237,l)
);
},
{
closed = 1;
nodes = (
(595,690,l),
(287,690,l),
(277,647,l),
(581,631,l)
);
},
{
closed = 1;
nodes = (
(576,558,l),
(604,698,l),
(593,698,l),
(484,690,l),
(474,646,l),
(560,558,l)
);
}
);
width = 537;
},
{
associatedMasterId = "B15366B1-D24E-431F-AB58-0431975245D7";
guides = (
{
pos = (283,82);
}
);
layerId = "40812BEC-30A8-46EE-9EBC-B657F658CA15";
name = "9 Dec 23 at 08:03";
shapes = (
{
closed = 1;
nodes = (
(335,0,l),
(340,22,l),
(194,120,l),
(237,39,l),
(388,690,l),
(120,690,l),
(115,668,l),
(231,558,l),
(188,651,l),
(46,39,l),
(113,132,l),
(-23,24,l),
(-28,0,l)
);
},
{
closed = 1;
nodes = (
(473,387,l),
(267,369,l),
(258,326,l),
(454,308,l)
);
},
{
closed = 1;
nodes = (
(486,234,l),
(527,446,l),
(504,446,l),
(390,367,l),
(381,329,l),
(463,234,l)
);
},
{
closed = 1;
nodes = (
(628,690,l),
(351,690,l),
(341,646,l),
(608,606,l)
);
},
{
closed = 1;
nodes = (
(608,526,l),
(644,698,l),
(625,698,l),
(486,690,l),
(476,646,l),
(585,526,l)
);
}
);
width = 570;
}
);
metricLeft = "=H";
metricRight = "=O";
unicode = 70;
userData = {
KernOnName = F;
};
},
{
color = 8;
glyphname = G;
kernLeft = KO_C;
kernRight = KO_G;
lastChange = "2024-03-02 06:05:36 +0000";
layers = (
{
anchors = (
{
name = bottom;
pos = (294,0);
},
{
name = top;
pos = (443,690);
}
);
background = {
shapes = (
{
closed = 0;
nodes = (
(300,-16,ls),
(403,-16,o),
(495,31,o),
(556,115,c),
(534,138,l),
(480,77,o),
(407,43,o),
(330,43,cs)
);
}
);
};
guides = (
{
angle = 180;
pos = (901,332);
}
);
layerId = m01;
shapes = (
{
closed = 1;
nodes = (
(414,-16,o),
(503,11,o),
(560,53,c),
(616,293,l),
(576,233,l),
(692,315,l),
(696,332,l),
(436,332,l),
(432,316,l),
(545,232,l),
(521,293,l),
(465,54,l),
(500,54,l),
(484,81,l),
(450,55,o),
(402,40,o),
(351,40,cs),
(231,40,o),
(156,126,o),
(156,262,cs),
(156,482,o),
(276,655,o),
(429,655,cs),
(489,655,o),
(529,636,o),
(563,593,c),
(563,669,l),
(481,669,l),
(567,525,l),
(585,525,l),
(652,642,l),
(591,683,o),
(518,706,o),
(449,706,cs),
(228,706,o),
(54,514,o),
(54,269,cs),
(54,86,o),
(153,-16,o),
(330,-16,cs)
);
}
);
width = 697;
},
{
anchors = (
{
name = bottom;
pos = (326,0);
},
{
name = top;
pos = (476,690);
}
);
layerId = "B15366B1-D24E-431F-AB58-0431975245D7";
shapes = (
{
closed = 1;
nodes = (
(474,-16,o),
(565,6,o),
(649,49,c),
(708,300,l),
(641,207,l),
(765,315,l),
(770,339,l),
(449,339,l),
(444,317,l),
(560,207,l),
(517,300,l),
(457,42,l),
(564,42,l),
(564,131,l),
(529,89,o),
(486,68,o),
(434,68,cs),
(337,68,o),
(260,169,o),
(260,297,cs),
(260,491,o),
(373,643,o),
(516,643,cs),
(565,643,o),
(604,612,o),
(633,550,c),
(633,660,l),
(476,660,l),
(607,476,l),
(633,476,l),
(731,635,l),
(668,679,o),
(569,706,o),
(474,706,cs),
(235,706,o),
(47,523,o),
(47,291,cs),
(47,102,o),
(173,-16,o),
(373,-16,cs)
);
}
);
width = 768;
},
{
associatedMasterId = m01;
layerId = "D9F88B54-2B67-4D42-B138-4BC6A5D8AC19";
name = "20 Nov 23 at 16:14";
shapes = (
{
closed = 1;
nodes = (
(484,86,l),
(442,55,o),
(406,43,o),
(354,43,cs),
(238,43,o),
(156,133,o),
(156,262,cs),
(156,482,o),
(276,655,o),
(429,655,cs),
(489,655,o),
(529,636,o),
(563,593,c),
(563,669,l),
(483,669,l),
(567,528,l),
(585,528,l),
(652,642,l),
(591,683,o),
(518,706,o),
(449,706,cs),
(228,706,o),
(54,514,o),
(54,269,cs),
(54,102,o),
(160,-16,o),
(310,-16,cs),
(410,-16,o),
(490,8,o),
(550,55,c),
(604,294,l),
(564,234,l),
(680,316,l),
(684,333,l),
(424,333,l),
(420,317,l),
(533,233,l),
(509,294,l),
(449,37,l)
);
}
);
width = 685;
},
{
associatedMasterId = m01;
background = {
shapes = (
{
closed = 0;
nodes = (
(300,-16,ls),
(403,-16,o),
(495,31,o),
(556,115,c),
(534,138,l),
(480,77,o),
(407,43,o),
(330,43,cs)
);
}
);
};
guides = (
{
angle = 180;
pos = (901,332);
}
);
layerId = "468653E2-D62A-4634-9F23-6D863F26E222";
name = "26 Nov 23 at 21:05";
shapes = (
{
closed = 1;
nodes = (
(228,43,o),
(156,133,o),
(156,262,cs),
(156,482,o),
(276,655,o),
(429,655,cs),
(489,655,o),
(529,636,o),
(563,593,c),
(563,669,l),
(483,669,l),
(567,528,l),
(585,528,l),
(652,642,l),
(591,683,o),
(518,706,o),
(449,706,cs),
(228,706,o),
(54,514,o),
(54,269,cs),
(54,94,o),
(149,-16,o),
(300,-16,cs),
(404,-16,o),
(500,21,o),
(569,87,c),
(616,293,l),
(576,233,l),
(692,315,l),
(696,332,l),
(436,332,l),
(432,316,l),
(545,232,l),
(521,293,l),
(465,54,l),
(500,54,l),
(500,137,l),
(474,82,o),
(404,43,o),
(330,43,cs)
);
}
);
width = 697;
},
{
associatedMasterId = m01;
background = {
shapes = (
{
closed = 0;
nodes = (
(300,-16,ls),
(403,-16,o),
(495,31,o),
(556,115,c),
(534,138,l),
(480,77,o),
(407,43,o),
(330,43,cs)
);
}
);
};
guides = (
{
angle = 180;
pos = (901,332);
}
);
layerId = "F65C21CF-FC7B-4BC1-BE7E-9919F0EB3466";
name = "9 Dec 23 at 07:35";
shapes = (
{
closed = 1;
nodes = (
(414,-16,o),
(503,11,o),
(560,53,c),
(616,293,l),
(576,233,l),
(692,315,l),
(696,332,l),
(436,332,l),
(432,316,l),
(545,232,l),
(521,293,l),
(465,54,l),
(500,54,l),
(484,86,l),
(447,58,o),
(399,43,o),
(351,43,cs),
(237,43,o),
(156,133,o),
(156,262,cs),
(156,482,o),
(276,655,o),
(429,655,cs),
(489,655,o),
(529,636,o),
(563,593,c),
(563,669,l),
(483,669,l),
(567,528,l),
(585,528,l),
(652,642,l),
(591,683,o),
(518,706,o),
(449,706,cs),
(228,706,o),
(54,514,o),
(54,269,cs),
(54,86,o),
(153,-16,o),
(330,-16,cs)
);
}
);
width = 697;
}
);
metricLeft = "=O";
metricRight = "=H";
unicode = 71;
userData = {
KernOnName = G;
};
},
{
color = 8;
glyphname = H;
kernLeft = KO_H;
kernRight = KO_H;
lastChange = "2024-03-02 06:05:35 +0000";
layers = (
{
anchors = (
{
name = bottom;
pos = (304,0);
},
{
name = center;
pos = (412,499);
},
{
name = top;
pos = (463,690);
},
{
name = topleft;
pos = (124,690);
}
);
guides = (
{
pos = (389,77);
},
{
angle = 75.9638;
pos = (124,682);
},
{
angle = 256.7595;
pos = (789,682);
}
);
layerId = m01;
shapes = (
{
closed = 1;
nodes = (
(607,335,l),
(618,385,l),
(170,385,l),
(159,335,l)
);
},
{
closed = 1;
nodes = (
(221,0,l),
(225,16,l),
(126,100,l),
(150,39,l),
(292,651,l),
(252,591,l),
(368,673,l),
(372,690,l),
(126,690,l),
(122,674,l),
(221,590,l),
(197,651,l),
(55,39,l),
(95,99,l),
(-21,17,l),
(-25,0,l)
);
},
{
closed = 1;
nodes = (
(640,0,l),
(644,16,l),
(545,100,l),
(569,39,l),
(711,651,l),
(671,591,l),
(787,673,l),
(791,690,l),
(545,690,l),
(541,674,l),
(640,590,l),
(616,651,l),
(474,39,l),
(514,99,l),
(398,17,l),
(394,0,l)
);
}
);
width = 718;
},
{
associatedMasterId = m01;
layerId = "382A1313-399E-45F7-8CB4-13406A125F3C";
name = "20 Aug 23 at 20:53";
shapes = (
{
closed = 1;
nodes = (
(748,0,l),
(748,16,l),
(669,73,l),
(669,617,l),
(748,674,l),
(748,690,l),
(500,690,l),
(500,674,l),
(579,617,l),
(579,73,l),
(500,16,l),
(500,0,l)
);
},
{
closed = 1;
nodes = (
(289,0,l),
(289,16,l),
(211,73,l),
(211,617,l),
(289,674,l),
(289,690,l),
(42,690,l),
(42,674,l),
(121,617,l),
(121,73,l),
(42,16,l),
(42,0,l)
);
},
{
closed = 1;
nodes = (
(604,335,l),
(604,385,l),
(186,385,l),
(186,335,l)
);
}
);
width = 790;
},
{
associatedMasterId = m01;
layerId = "E3D3A50E-BA13-431A-A8D2-56E78CEC95A5";
name = "24 Aug 23 at 14:38";
shapes = (
{
closed = 1;
nodes = (
(561,0,l),
(721,690,l),
(626,690,l),
(466,0,l)
);
},
{
closed = 1;
nodes = (
(227,0,l),
(231,16,l),
(164,75,l),
(69,75,l),
(-15,16,l),
(-19,0,l)
);
},
{
closed = 1;
nodes = (
(147,0,l),
(307,690,l),
(212,690,l),
(52,0,l)
);
},
{
closed = 1;
nodes = (
(603,335,l),
(614,385,l),
(176,385,l),
(165,335,l)
);
},
{
closed = 1;
nodes = (
(641,0,l),
(645,16,l),
(576,64,l),
(481,64,l),
(399,16,l),
(395,0,l)
);
},
{
closed = 1;
nodes = (
(546,690,l),
(542,674,l),
(611,626,l),
(706,626,l),
(788,674,l),
(792,690,l)
);
},
{
closed = 1;
nodes = (
(1533,0,l),
(1533,16,l),
(1454,75,l),
(1454,615,l),
(1533,674,l),
(1533,690,l),
(1279,690,l),
(1279,674,l),
(1358,615,l),
(1358,75,l),
(1279,16,l),
(1279,0,l)
);
},
{
closed = 1;
nodes = (
(1091,0,l),
(1091,16,l),
(1012,75,l),
(1012,615,l),
(1091,674,l),
(1091,690,l),
(837,690,l),
(837,674,l),
(916,615,l),
(916,75,l),
(837,16,l),
(837,0,l)
);
},
{
closed = 1;
nodes = (
(1389,332,l),
(1389,386,l),
(981,386,l),
(981,332,l)
);
},
{
closed = 1;
nodes = (
(132,690,l),
(128,674,l),
(195,615,l),
(290,615,l),
(374,674,l),
(378,690,l)
);
}
);
width = 725;
},
{
associatedMasterId = "B15366B1-D24E-431F-AB58-0431975245D7";
layerId = "D4BF712C-1148-47FC-88D5-F2A786D078C4";
name = "22 Oct 23 at 11:45";
shapes = (
{
closed = 1;
nodes = (
(637,0,l),
(797,690,l),
(606,690,l),
(446,0,l)
);
},
{
closed = 1;
nodes = (
(299,0,l),
(306,22,l),
(245,82,l),
(54,82,l),
(-15,23,l),
(-22,0,l)
);
},
{
closed = 1;
nodes = (
(226,0,l),
(386,690,l),
(195,690,l),
(35,0,l)
);
},
{
closed = 1;
nodes = (
(710,0,l),
(717,22,l),
(656,82,l),
(465,82,l),
(396,23,l),
(389,0,l)
);
},
{
closed = 1;
nodes = (
(646,320,l),
(657,385,l),
(219,385,l),
(208,320,l)
);
},
{
closed = 1;
nodes = (
(367,608,l),
(436,667,l),
(443,690,l),
(122,690,l),
(115,668,l),
(176,608,l)
);
},
{
closed = 1;
nodes = (
(778,608,l),
(847,667,l),
(854,690,l),
(533,690,l),
(526,668,l),
(587,608,l)
);
}
);
width = 788;
},
{
associatedMasterId = "B15366B1-D24E-431F-AB58-0431975245D7";
layerId = "4C0500A8-0EAD-4BCF-BD45-366C35F2FF58";
name = "27 Oct 23 at 19:20";
shapes = (
{
closed = 1;
nodes = (
(637,0,l),
(797,690,l),
(606,690,l),
(446,0,l)
);
},
{
closed = 1;
nodes = (
(299,0,l),
(306,22,l),
(245,82,l),
(54,84,l),
(-15,23,l),
(-22,0,l)
);
},
{
closed = 1;
nodes = (
(226,0,l),
(386,690,l),
(195,690,l),
(35,0,l)
);
},
{
closed = 1;
nodes = (
(710,0,l),
(717,22,l),
(656,82,l),
(465,84,l),
(396,23,l),
(389,0,l)
);
},
{
closed = 1;
nodes = (
(646,320,l),
(657,385,l),
(219,385,l),
(208,320,l)
);
},
{
closed = 1;
nodes = (
(436,667,l),
(443,690,l),
(122,690,l),
(115,668,l),
(176,608,l),
(367,606,l)
);
},
{
closed = 1;
nodes = (
(847,667,l),
(854,690,l),
(533,690,l),
(526,668,l),
(587,608,l),
(778,606,l)
);
}
);
width = 788;
},
{
associatedMasterId = "B15366B1-D24E-431F-AB58-0431975245D7";
layerId = "0E048BED-BC27-49FE-A0AF-43E7E0B91D5B";
name = "27 Oct 23 at 19:20";
shapes = (
{
closed = 1;
nodes = (
(637,0,l),
(797,690,l),
(606,690,l),
(446,0,l)
);
},
{
closed = 1;
nodes = (
(299,0,l),
(306,22,l),
(245,82,l),
(54,84,l),
(-15,23,l),
(-22,0,l)
);
},
{
closed = 1;
nodes = (
(226,0,l),
(386,690,l),
(195,690,l),
(35,0,l)
);
},
{
closed = 1;
nodes = (
(710,0,l),
(717,22,l),
(656,82,l),
(465,84,l),
(396,23,l),
(389,0,l)
);
},
{
closed = 1;
nodes = (
(646,320,l),
(657,385,l),
(219,385,l),
(208,320,l)
);
},
{
closed = 1;
nodes = (
(436,667,l),
(443,690,l),
(122,690,l),
(115,668,l),
(176,608,l),
(367,606,l)
);
},
{
closed = 1;
nodes = (
(847,667,l),
(854,690,l),
(533,690,l),
(526,668,l),
(587,608,l),
(778,606,l)
);
}
);
width = 788;
},
{
anchors = (
{
name = bottom;
pos = (337,0);
},
{
name = center;
pos = (450,500);
},
{
name = top;
pos = (497,690);
},
{
name = topleft;
pos = (122,690);
}
);
guides = (
{
pos = (29,88);
},
{
pos = (23,82);
},
{
pos = (564,602);
},
{
angle = 258.2317;
pos = (860,678);
},
{
angle = 257.1957;
pos = (118,679);
}
);
layerId = "B15366B1-D24E-431F-AB58-0431975245D7";
name = "Extra Bold Italic";
shapes = (
{
closed = 1;
nodes = (
(646,320,l),
(657,385,l),
(219,385,l),
(208,320,l)
);
},
{
closed = 1;
nodes = (
(305,0,l),
(310,22,l),
(194,132,l),
(237,39,l),
(379,651,l),
(312,558,l),
(448,666,l),
(453,690,l),
(120,690,l),
(115,668,l),
(231,558,l),
(188,651,l),
(46,39,l),
(113,132,l),
(-23,24,l),
(-28,0,l)
);
},
{
closed = 1;
nodes = (
(714,0,l),
(719,22,l),
(603,132,l),
(646,39,l),
(788,651,l),
(721,558,l),
(857,666,l),
(862,690,l),
(529,690,l),
(524,668,l),
(640,558,l),
(597,651,l),
(455,39,l),
(522,132,l),
(386,24,l),
(381,0,l)
);
}
);
width = 790;
},
{
associatedMasterId = m01;
layerId = "8EB4086E-A194-4679-9FAF-BBBC5EC0B95A";
name = "28 Oct 23 at 13:19";
shapes = (
{
closed = 1;
nodes = (
(560,0,l),
(720,690,l),
(625,690,l),
(465,0,l)
);
},
{
closed = 1;
nodes = (
(221,0,l),
(225,16,l),
(158,73,l),
(63,73,l),
(-21,16,l),
(-25,0,l)
);
},
{
closed = 1;
nodes = (
(141,0,l),
(301,690,l),
(206,690,l),
(46,0,l)
);
},
{
closed = 1;
nodes = (
(640,0,l),
(644,16,l),
(577,73,l),
(482,73,l),
(398,16,l),
(394,0,l)
);
},
{
closed = 1;
nodes = (
(607,335,l),
(618,385,l),
(170,385,l),
(159,335,l)
);
},
{
closed = 1;
nodes = (
(368,674,l),
(372,690,l),
(126,690,l),
(122,674,l),
(189,617,l),
(284,617,l)
);
},
{
closed = 1;
nodes = (
(787,674,l),
(791,690,l),
(545,690,l),
(541,674,l),
(608,617,l),
(703,617,l)
);
}
);
width = 718;
},
{
associatedMasterId = "B15366B1-D24E-431F-AB58-0431975245D7";
layerId = "46E49252-C4EC-4FE8-8B08-E5E88C619A9D";
name = "28 Oct 23 at 13:19";
shapes = (
{
closed = 1;
nodes = (
(637,0,l),
(797,690,l),
(606,690,l),
(446,0,l)
);
},
{
closed = 1;
nodes = (
(299,0,l),
(306,22,l),
(245,82,l),
(55,86,l),
(-15,23,l),
(-22,0,l)
);
},
{
closed = 1;
nodes = (
(226,0,l),
(386,690,l),
(195,690,l),
(35,0,l)
);
},
{
closed = 1;
nodes = (
(710,0,l),
(717,22,l),
(656,82,l),
(466,86,l),
(396,23,l),
(389,0,l)
);
},
{
closed = 1;
nodes = (
(646,320,l),
(657,385,l),
(219,385,l),
(208,320,l)
);
},
{
closed = 1;
nodes = (
(436,667,l),
(443,690,l),
(122,690,l),
(115,668,l),
(176,608,l),
(366,604,l)
);
},
{
closed = 1;
nodes = (
(847,667,l),
(854,690,l),
(533,690,l),
(526,668,l),
(587,608,l),
(777,604,l)
);
}
);
width = 788;
}
);
metricRight = "=|";
unicode = 72;
userData = {
KernOnName = H;
};
},
{
color = 8;
glyphname = I;
kernLeft = KO_H;
kernRight = KO_H;
lastChange = "2024-03-02 06:05:36 +0000";
layers = (
{
anchors = (
{
name = bottom;
pos = (95,0);
},
{
name = ogonek;
pos = (141,0);
},
{
name = top;
pos = (245,690);
},
{
name = topleft;
pos = (124,690);
}
);
guides = (
{
angle = 75.9638;
pos = (223,8);
},
{
angle = 75.9638;
pos = (-23,8);
}
);
layerId = m01;
shapes = (
{
closed = 1;
nodes = (
(221,0,l),
(225,16,l),
(126,100,l),
(150,39,l),
(292,651,l),
(252,591,l),
(368,673,l),
(372,690,l),
(126,690,l),
(122,674,l),
(221,590,l),
(197,651,l),
(55,39,l),
(95,99,l),
(-21,17,l),
(-25,0,l)
);
}
);
width = 299;
},
{
associatedMasterId = m01;
layerId = "6A1F2788-A547-4EFF-AD2F-F1FB64E9B995";
name = "24 Aug 23 at 14:57";
shapes = (
{
closed = 1;
nodes = (
(223,0,l),
(227,16,l),
(158,64,l),
(63,64,l),
(-19,16,l),
(-23,0,l)
);
},
{
closed = 1;
nodes = (
(143,0,l),
(303,690,l),
(208,690,l),
(48,0,l)
);
},
{
closed = 1;
nodes = (
(128,690,l),
(124,674,l),
(193,626,l),
(288,626,l),
(370,674,l),
(374,690,l)
);
}
);
width = 303;
},
{
anchors = (
{
name = bottom;
pos = (133,0);
},
{
name = ogonek;
pos = (182,0);
},
{
name = top;
pos = (289,690);
},
{
name = topleft;
pos = (122,690);
}
);
guides = (
{
angle = 76.9448;
pos = (-36,-35);
},
{
angle = 76.9448;
pos = (297,-34);
},
{
pos = (310,22);
},
{
angle = 77.1957;
pos = (456,701);
},
{
angle = 257.1957;
pos = (118,679);
},
{
angle = 76.9448;
pos = (129,0);
}
);
layerId = "B15366B1-D24E-431F-AB58-0431975245D7";
shapes = (
{
closed = 1;
nodes = (
(305,0,l),
(310,22,l),
(194,132,l),
(237,39,l),
(379,651,l),
(312,558,l),
(448,666,l),
(453,690,l),
(120,690,l),
(115,668,l),
(231,558,l),
(188,651,l),
(46,39,l),
(113,132,l),
(-23,24,l),
(-28,0,l)
);
}
);
width = 381;
},
{
associatedMasterId = "B15366B1-D24E-431F-AB58-0431975245D7";
layerId = "130F151E-D069-41F9-BA44-D729E1D06F29";
name = "28 Oct 23 at 12:01";
shapes = (
{
closed = 1;
nodes = (
(226,0,l),
(386,690,l),
(195,690,l),
(35,0,l)
);
},
{
closed = 1;
nodes = (
(299,0,l),
(306,22,l),
(245,82,l),
(55,86,l),
(-15,23,l),
(-22,0,l)
);
},
{
closed = 1;
nodes = (
(436,667,l),
(443,690,l),
(122,690,l),
(115,668,l),
(176,608,l),
(366,604,l)
);
}
);
width = 377;
},
{
associatedMasterId = m01;
layerId = "3418FCD3-2AA9-44AB-B72F-0C1667BD000C";
name = "28 Oct 23 at 12:02";
shapes = (
{
closed = 1;
nodes = (
(141,0,l),
(301,690,l),
(206,690,l),
(46,0,l)
);
},
{
closed = 1;
nodes = (
(221,0,l),
(225,16,l),
(158,73,l),
(63,73,l),
(-21,16,l),
(-25,0,l)
);
},
{
closed = 1;
nodes = (
(368,674,l),
(372,690,l),
(126,690,l),
(122,674,l),
(189,617,l),
(284,617,l)
);
}
);
width = 299;
},
{
associatedMasterId = m01;
guides = (
{
angle = 75.9638;
pos = (-23,8);
},
{
angle = 75.9638;
pos = (223,8);
}
);
layerId = "CFA4271D-17A4-49F7-A662-BD763C9B69DE";
name = "28 Oct 23 at 13:11";
shapes = (
{
closed = 1;
nodes = (
(141,0,l),
(301,690,l),
(206,690,l),
(46,0,l)
);
},
{
closed = 1;
nodes = (
(221,0,l),
(225,16,l),
(158,73,l),
(64,77,l),
(-21,16,l),
(-25,0,l)
);
},
{
closed = 1;
nodes = (
(368,674,l),
(372,690,l),
(126,690,l),
(122,674,l),
(189,617,l),
(283,613,l)
);
}
);
width = 299;
}
);
metricLeft = "=H";
metricRight = "=H";
unicode = 73;
userData = {
KernOnName = I;
};
},
{
color = 8;
glyphname = J;
kernLeft = KO_J;
kernRight = KO_J;
lastChange = "2024-03-02 06:05:36 +0000";
layers = (
{
anchors = (
{
name = bottom;
pos = (218,0);
},
{
name = top;
pos = (491,690);
}
);
layerId = m01;
shapes = (
{
closed = 1;
nodes = (
(331,-16,o),
(407,42,o),
(438,176,cs),
(548,651,l),
(508,591,l),
(624,673,l),
(628,690,l),
(382,690,l),
(378,674,l),
(477,590,l),
(453,651,l),
(349,203,ls),
(325,98,o),
(269,40,o),
(193,40,cs),
(133,40,o),
(95,71,o),
(68,143,c),
(68,33,l),
(128,33,l),
(85,191,l),
(67,191,l),
(-15,79,l),
(23,23,o),
(106,-16,o),
(187,-16,cs)
);
}
);
width = 546;
},
{
anchors = (
{
name = bottom;
pos = (265,0);
},
{
name = top;
pos = (547,690);
}
);
layerId = "B15366B1-D24E-431F-AB58-0431975245D7";
shapes = (
{
closed = 1;
nodes = (
(413,-16,o),
(515,53,o),
(547,192,cs),
(654,651,l),
(587,558,l),
(723,666,l),
(728,690,l),
(395,690,l),
(390,668,l),
(506,558,l),
(463,651,l),
(368,243,ls),
(339,119,o),
(296,65,o),
(228,65,c),
(161,65,o),
(128,112,o),
(128,207,c),
(89,39,l),
(217,39,l),
(123,245,l),
(97,245,l),
(-16,102,l),
(30,33,o),
(136,-16,o),
(241,-16,cs)
);
}
);
width = 645;
},
{
associatedMasterId = m01;
layerId = "92A6B26D-7FB1-47C2-B16A-F2754FBB44C0";
name = "26 Nov 23 at 20:56";
shapes = (
{
closed = 1;
nodes = (
(327,107,o),
(263,40,o),
(193,40,cs),
(133,40,o),
(95,71,o),
(68,143,c),
(47,41,l),
(126,41,l),
(85,186,l),
(67,186,l),
(-15,79,l),
(22,23,o),
(103,-16,o),
(183,-16,cs),
(312,-16,o),
(413,68,o),
(444,203,cs),
(548,651,l),
(508,591,l),
(624,673,l),
(628,690,l),
(382,690,l),
(378,674,l),
(477,590,l),
(453,651,l),
(349,203,ls)
);
}
);
width = 546;
},
{
associatedMasterId = m01;
layerId = "5388767C-2664-41E5-B2B8-FE0787C259CF";
name = "29 Nov 23 at 15:15";
shapes = (
{
closed = 1;
nodes = (
(325,98,o),
(269,40,o),
(193,40,cs),
(133,40,o),
(95,71,o),
(68,143,c),
(68,33,l),
(128,33,l),
(85,191,l),
(67,191,l),
(-15,79,l),
(23,23,o),
(106,-16,o),
(187,-16,cs),
(325,-16,o),
(410,57,o),
(444,203,cs),
(548,651,l),
(508,591,l),
(624,673,l),
(628,690,l),
(382,690,l),
(378,674,l),
(477,590,l),
(453,651,l),
(349,203,ls)
);
}
);
width = 546;
}
);
metricLeft = "=H";
metricRight = "=H";
unicode = 74;
userData = {
KernOnName = J;
};
},
{
color = 8;
glyphname = K;
kernLeft = KO_H;
kernRight = KO_K;
lastChange = "2024-03-02 06:05:35 +0000";
layers = (
{
anchors = (
{
name = bottom;
pos = (306,0);
},
{
name = top;
pos = (465,690);
}
);
guides = (
{
pos = (239,674);
}
);
layerId = m01;
shapes = (
{
closed = 1;
nodes = (
(221,0,l),
(225,16,l),
(126,100,l),
(150,39,l),
(292,651,l),
(252,591,l),
(368,674,l),
(372,690,l),
(126,690,l),
(122,674,l),
(221,590,l),
(197,651,l),
(55,39,l),
(95,99,l),
(-21,17,l),
(-25,0,l)
);
},
{
closed = 1;
nodes = (
(644,0,l),
(648,16,l),
(567,88,l),
(606,25,l),
(382,452,l),
(307,402,l),
(504,25,l),
(508,99,l),
(416,17,l),
(412,0,l)
);
},
{
closed = 1;
nodes = (
(186,253,l),
(347,402,l),
(682,643,l),
(612,593,l),
(741,674,l),
(745,690,l),
(489,690,l),
(485,674,l),
(565,572,l),
(562,660,l),
(127,253,l)
);
}
);
width = 722;
},
{
anchors = (
{
name = bottom;
pos = (355,0);
},
{
name = top;
pos = (515,690);
}
);
guides = (
{
pos = (298,88);
},
{
pos = (298,82);
},
{
pos = (437,608);
}
);
layerId = "B15366B1-D24E-431F-AB58-0431975245D7";
shapes = (
{
closed = 1;
nodes = (
(305,0,l),
(310,22,l),
(194,132,l),
(237,39,l),
(379,651,l),
(312,558,l),
(448,666,l),
(453,690,l),
(120,690,l),
(115,668,l),
(231,558,l),
(188,651,l),
(46,39,l),
(113,132,l),
(-23,24,l),
(-28,0,l)
);
},
{
closed = 1;
nodes = (
(749,0,l),
(755,23,l),
(668,98,l),
(711,25,l),
(497,463,l),
(342,360,l),
(506,25,l),
(493,103,l),
(420,23,l),
(414,0,l)
);
},
{
closed = 1;
nodes = (
(248,258,l),
(424,389,l),
(827,662,l),
(701,579,l),
(860,668,l),
(866,690,l),
(554,690,l),
(549,666,l),
(618,571,l),
(596,651,l),
(200,258,l)
);
}
);
width = 825;
},
{
associatedMasterId = "B15366B1-D24E-431F-AB58-0431975245D7";
guides = (
{
pos = (298,88);
},
{
pos = (298,82);
},
{
pos = (437,608);
}
);
layerId = "363B61B7-C1F6-4C09-A00C-CBE39C3B7940";
name = "9 Dec 23 at 08:31";
shapes = (
{
closed = 1;
nodes = (
(305,0,l),
(310,22,l),
(194,132,l),
(237,39,l),
(379,651,l),
(312,558,l),
(448,666,l),
(453,690,l),
(120,690,l),
(115,668,l),
(231,558,l),
(188,651,l),
(46,39,l),
(113,132,l),
(-23,24,l),
(-28,0,l)
);
},
{
closed = 1;
nodes = (
(749,0,l),
(755,23,l),
(668,98,l),
(711,25,l),
(497,463,l),
(342,360,l),
(506,25,l),
(493,103,l),
(420,23,l),
(414,0,l)
);
},
{
closed = 1;
nodes = (
(225,238,l),
(807,662,l),
(681,579,l),
(840,668,l),
(846,690,l),
(544,690,l),
(539,666,l),
(608,571,l),
(586,651,l),
(190,238,l)
);
}
);
width = 825;
},
{
associatedMasterId = m01;
guides = (
{
pos = (239,674);
}
);
layerId = "D0C40264-2D7E-495E-A15F-A96F5F676A04";
name = "9 Dec 23 at 08:31";
shapes = (
{
closed = 1;
nodes = (
(221,0,l),
(225,16,l),
(126,100,l),
(150,39,l),
(292,651,l),
(252,591,l),
(368,674,l),
(372,690,l),
(126,690,l),
(122,674,l),
(221,590,l),
(197,651,l),
(55,39,l),
(95,99,l),
(-21,17,l),
(-25,0,l)
);
},
{
closed = 1;
nodes = (
(644,0,l),
(648,16,l),
(567,88,l),
(606,25,l),
(382,452,l),
(307,402,l),
(504,25,l),
(508,99,l),
(416,17,l),
(412,0,l)
);
},
{
closed = 1;
nodes = (
(174,253,l),
(672,643,l),
(602,593,l),
(731,674,l),
(735,690,l),
(489,690,l),
(485,674,l),
(565,572,l),
(562,660,l),
(127,253,l)
);
}
);
width = 722;
},
{
associatedMasterId = "B15366B1-D24E-431F-AB58-0431975245D7";
guides = (
{
pos = (298,88);
},
{
pos = (298,82);
},
{
pos = (437,608);
}
);
layerId = "016904FD-A34A-4E79-ACBA-386B38C09DE5";
name = "9 Dec 23 at 08:33";
shapes = (
{
closed = 1;
nodes = (
(305,0,l),
(310,22,l),
(194,132,l),
(237,39,l),
(379,651,l),
(312,558,l),
(448,666,l),
(453,690,l),
(120,690,l),
(115,668,l),
(231,558,l),
(188,651,l),
(46,39,l),
(113,132,l),
(-23,24,l),
(-28,0,l)
);
},
{
closed = 1;
nodes = (
(749,0,l),
(755,23,l),
(668,98,l),
(711,25,l),
(497,463,l),
(342,360,l),
(506,25,l),
(493,103,l),
(420,23,l),
(414,0,l)
);
},
{
closed = 1;
nodes = (
(235,258,l),
(817,662,l),
(691,579,l),
(850,668,l),
(856,690,l),
(554,690,l),
(549,666,l),
(618,571,l),
(596,651,l),
(200,258,l)
);
}
);
width = 825;
}
);
metricLeft = "=H";
metricRight = "=H";
unicode = 75;
userData = {
KernOnName = K;
};
},
{
color = 8;
glyphname = L;
kernLeft = KO_H;
kernRight = KO_L;
lastChange = "2024-03-02 06:05:36 +0000";
layers = (
{
anchors = (
{
name = bottom;
pos = (228,0);
},
{
name = center;
pos = (175,345);
},
{
name = top;
pos = (276,690);
},
{
name = topright;
pos = (372,690);
}
);
layerId = m01;
shapes = (
{
closed = 1;
nodes = (
(141,0,l),
(292,651,l),
(252,591,l),
(368,673,l),
(372,690,l),
(126,690,l),
(122,674,l),
(221,590,l),
(197,651,l),
(55,39,l),
(95,99,l),
(-21,17,l),
(-25,0,l)
);
},
{
closed = 1;
nodes = (
(455,0,l),
(469,59,l),
(148,43,l),
(138,0,l)
);
},
{
closed = 1;
nodes = (
(476,0,l),
(507,169,l),
(491,169,l),
(350,41,l),
(340,0,l)
);
}
);
width = 565;
},
{
associatedMasterId = m01;
layerId = "7EFF5498-98D1-404A-AEFC-D4A701D5D7EF";
name = "21 Aug 23 at 21:05";
shapes = (
{
closed = 1;
nodes = (
(211,0,l),
(211,617,l),
(290,674,l),
(290,690,l),
(42,690,l),
(42,674,l),
(121,617,l),
(121,73,l),
(42,16,l),
(42,0,l)
);
},
{
closed = 1;
nodes = (
(506,0,l),
(506,54,l),
(195,38,l),
(195,0,l)
);
},
{
closed = 1;
nodes = (
(546,0,l),
(556,194,l),
(540,194,l),
(437,41,l),
(437,0,l)
);
}
);
width = 619;
},
{
associatedMasterId = m01;
layerId = "EC549A06-BDA7-4A37-A541-0A031C05E948";
name = "24 Aug 23 at 14:56";
shapes = (
{
closed = 1;
nodes = (
(143,0,l),
(303,690,l),
(208,690,l),
(48,0,l)
);
},
{
closed = 1;
nodes = (
(118,0,l),
(122,16,l),
(158,64,l),
(63,64,l),
(-19,16,l),
(-23,0,l)
);
},
{
closed = 1;
nodes = (
(460,0,l),
(474,59,l),
(153,43,l),
(143,0,l)
);
},
{
closed = 1;
nodes = (
(481,0,l),
(512,169,l),
(496,169,l),
(365,41,l),
(355,0,l)
);
},
{
closed = 1;
nodes = (
(128,690,l),
(124,674,l),
(193,626,l),
(288,626,l),
(370,674,l),
(374,690,l)
);
}
);
width = 560;
},
{
anchors = (
{
name = bottom;
pos = (251,0);
},
{
name = center;
pos = (214,345);
},
{
name = top;
pos = (315,690);
},
{
name = topright;
pos = (453,690);
}
);
layerId = "B15366B1-D24E-431F-AB58-0431975245D7";
shapes = (
{
closed = 1;
nodes = (
(228,0,l),
(379,651,l),
(312,558,l),
(448,666,l),
(453,690,l),
(120,690,l),
(115,668,l),
(231,558,l),
(188,651,l),
(46,39,l),
(113,132,l),
(-23,24,l),
(-28,0,l)
);
},
{
closed = 1;
nodes = (
(473,0,l),
(488,71,l),
(211,47,l),
(201,0,l)
);
},
{
closed = 1;
nodes = (
(514,0,l),
(560,215,l),
(534,215,l),
(336,41,l),
(326,0,l)
);
}
);
width = 598;
},
{
associatedMasterId = "B15366B1-D24E-431F-AB58-0431975245D7";
layerId = "309C2E87-676C-41A1-9515-FD7843D86CDA";
name = "28 Oct 23 at 16:20";
shapes = (
{
closed = 1;
nodes = (
(226,0,l),
(386,690,l),
(195,690,l),
(35,0,l)
);
},
{
closed = 1;
nodes = (
(126,0,l),
(126,82,l),
(55,86,l),
(-15,23,l),
(-22,0,l)
);
},
{
closed = 1;
nodes = (
(471,0,l),
(486,71,l),
(209,47,l),
(199,0,l)
);
},
{
closed = 1;
nodes = (
(512,0,l),
(555,210,l),
(531,210,l),
(347,41,l),
(337,0,l)
);
},
{
closed = 1;
nodes = (
(436,667,l),
(443,690,l),
(122,690,l),
(115,668,l),
(176,608,l),
(366,604,l)
);
}
);
width = 597;
},
{
associatedMasterId = m01;
layerId = "D5DD2365-CE89-4583-8A9A-1CFC1B80BEE3";
name = "28 Oct 23 at 16:20";
shapes = (
{
closed = 1;
nodes = (
(141,0,l),
(301,690,l),
(206,690,l),
(46,0,l)
);
},
{
closed = 1;
nodes = (
(85,0,l),
(85,73,l),
(63,73,l),
(-21,16,l),
(-25,0,l)
);
},
{
closed = 1;
nodes = (
(455,0,l),
(469,59,l),
(151,43,l),
(141,0,l)
);
},
{
closed = 1;
nodes = (
(476,0,l),
(507,169,l),
(491,169,l),
(360,41,l),
(350,0,l)
);
},
{
closed = 1;
nodes = (
(368,674,l),
(372,690,l),
(126,690,l),
(122,674,l),
(189,617,l),
(284,617,l)
);
}
);
width = 571;
}
);
metricLeft = "=H";
metricRight = "=O";
unicode = 76;
userData = {
KernOnName = L;
};
},
{
glyphname = Ldot;
kernLeft = KO_H;
lastChange = "2024-01-09 08:15:53 +0000";
layers = (
{
layerId = m01;
shapes = (
{
ref = L;
},
{
closed = 1;
nodes = (
(492,273,o),
(523,308,o),
(523,357,cs),
(523,390,o),
(499,414,o),
(465,414,cs),
(420,414,o),
(389,379,o),
(389,330,cs),
(389,297,o),
(413,273,o),
(447,273,cs)
);
}
);
width = 565;
},
{
layerId = "B15366B1-D24E-431F-AB58-0431975245D7";
shapes = (
{
ref = L;
},
{
closed = 1;
nodes = (
(565,244,o),
(610,293,o),
(610,363,cs),
(610,408,o),
(573,443,o),
(527,443,cs),
(464,443,o),
(419,394,o),
(419,324,cs),
(419,279,o),
(456,244,o),
(502,244,cs)
);
}
);
width = 598;
}
);
unicode = 319;
},
{
color = 8;
glyphname = M;
kernLeft = KO_M;
kernRight = KO_M;
lastChange = "2024-03-02 06:05:36 +0000";
layers = (
{
anchors = (
{
name = bottom;
pos = (372,0);
},
{
name = top;
pos = (566,690);
}
);
guides = (
{
pos = (380,77);
}
);
layerId = m01;
shapes = (
{
closed = 1;
nodes = (
(399,0,l),
(826,690,l),
(730,690,l),
(424,114,l),
(442,114,l),
(353,690,l),
(270,690,l),
(270,637,l),
(369,0,l)
);
},
{
closed = 1;
nodes = (
(185,0,l),
(189,16,l),
(86,100,l),
(110,39,l),
(308,690,l),
(193,690,l),
(189,674,l),
(275,595,l),
(264,651,l),
(27,39,l),
(67,94,l),
(-49,17,l),
(-53,0,l)
);
},
{
closed = 1;
nodes = (
(866,0,l),
(870,16,l),
(771,90,l),
(792,39,l),
(851,651,l),
(814,595,l),
(924,673,l),
(928,690,l),
(761,690,l),
(699,39,l),
(739,102,l),
(620,17,l),
(616,0,l)
);
}
);
width = 924;
},
{
anchors = (
{
name = bottom;
pos = (387,0);
},
{
name = top;
pos = (598,690);
}
);
guides = (
{
pos = (-22,88);
},
{
pos = (-28,82);
}
);
layerId = "B15366B1-D24E-431F-AB58-0431975245D7";
shapes = (
{
closed = 1;
nodes = (
(439,0,l),
(857,690,l),
(734,690,l),
(476,147,l),
(504,147,l),
(414,690,l),
(242,690,l),
(242,601,l),
(342,0,l)
);
},
{
closed = 1;
nodes = (
(192,0,l),
(198,24,l),
(118,108,l),
(134,49,l),
(297,690,l),
(174,690,l),
(168,666,l),
(245,589,l),
(245,630,l),
(19,51,l),
(70,116,l),
(-50,24,l),
(-56,0,l)
);
},
{
closed = 1;
nodes = (
(931,0,l),
(937,24,l),
(857,109,l),
(878,48,l),
(936,642,l),
(895,565,l),
(1015,666,l),
(1021,690,l),
(757,690,l),
(692,48,l),
(733,121,l),
(623,24,l),
(617,0,l)
);
}
);
width = 991;
},
{
associatedMasterId = m01;
background = {
shapes = (
{
closed = 1;
nodes = (
(386,0,l),
(791,690,l),
(718,690,l),
(395,82,l),
(430,82,l),
(325,690,l),
(235,690,l),
(354,0,l)
);
},
{
closed = 1;
nodes = (
(176,0,l),
(179,16,l),
(120,75,l),
(278,690,l),
(163,690,l),
(159,674,l),
(222,608,l),
(219,627,l),
(57,75,l),
(-26,16,l),
(-29,0,l)
);
},
{
closed = 1;
nodes = (
(803,0,l),
(807,16,l),
(748,75,l),
(819,615,l),
(902,674,l),
(905,690,l),
(745,690,l),
(665,75,l),
(582,16,l),
(578,0,l)
);
}
);
};
layerId = "236CF344-0377-4955-9C4E-03500B813464";
name = "26 Nov 23 at 20:59";
shapes = (
{
closed = 1;
nodes = (
(398,0,l),
(786,690,l),
(692,690,l),
(417,114,l),
(435,114,l),
(310,690,l),
(218,690,l),
(368,0,l)
);
},
{
closed = 1;
nodes = (
(851,0,l),
(855,16,l),
(756,89,l),
(775,39,l),
(811,651,l),
(774,591,l),
(884,673,l),
(888,690,l),
(722,690,l),
(684,39,l),
(724,102,l),
(605,17,l),
(601,0,l)
);
},
{
closed = 1;
nodes = (
(144,690,l),
(140,674,l),
(226,601,l),
(215,651,l),
(47,39,l),
(87,99,l),
(-29,17,l),
(-33,0,l),
(202,0,l),
(206,16,l),
(103,96,l),
(127,39,l),
(259,690,l)
);
}
);
width = 929;
},
{
associatedMasterId = m01;
layerId = "8C21D090-B8D2-45F2-87A8-A0AEA0DDF606";
name = "29 Nov 23 at 15:39";
shapes = (
{
closed = 1;
nodes = (
(406,0,l),
(799,690,l),
(705,690,l),
(425,114,l),
(443,114,l),
(313,690,l),
(221,690,l),
(376,0,l)
);
},
{
closed = 1;
nodes = (
(867,0,l),
(871,16,l),
(772,89,l),
(791,39,l),
(824,651,l),
(787,591,l),
(897,673,l),
(901,690,l),
(735,690,l),
(700,39,l),
(740,102,l),
(621,17,l),
(617,0,l)
);
},
{
closed = 1;
nodes = (
(147,690,l),
(143,674,l),
(229,601,l),
(218,651,l),
(47,39,l),
(87,99,l),
(-29,17,l),
(-33,0,l),
(202,0,l),
(206,16,l),
(103,96,l),
(127,39,l),
(262,690,l)
);
}
);
width = 945;
},
{
associatedMasterId = m01;
layerId = "26420D7C-C751-44F3-87AD-9C4025F3A83A";
name = "2 Dec 23 at 09:06";
shapes = (
{
closed = 1;
nodes = (
(416,0,l),
(809,690,l),
(715,690,l),
(435,114,l),
(453,114,l),
(323,690,l),
(243,690,l),
(243,637,l),
(386,0,l)
);
},
{
closed = 1;
nodes = (
(205,0,l),
(209,16,l),
(106,96,l),
(130,39,l),
(272,690,l),
(157,690,l),
(153,674,l),
(239,601,l),
(228,651,l),
(47,39,l),
(87,99,l),
(-29,17,l),
(-33,0,l)
);
},
{
closed = 1;
nodes = (
(887,0,l),
(891,16,l),
(792,89,l),
(811,39,l),
(834,651,l),
(797,591,l),
(907,673,l),
(911,690,l),
(745,690,l),
(720,39,l),
(760,102,l),
(641,17,l),
(637,0,l)
);
}
);
width = 965;
},
{
associatedMasterId = m01;
guides = (
{
pos = (389,77);
}
);
layerId = "2986909D-B334-4D47-9B48-98736123F354";
name = "8 Dec 23 at 22:19";
shapes = (
{
closed = 1;
nodes = (
(408,0,l),
(835,690,l),
(739,690,l),
(433,114,l),
(450,114,l),
(351,690,l),
(269,690,l),
(269,637,l),
(378,0,l)
);
},
{
closed = 1;
nodes = (
(185,0,l),
(189,16,l),
(86,100,l),
(110,39,l),
(298,690,l),
(183,690,l),
(179,674,l),
(265,595,l),
(254,651,l),
(27,39,l),
(67,94,l),
(-49,17,l),
(-53,0,l)
);
},
{
closed = 1;
nodes = (
(871,0,l),
(875,16,l),
(776,90,l),
(797,39,l),
(860,651,l),
(823,595,l),
(933,673,l),
(937,690,l),
(771,690,l),
(704,39,l),
(744,102,l),
(625,17,l),
(621,0,l)
);
}
);
width = 929;
},
{
associatedMasterId = "B15366B1-D24E-431F-AB58-0431975245D7";
guides = (
{
pos = (13,88);
},
{
pos = (7,82);
}
);
layerId = "D2B9A2FF-C89C-4333-AB06-6621DE937C15";
name = "8 Dec 23 at 22:28";
shapes = (
{
closed = 1;
nodes = (
(446,0,l),
(852,690,l),
(691,690,l),
(475,127,l),
(509,127,l),
(364,690,l),
(218,690,l),
(218,511,l),
(349,0,l)
);
},
{
closed = 1;
nodes = (
(226,0,l),
(232,23,l),
(128,119,l),
(143,39,l),
(277,690,l),
(157,690,l),
(152,668,l),
(268,558,l),
(224,644,l),
(-17,28,l),
(59,121,l),
(-50,22,l),
(-56,0,l)
);
},
{
closed = 1;
nodes = (
(952,0,l),
(957,22,l),
(850,123,l),
(893,39,l),
(895,651,l),
(828,558,l),
(964,666,l),
(969,690,l),
(715,690,l),
(702,39,l),
(769,142,l),
(624,24,l),
(619,0,l)
);
}
);
width = 1012;
}
);
metricLeft = "=V";
metricRight = "=V";
unicode = 77;
userData = {
KernOnName = M;
};
},
{
color = 8;
glyphname = N;
kernLeft = KO_N;
kernRight = KO_N;
lastChange = "2024-03-02 06:05:36 +0000";
layers = (
{
anchors = (
{
name = bottom;
pos = (311,0);
},
{
name = top;
pos = (410,690);
}
);
layerId = m01;
shapes = (
{
closed = 1;
nodes = (
(521,-6,l),
(673,651,l),
(633,591,l),
(749,673,l),
(753,690,l),
(522,690,l),
(518,674,l),
(617,590,l),
(593,651,l),
(511,117,l),
(533,117,l),
(243,690,l),
(128,690,l),
(124,674,l),
(186,592,l),
(187,602,l),
(495,-6,l)
);
},
{
closed = 1;
nodes = (
(202,0,l),
(206,16,l),
(103,96,l),
(127,39,l),
(238,690,l),
(208,690,l),
(47,39,l),
(87,99,l),
(-29,17,l),
(-33,0,l)
);
}
);
width = 671;
},
{
anchors = (
{
name = bottom;
pos = (339,0);
},
{
name = top;
pos = (489,690);
}
);
guides = (
{
pos = (-22,88);
},
{
pos = (-28,82);
}
);
layerId = "B15366B1-D24E-431F-AB58-0431975245D7";
shapes = (
{
closed = 1;
nodes = (
(608,0,l),
(762,639,l),
(711,574,l),
(831,666,l),
(837,690,l),
(591,690,l),
(585,666,l),
(665,584,l),
(649,641,l),
(601,168,l),
(638,173,l),
(355,690,l),
(129,690,l),
(123,666,l),
(201,565,l),
(204,543,l),
(511,0,l)
);
},
{
closed = 1;
nodes = (
(208,0,l),
(214,24,l),
(134,103,l),
(150,49,l),
(254,690,l),
(217,690,l),
(35,51,l),
(86,121,l),
(-34,24,l),
(-40,0,l)
);
}
);
width = 753;
},
{
associatedMasterId = m01;
layerId = "0EC42E99-931B-436F-A6D2-AAC25FD6F9D1";
name = "20 Nov 23 at 16:44";
shapes = (
{
closed = 1;
nodes = (
(553,117,l),
(252,690,l),
(141,690,l),
(137,674,l),
(197,607,l),
(197,602,l),
(516,-6,l),
(542,-6,l),
(694,651,l),
(654,591,l),
(770,673,l),
(774,690,l),
(543,690,l),
(539,674,l),
(638,590,l),
(614,651,l),
(530,117,l)
);
},
{
closed = 1;
nodes = (
(208,690,l),
(47,39,l),
(87,99,l),
(-29,17,l),
(-33,0,l),
(198,0,l),
(202,16,l),
(103,100,l),
(127,39,l),
(240,690,l)
);
}
);
width = 692;
},
{
associatedMasterId = m01;
layerId = "901376BF-36B3-46A7-853D-0AC02F42D483";
name = "26 Nov 23 at 21:00";
shapes = (
{
closed = 1;
nodes = (
(565,117,l),
(246,690,l),
(136,690,l),
(132,674,l),
(192,593,l),
(192,602,l),
(531,-6,l),
(557,-6,l),
(709,651,l),
(669,591,l),
(785,673,l),
(789,690,l),
(558,690,l),
(554,674,l),
(653,590,l),
(629,651,l),
(545,117,l)
);
},
{
closed = 1;
nodes = (
(208,690,l),
(47,39,l),
(87,99,l),
(-29,17,l),
(-33,0,l),
(202,0,l),
(206,16,l),
(103,96,l),
(127,39,l),
(240,690,l)
);
}
);
width = 707;
},
{
associatedMasterId = m01;
layerId = "7F951A67-0B1C-4E22-A076-C9CBA38103A7";
name = "1 Dec 23 at 22:31";
shapes = (
{
closed = 1;
nodes = (
(544,117,l),
(242,690,l),
(131,690,l),
(127,674,l),
(187,593,l),
(187,602,l),
(507,-6,l),
(533,-6,l),
(685,651,l),
(645,591,l),
(761,673,l),
(765,690,l),
(534,690,l),
(530,674,l),
(629,590,l),
(605,651,l),
(521,117,l)
);
},
{
closed = 1;
nodes = (
(208,690,l),
(47,39,l),
(87,99,l),
(-29,17,l),
(-33,0,l),
(202,0,l),
(206,16,l),
(103,96,l),
(127,39,l),
(240,690,l)
);
}
);
width = 683;
}
);
metricLeft = "=H";
metricRight = "=H";
unicode = 78;
userData = {
KernOnName = N;
};
},
{
color = 8;
glyphname = Nhookleft;
kernRight = KO_N;
lastChange = "2024-01-17 01:51:52 +0000";
layers = (
{
layerId = m01;
shapes = (
{
closed = 1;
nodes = (
(521,-6,l),
(673,651,l),
(633,591,l),
(749,673,l),
(753,690,l),
(522,690,l),
(518,674,l),
(617,590,l),
(593,651,l),
(511,117,l),
(533,117,l),
(243,690,l),
(128,690,l),
(124,674,l),
(186,592,l),
(187,602,l),
(495,-6,l)
);
},
{
closed = 1;
nodes = (
(9,-152,o),
(-27,-206,o),
(-72,-206,cs),
(-104,-206,o),
(-113,-170,o),
(-98,-105,c),
(-181,-105,l),
(-201,-195,o),
(-159,-251,o),
(-72,-251,cs),
(36,-251,o),
(89,-189,o),
(116,-28,cs),
(238,690,l),
(208,690,l),
(35,-42,ls)
);
}
);
width = 671;
},
{
layerId = "B15366B1-D24E-431F-AB58-0431975245D7";
shapes = (
{
closed = 1;
nodes = (
(608,0,l),
(762,639,l),
(711,574,l),
(831,666,l),
(837,690,l),
(591,690,l),
(585,666,l),
(665,584,l),
(649,641,l),
(601,168,l),
(638,173,l),
(355,690,l),
(129,690,l),
(123,666,l),
(201,565,l),
(204,543,l),
(511,0,l)
);
},
{
closed = 1;
nodes = (
(-16,-154,o),
(-42,-203,o),
(-75,-203,cs),
(-98,-203,o),
(-102,-157,o),
(-86,-85,c),
(-202,-85,l),
(-224,-182,o),
(-175,-251,o),
(-83,-251,cs),
(56,-251,o),
(111,-196,o),
(137,-33,cs),
(254,690,l),
(217,690,l),
(10,-43,l)
);
}
);
width = 753;
}
);
metricRight = "=N";
unicode = 413;
},
{
color = 8;
glyphname = Eng;
kernLeft = KO_N;
kernRight = KO_N;
lastChange = "2024-01-10 07:43:49 +0000";
layers = (
{
layerId = m01;
shapes = (
{
ref = N;
},
{
closed = 1;
nodes = (
(470,113,l),
(436,-32,ls),
(413,-132,o),
(347,-195,o),
(264,-195,cs),
(204,-195,o),
(175,-172,o),
(149,-102,c),
(149,-212,l),
(225,-212,l),
(156,-64,l),
(138,-64,l),
(66,-166,l),
(105,-214,o),
(190,-251,o),
(258,-251,cs),
(390,-251,o),
(485,-163,o),
(521,-6,cs),
(535,55,l)
);
}
);
width = 671;
},
{
layerId = "B15366B1-D24E-431F-AB58-0431975245D7";
shapes = (
{
ref = N;
},
{
closed = 1;
nodes = (
(498,176,l),
(459,8,ls),
(429,-121,o),
(376,-185,o),
(300,-185,c),
(254,-185,o),
(215,-157,o),
(193,-106,c),
(140,-196,l),
(295,-196,l),
(201,-58,l),
(175,-58,l),
(75,-190,l),
(129,-229,o),
(211,-251,o),
(302,-251,cs),
(453,-251,o),
(571,-154,o),
(608,0,cs),
(640,133,l)
);
}
);
width = 753;
},
{
associatedMasterId = m01;
layerId = "8716CE11-0A97-47A3-BA8B-AB30052E5805";
name = "10 Jan 24 at 17:43";
shapes = (
{
ref = N;
},
{
closed = 1;
nodes = (
(470,113,l),
(436,-32,ls),
(413,-132,o),
(347,-195,o),
(264,-195,cs),
(204,-195,o),
(175,-172,o),
(149,-102,c),
(149,-212,l),
(209,-212,l),
(166,-54,l),
(148,-54,l),
(66,-166,l),
(105,-214,o),
(190,-251,o),
(258,-251,cs),
(390,-251,o),
(485,-163,o),
(521,-6,cs),
(535,55,l)
);
}
);
width = 671;
},
{
associatedMasterId = "B15366B1-D24E-431F-AB58-0431975245D7";
layerId = "DC85138C-FD05-4F3C-816D-68FB27FD9C08";
name = "10 Jan 24 at 17:43";
shapes = (
{
ref = N;
},
{
closed = 1;
nodes = (
(498,176,l),
(459,8,ls),
(429,-121,o),
(376,-185,o),
(300,-185,c),
(254,-185,o),
(215,-157,o),
(193,-106,c),
(140,-196,l),
(282,-196,l),
(211,-43,l),
(185,-43,l),
(75,-190,l),
(129,-229,o),
(211,-251,o),
(302,-251,cs),
(453,-251,o),
(571,-154,o),
(608,0,cs),
(640,133,l)
);
}
);
width = 753;
}
);
metricLeft = "=N";
metricRight = "=N";
unicode = 330;
},
{
color = 8;
glyphname = O;
kernLeft = KO_O;
kernRight = KO_O;
lastChange = "2024-03-02 06:05:35 +0000";
layers = (
{
anchors = (
{
name = bottom;
pos = (298,0);
},
{
name = center;
pos = (377,345);
},
{
name = ogonek;
pos = (318,-16);
},
{
name = qtail;
pos = (425,0);
},
{
name = top;
pos = (457,690);
},
{
name = topleft;
pos = (124,690);
},
{
name = topright;
pos = (516,690);
}
);
guides = (
{
angle = 77;
pos = (335,291);
},
{
angle = 77;
pos = (392,279);
}
);
layerId = m01;
shapes = (
{
closed = 1;
nodes = (
(534,-16,o),
(700,175,o),
(700,417,cs),
(700,602,o),
(604,706,o),
(432,706,cs),
(221,706,o),
(55,515,o),
(55,273,cs),
(55,88,o),
(151,-16,o),
(323,-16,cs)
);
},
{
closed = 1;
nodes = (
(225,35,o),
(156,122,o),
(156,260,cs),
(156,481,o),
(272,655,o),
(419,655,cs),
(530,655,o),
(599,568,o),
(599,430,cs),
(599,209,o),
(483,35,o),
(336,35,cs)
);
}
);
width = 707;
},
{
associatedMasterId = m01;
layerId = "4E624B52-57DA-4308-9863-DCE28ADE1F8B";
name = "20 Aug 23 at 21:03";
shapes = (
{
closed = 1;
nodes = (
(583,-16,o),
(727,138,o),
(727,357,cs),
(727,552,o),
(579,706,o),
(390,706,cs),
(184,706,o),
(40,552,o),
(40,333,cs),
(40,138,o),
(188,-16,o),
(377,-16,cs)
);
},
{
closed = 1;
nodes = (
(232,40,o),
(130,167,o),
(130,369,cs),
(130,542,o),
(223,650,o),
(372,650,cs),
(535,650,o),
(637,523,o),
(637,321,cs),
(637,148,o),
(544,40,o),
(395,40,cs)
);
}
);
width = 767;
},
{
associatedMasterId = m01;
layerId = "D40509D8-66DB-4608-B794-DB8B2B1AD334";
name = "22 Aug 23 at 23:30";
shapes = (
{
closed = 1;
nodes = (
(278,706,o),
(117,555,o),
(71,341,cs),
(26,141,o),
(132,-16,o),
(311,-16,cs),
(493,-16,o),
(654,135,o),
(700,349,cs),
(745,549,o),
(639,706,o),
(460,706,cs)
);
},
{
closed = 1;
nodes = (
(202,35,o),
(132,176,o),
(172,356,cs),
(211,532,o),
(322,655,o),
(440,655,cs),
(569,655,o),
(639,514,o),
(599,334,cs),
(560,158,o),
(449,35,o),
(331,35,cs)
);
}
);
width = 723;
},
{
associatedMasterId = m01;
layerId = "3735A68E-DFB1-4079-916A-D67DDDD6F456";
name = "24 Aug 23 at 14:36";
shapes = (
{
closed = 1;
nodes = (
(278,706,o),
(120,562,o),
(75,356,cs),
(27,138,o),
(124,-16,o),
(309,-16,cs),
(489,-16,o),
(647,128,o),
(692,334,cs),
(740,552,o),
(643,706,o),
(458,706,cs)
);
},
{
closed = 1;
nodes = (
(198,35,o),
(135,168,o),
(177,356,cs),
(216,532,o),
(324,655,o),
(438,655,cs),
(569,655,o),
(632,522,o),
(590,334,cs),
(551,158,o),
(443,35,o),
(329,35,cs)
);
}
);
width = 718;
},
{
associatedMasterId = "B15366B1-D24E-431F-AB58-0431975245D7";
layerId = "1ED8D50C-065D-4B1D-BC8D-41F1B8C24A14";
name = "22 Oct 23 at 13:55";
shapes = (
{
closed = 1;
nodes = (
(532,-16,o),
(693,119,o),
(740,334,cs),
(790,563,o),
(687,706,o),
(471,706,cs),
(261,706,o),
(100,571,o),
(53,356,cs),
(3,127,o),
(106,-16,o),
(322,-16,cs)
);
},
{
closed = 1;
nodes = (
(252,48,o),
(219,175,o),
(260,356,cs),
(301,539,o),
(370,642,o),
(454,642,cs),
(541,642,o),
(574,515,o),
(533,334,cs),
(492,151,o),
(423,48,o),
(339,48,cs)
);
}
);
width = 749;
},
{
associatedMasterId = "B15366B1-D24E-431F-AB58-0431975245D7";
layerId = "B036FE6F-973A-4D6B-8B33-BA6A366A6962";
name = "27 Oct 23 at 19:21";
shapes = (
{
closed = 1;
nodes = (
(532,-16,o),
(693,119,o),
(740,334,cs),
(790,563,o),
(687,706,o),
(471,706,cs),
(261,706,o),
(100,571,o),
(53,356,cs),
(3,127,o),
(106,-16,o),
(322,-16,cs)
);
},
{
closed = 1;
nodes = (
(252,48,o),
(219,175,o),
(260,356,cs),
(299,532,o),
(374,642,o),
(454,642,cs),
(541,642,o),
(574,515,o),
(533,334,cs),
(494,158,o),
(419,48,o),
(339,48,cs)
);
}
);
width = 749;
},
{
associatedMasterId = "B15366B1-D24E-431F-AB58-0431975245D7";
layerId = "809DD804-37F4-4EF7-A9DB-88B1EB42B680";
name = "27 Oct 23 at 19:35";
shapes = (
{
closed = 1;
nodes = (
(519,-16,o),
(690,122,o),
(735,318,cs),
(790,556,o),
(688,706,o),
(470,706,cs),
(272,706,o),
(101,568,o),
(56,372,cs),
(1,134,o),
(103,-16,o),
(321,-16,cs)
);
},
{
closed = 1;
nodes = (
(251,48,o),
(218,175,o),
(259,356,cs),
(298,532,o),
(373,642,o),
(453,642,cs),
(540,642,o),
(573,515,o),
(532,334,cs),
(493,158,o),
(418,48,o),
(338,48,cs)
);
}
);
width = 747;
},
{
associatedMasterId = m01;
layerId = "15851F8A-F698-48BD-A3F5-63CC9E70165A";
name = "27 Oct 23 at 19:37";
shapes = (
{
closed = 1;
nodes = (
(489,-16,o),
(637,119,o),
(684,334,cs),
(732,552,o),
(635,706,o),
(450,706,cs),
(262,706,o),
(114,571,o),
(67,356,cs),
(19,138,o),
(116,-16,o),
(301,-16,cs)
);
},
{
closed = 1;
nodes = (
(190,35,o),
(127,168,o),
(169,356,cs),
(208,532,o),
(316,655,o),
(430,655,cs),
(561,655,o),
(624,522,o),
(582,334,cs),
(543,158,o),
(435,35,o),
(321,35,cs)
);
}
);
width = 702;
},
{
associatedMasterId = "B15366B1-D24E-431F-AB58-0431975245D7";
layerId = "488766B9-BC3D-40CA-9652-E5A12E5979CB";
name = "28 Oct 23 at 11:57";
shapes = (
{
closed = 1;
nodes = (
(562,-16,o),
(751,183,o),
(751,437,cs),
(751,602,o),
(643,706,o),
(471,706,cs),
(231,706,o),
(42,507,o),
(42,253,cs),
(42,88,o),
(150,-16,o),
(322,-16,cs)
);
},
{
closed = 1;
nodes = (
(277,48,o),
(243,108,o),
(243,215,cs),
(243,340,o),
(315,642,o),
(454,642,cs),
(516,642,o),
(550,582,o),
(550,475,cs),
(550,350,o),
(478,48,o),
(339,48,cs)
);
}
);
width = 749;
},
{
associatedMasterId = m01;
layerId = "DE0A0B3C-CA5E-4B2B-A835-C5F9DE5289BF";
name = "28 Oct 23 at 13:28";
shapes = (
{
closed = 1;
nodes = (
(524,-16,o),
(698,185,o),
(698,440,cs),
(698,603,o),
(603,706,o),
(452,706,cs),
(231,706,o),
(57,505,o),
(57,250,cs),
(57,87,o),
(152,-16,o),
(303,-16,cs)
);
},
{
closed = 1;
nodes = (
(222,35,o),
(158,117,o),
(158,247,cs),
(158,393,o),
(253,655,o),
(432,655,cs),
(533,655,o),
(597,573,o),
(597,443,cs),
(597,297,o),
(502,35,o),
(323,35,cs)
);
}
);
width = 706;
},
{
associatedMasterId = m01;
layerId = "EB76C093-90AE-4341-A078-425A4FBC9B2B";
name = "2 Nov 23 at 17:00";
shapes = (
{
closed = 1;
nodes = (
(530,-16,o),
(700,185,o),
(700,440,cs),
(700,603,o),
(600,706,o),
(442,706,cs),
(225,706,o),
(55,505,o),
(55,250,cs),
(55,87,o),
(155,-16,o),
(313,-16,cs)
);
},
{
closed = 1;
nodes = (
(220,35,o),
(156,117,o),
(156,247,cs),
(156,475,o),
(277,655,o),
(432,655,cs),
(535,655,o),
(599,573,o),
(599,443,cs),
(599,215,o),
(478,35,o),
(323,35,cs)
);
}
);
width = 706;
},
{
associatedMasterId = "B15366B1-D24E-431F-AB58-0431975245D7";
layerId = "061CC816-8FA2-4BD7-AE3F-1F55133CB39A";
name = "2 Nov 23 at 17:11";
shapes = (
{
closed = 1;
nodes = (
(574,-16,o),
(751,167,o),
(751,427,cs),
(751,598,o),
(643,706,o),
(471,706,cs),
(219,706,o),
(42,523,o),
(42,263,cs),
(42,92,o),
(150,-16,o),
(322,-16,cs)
);
},
{
closed = 1;
nodes = (
(272,48,o),
(243,108,o),
(243,245,cs),
(243,467,o),
(336,642,o),
(454,642,cs),
(521,642,o),
(550,582,o),
(550,445,cs),
(550,223,o),
(457,48,o),
(339,48,cs)
);
}
);
width = 749;
},
{
anchors = (
{
name = bottom;
pos = (319,0);
},
{
name = center;
pos = (399,345);
},
{
name = ogonek;
pos = (325,-16);
},
{
name = qtail;
pos = (452,0);
},
{
name = top;
pos = (479,690);
},
{
name = topleft;
pos = (122,690);
},
{
name = topright;
pos = (546,690);
}
);
layerId = "B15366B1-D24E-431F-AB58-0431975245D7";
name = "Extra Bold Italic";
shapes = (
{
closed = 1;
nodes = (
(581,-16,o),
(755,171,o),
(755,437,cs),
(755,602,o),
(642,706,o),
(463,706,cs),
(216,706,o),
(42,519,o),
(42,253,cs),
(42,88,o),
(155,-16,o),
(334,-16,cs)
);
},
{
closed = 1;
nodes = (
(281,48,o),
(245,108,o),
(245,215,cs),
(245,370,o),
(317,642,o),
(452,642,cs),
(516,642,o),
(552,582,o),
(552,475,cs),
(552,320,o),
(480,48,o),
(345,48,cs)
);
}
);
visible = 1;
width = 753;
},
{
associatedMasterId = "B15366B1-D24E-431F-AB58-0431975245D7";
layerId = "75911D48-536C-4C12-B0B8-387C186F9D3D";
name = "9 Nov 23 at 20:57";
shapes = (
{
closed = 1;
nodes = (
(574,-16,o),
(751,171,o),
(751,437,cs),
(751,602,o),
(643,706,o),
(471,706,cs),
(219,706,o),
(42,519,o),
(42,253,cs),
(42,88,o),
(150,-16,o),
(322,-16,cs)
);
},
{
closed = 1;
nodes = (
(277,48,o),
(243,108,o),
(243,215,cs),
(243,340,o),
(315,642,o),
(454,642,cs),
(516,642,o),
(550,582,o),
(550,475,cs),
(550,350,o),
(478,48,o),
(339,48,cs)
);
}
);
width = 750;
},
{
anchors = (
{
name = bottom;
pos = (298,0);
},
{
name = center;
pos = (377,345);
},
{
name = ogonek;
pos = (582,10);
},
{
name = qtail;
pos = (419,0);
},
{
name = top;
pos = (457,690);
},
{
name = topleft;
pos = (124,690);
},
{
name = topright;
pos = (790,690);
}
);
associatedMasterId = m01;
layerId = "5BD7F328-D2DE-43EC-898F-573575256C41";
name = "28 Nov 23 at 19:05";
shapes = (
{
closed = 1;
nodes = (
(530,-16,o),
(700,175,o),
(700,417,cs),
(700,602,o),
(607,706,o),
(442,706,cs),
(225,706,o),
(55,515,o),
(55,273,cs),
(55,88,o),
(148,-16,o),
(313,-16,cs)
);
},
{
closed = 1;
nodes = (
(220,35,o),
(156,122,o),
(156,260,cs),
(156,481,o),
(277,655,o),
(432,655,cs),
(535,655,o),
(599,568,o),
(599,430,cs),
(599,209,o),
(478,35,o),
(323,35,cs)
);
}
);
width = 706;
}
);
metricRight = "=|";
unicode = 79;
userData = {
KernOnName = O;
};
},
{
color = 8;
glyphname = Oogonek;
kernLeft = KO_O;
kernRight = KO_O;
lastChange = "2024-02-09 08:27:17 +0000";
layers = (
{
layerId = m01;
shapes = (
{
ref = O;
},
{
closed = 1;
nodes = (
(350,-64,o),
(385,-18,o),
(449,8,c),
(449,21,l),
(356,21,l),
(356,-17,l),
(299,-46,o),
(264,-97,o),
(264,-149,cs),
(264,-211,o),
(307,-250,o),
(375,-250,cs),
(444,-250,o),
(498,-206,o),
(514,-136,c),
(491,-131,l),
(472,-164,o),
(443,-183,o),
(411,-183,cs),
(372,-183,o),
(350,-161,o),
(350,-122,cs)
);
}
);
width = 707;
},
{
layerId = "B15366B1-D24E-431F-AB58-0431975245D7";
shapes = (
{
ref = O;
},
{
closed = 1;
nodes = (
(357,-57,o),
(389,-20,o),
(446,-2,c),
(446,14,l),
(372,14,l),
(372,-17,l),
(291,-40,o),
(240,-92,o),
(240,-148,cs),
(240,-211,o),
(287,-251,o),
(363,-251,cs),
(436,-251,o),
(493,-199,o),
(511,-115,c),
(483,-110,l),
(464,-136,o),
(437,-151,o),
(408,-151,cs),
(377,-151,o),
(357,-134,o),
(357,-106,cs)
);
}
);
width = 753;
}
);
unicode = 490;
},
{
color = 8;
glyphname = OE;
kernRight = KO_E;
lastChange = "2024-01-09 04:10:25 +0000";
layers = (
{
layerId = m01;
shapes = (
{
closed = 1;
nodes = (
(465,0,l),
(465,45,l),
(362,45,l),
(231,45,o),
(158,132,o),
(158,289,cs),
(158,498,o),
(292,645,o),
(482,645,c),
(605,645,l),
(605,690,l),
(513,690,ls),
(245,690,o),
(56,523,o),
(56,285,cs),
(56,102,o),
(164,0,o),
(358,0,cs)
);
},
{
closed = 1;
nodes = (
(809,0,l),
(823,59,l),
(519,43,l),
(509,0,l)
);
},
{
closed = 1;
nodes = (
(853,0,l),
(883,161,l),
(867,161,l),
(722,41,l),
(712,0,l)
);
},
{
closed = 1;
nodes = (
(512,0,l),
(672,690,l),
(577,690,l),
(417,0,l)
);
},
{
closed = 1;
nodes = (
(814,388,l),
(590,377,l),
(581,334,l),
(799,324,l)
);
},
{
closed = 1;
nodes = (
(830,245,l),
(869,450,l),
(853,450,l),
(763,375,l),
(754,337,l),
(814,245,l)
);
},
{
closed = 1;
nodes = (
(959,690,l),
(662,690,l),
(652,647,l),
(945,631,l)
);
},
{
closed = 1;
nodes = (
(946,548,l),
(974,698,l),
(963,698,l),
(849,690,l),
(839,646,l),
(930,548,l)
);
}
);
width = 942;
},
{
layerId = "B15366B1-D24E-431F-AB58-0431975245D7";
shapes = (
{
closed = 1;
nodes = (
(502,0,l),
(502,61,l),
(396,61,l),
(303,61,o),
(251,138,o),
(251,275,cs),
(251,473,o),
(373,629,o),
(528,629,cs),
(687,629,l),
(687,690,l),
(518,690,l),
(229,690,o),
(47,535,o),
(47,288,cs),
(47,111,o),
(173,0,o),
(373,0,cs)
);
},
{
closed = 1;
nodes = (
(886,0,l),
(901,71,l),
(619,47,l),
(609,0,l)
);
},
{
closed = 1;
nodes = (
(930,0,l),
(971,189,l),
(944,189,l),
(761,41,l),
(751,0,l)
);
},
{
closed = 1;
nodes = (
(636,0,l),
(796,690,l),
(605,690,l),
(445,0,l)
);
},
{
closed = 1;
nodes = (
(883,395,l),
(677,377,l),
(668,334,l),
(864,316,l)
);
},
{
closed = 1;
nodes = (
(894,231,l),
(939,462,l),
(913,462,l),
(800,375,l),
(791,337,l),
(868,231,l)
);
},
{
closed = 1;
nodes = (
(1036,690,l),
(759,690,l),
(749,646,l),
(1016,606,l)
);
},
{
closed = 1;
nodes = (
(1012,508,l),
(1055,698,l),
(1036,698,l),
(884,690,l),
(874,646,l),
(986,508,l)
);
}
);
width = 1014;
}
);
metricLeft = "=O";
metricRight = "=E";
unicode = 338;
},
{
color = 8;
glyphname = P;
kernLeft = KO_H;
kernRight = KO_P;
lastChange = "2024-03-02 06:05:35 +0000";
layers = (
{
layerId = m01;
shapes = (
{
closed = 1;
nodes = (
(244,0,l),
(248,16,l),
(126,95,l),
(150,39,l),
(301,690,l),
(126,690,l),
(122,674,l),
(221,590,l),
(197,651,l),
(55,39,l),
(95,99,l),
(-21,17,l),
(-25,0,l)
);
},
{
closed = 1;
nodes = (
(259,268,ls),
(470,268,o),
(603,361,o),
(603,510,cs),
(603,621,o),
(498,690,o),
(331,690,cs),
(234,690,l),
(234,645,l),
(327,645,l),
(448,645,o),
(501,603,o),
(501,506,cs),
(501,393,o),
(410,313,o),
(280,313,c),
(177,313,l),
(177,268,l)
);
}
);
width = 581;
},
{
layerId = "B15366B1-D24E-431F-AB58-0431975245D7";
shapes = (
{
closed = 1;
nodes = (
(335,0,l),
(340,22,l),
(194,120,l),
(237,39,l),
(388,690,l),
(120,690,l),
(115,668,l),
(231,558,l),
(188,651,l),
(46,39,l),
(113,132,l),
(-23,24,l),
(-28,0,l)
);
},
{
closed = 1;
nodes = (
(319,234,l),
(570,234,o),
(711,323,o),
(711,481,cs),
(711,609,o),
(599,690,o),
(421,690,cs),
(292,690,l),
(292,629,l),
(398,629,l),
(468,629,o),
(507,581,o),
(507,494,cs),
(507,366,o),
(436,295,o),
(309,295,cs),
(208,295,l),
(208,234,l)
);
}
);
width = 690;
},
{
associatedMasterId = m01;
layerId = "BEA30357-BA43-49B4-ACCB-FF39741A6D4D";
name = "1 Dec 23 at 16:41";
shapes = (
{
closed = 1;
nodes = (
(244,0,l),
(248,16,l),
(126,95,l),
(150,39,l),
(301,690,l),
(126,690,l),
(122,674,l),
(221,590,l),
(197,651,l),
(55,39,l),
(95,99,l),
(-21,17,l),
(-25,0,l)
);
},
{
closed = 1;
nodes = (
(259,268,ls),
(452,268,o),
(603,374,o),
(603,510,cs),
(603,621,o),
(498,690,o),
(331,690,cs),
(234,690,l),
(234,645,l),
(327,645,l),
(448,645,o),
(501,603,o),
(501,506,cs),
(501,393,o),
(410,313,o),
(280,313,c),
(177,313,l),
(177,268,l)
);
}
);
width = 579;
},
{
associatedMasterId = m01;
layerId = "33803320-B861-4140-A1E4-7BCBA71B7DF8";
name = "4 Dec 23 at 20:51";
shapes = (
{
closed = 1;
nodes = (
(244,0,l),
(248,16,l),
(126,95,l),
(150,39,l),
(301,690,l),
(126,690,l),
(122,674,l),
(221,590,l),
(197,651,l),
(55,39,l),
(95,99,l),
(-21,17,l),
(-25,0,l)
);
},
{
closed = 1;
nodes = (
(259,268,ls),
(461,268,o),
(603,368,o),
(603,510,cs),
(603,621,o),
(498,690,o),
(331,690,cs),
(234,690,l),
(234,645,l),
(327,645,l),
(448,645,o),
(501,603,o),
(501,506,cs),
(501,393,o),
(410,313,o),
(280,313,c),
(177,313,l),
(177,268,l)
);
}
);
width = 580;
}
);
metricLeft = "=H";
metricRight = "=O";
unicode = 80;
userData = {
KernOnName = P;
};
},
{
color = 8;
glyphname = Thorn;
kernLeft = KO_H;
kernRight = KO_Thorn;
lastChange = "2024-01-09 04:10:54 +0000";
layers = (
{
guides = (
{
angle = 180;
pos = (811,553);
},
{
pos = (806,503);
},
{
angle = 180;
pos = (820,197);
},
{
pos = (815,147);
}
);
layerId = m01;
shapes = (
{
closed = 1;
nodes = (
(221,0,l),
(225,16,l),
(126,100,l),
(150,39,l),
(292,651,l),
(252,591,l),
(368,673,l),
(372,690,l),
(126,690,l),
(122,674,l),
(221,590,l),
(197,651,l),
(55,39,l),
(95,99,l),
(-21,17,l),
(-25,0,l)
);
},
{
closed = 1;
nodes = (
(224,147,ls),
(445,147,o),
(568,231,o),
(568,381,cs),
(568,487,o),
(463,553,o),
(296,553,cs),
(199,553,l),
(199,508,l),
(292,508,l),
(408,508,o),
(466,465,o),
(466,377,cs),
(466,263,o),
(381,192,o),
(245,192,c),
(142,192,l),
(142,147,l)
);
}
);
width = 576;
},
{
guides = (
{
angle = 180;
pos = (984,568);
},
{
pos = (945,508);
},
{
angle = 180;
pos = (931,188);
},
{
pos = (931,128);
}
);
layerId = "B15366B1-D24E-431F-AB58-0431975245D7";
shapes = (
{
closed = 1;
nodes = (
(305,0,l),
(310,22,l),
(194,132,l),
(237,39,l),
(379,651,l),
(312,558,l),
(448,666,l),
(453,690,l),
(120,690,l),
(115,668,l),
(231,558,l),
(188,651,l),
(46,39,l),
(113,132,l),
(-23,24,l),
(-28,0,l)
);
},
{
closed = 1;
nodes = (
(286,128,l),
(548,128,o),
(678,207,o),
(678,366,cs),
(678,490,o),
(566,568,o),
(388,568,cs),
(259,568,l),
(259,508,l),
(365,508,l),
(435,508,o),
(474,462,o),
(474,379,cs),
(474,256,o),
(403,188,o),
(276,188,cs),
(175,188,l),
(175,128,l)
);
}
);
width = 684;
}
);
metricLeft = "=I";
metricRight = "=P";
unicode = 222;
},
{
color = 8;
glyphname = R;
kernLeft = KO_H;
kernRight = KO_R;
lastChange = "2024-03-02 06:05:35 +0000";
layers = (
{
anchors = (
{
name = bottom;
pos = (256,0);
},
{
name = top;
pos = (364,690);
}
);
layerId = m01;
shapes = (
{
closed = 1;
nodes = (
(221,0,l),
(225,16,l),
(126,100,l),
(150,39,l),
(301,690,l),
(126,690,l),
(122,674,l),
(221,590,l),
(197,651,l),
(55,39,l),
(95,99,l),
(-21,17,l),
(-25,0,l)
);
},
{
closed = 1;
nodes = (
(563,0,l),
(567,16,l),
(450,110,l),
(512,13,l),
(398,335,l),
(304,329,l),
(422,0,l)
);
},
{
closed = 1;
nodes = (
(321,298,l),
(321,304,l),
(487,304,o),
(603,393,o),
(603,520,cs),
(603,629,o),
(505,690,o),
(331,690,cs),
(234,690,l),
(234,645,l),
(327,645,l),
(448,645,o),
(501,606,o),
(501,516,cs),
(501,410,o),
(420,343,o),
(290,343,c),
(187,343,l),
(187,298,l)
);
}
);
width = 621;
},
{
anchors = (
{
name = bottom;
pos = (314,0);
},
{
name = top;
pos = (421,690);
}
);
guides = (
{
pos = (298,88);
}
);
layerId = "B15366B1-D24E-431F-AB58-0431975245D7";
shapes = (
{
closed = 1;
nodes = (
(335,0,l),
(340,22,l),
(194,120,l),
(237,39,l),
(388,690,l),
(120,690,l),
(115,668,l),
(231,558,l),
(188,651,l),
(46,39,l),
(113,132,l),
(-23,24,l),
(-28,0,l)
);
},
{
closed = 1;
nodes = (
(684,0,l),
(690,23,l),
(593,104,l),
(636,25,l),
(508,359,l),
(333,306,l),
(451,0,l)
);
},
{
closed = 1;
nodes = (
(384,274,l),
(384,296,l),
(579,296,o),
(701,375,o),
(701,501,cs),
(701,622,o),
(601,690,o),
(421,690,cs),
(292,690,l),
(292,629,l),
(398,629,l),
(462,629,o),
(497,588,o),
(497,514,cs),
(497,394,o),
(435,335,o),
(309,335,cs),
(208,335,l),
(208,274,l)
);
}
);
width = 744;
},
{
associatedMasterId = m01;
layerId = "B7EFFD09-6D52-460D-AC4E-DAD81CFD703A";
name = "1 Dec 23 at 16:42";
shapes = (
{
closed = 1;
nodes = (
(221,0,l),
(225,16,l),
(126,100,l),
(150,39,l),
(301,690,l),
(126,690,l),
(122,674,l),
(221,590,l),
(197,651,l),
(55,39,l),
(95,99,l),
(-21,17,l),
(-25,0,l)
);
},
{
closed = 1;
nodes = (
(570,0,l),
(574,16,l),
(457,98,l),
(519,13,l),
(365,335,l),
(268,329,l),
(426,0,l)
);
},
{
closed = 1;
nodes = (
(287,298,l),
(287,304,l),
(473,304,o),
(603,393,o),
(603,520,cs),
(603,629,o),
(505,690,o),
(331,690,cs),
(234,690,l),
(234,645,l),
(327,645,l),
(448,645,o),
(501,606,o),
(501,516,cs),
(501,410,o),
(420,343,o),
(290,343,c),
(187,343,l),
(187,298,l)
);
}
);
width = 628;
}
);
metricLeft = "=H";
metricRight = "=V";
unicode = 82;
userData = {
KernOnName = R;
};
},
{
color = 8;
glyphname = S;
kernLeft = KO_S;
kernRight = KO_S;
lastChange = "2024-03-02 06:05:35 +0000";
layers = (
{
anchors = (
{
name = bottom;
pos = (255,0);
},
{
name = top;
pos = (394,690);
}
);
guides = (
{
angle = 90;
pos = (25,38);
}
);
layerId = m01;
shapes = (
{
closed = 1;
nodes = (
(432,-16,o),
(528,66,o),
(528,196,cs),
(528,404,o),
(214,378,o),
(214,540,cs),
(214,605,o),
(276,650,o),
(364,650,cs),
(426,650,o),
(486,626,o),
(518,587,c),
(531,636,l),
(447,659,l),
(531,517,l),
(549,517,l),
(618,639,l),
(554,678,o),
(454,706,o),
(374,706,cs),
(218,706,o),
(120,636,o),
(120,524,cs),
(120,316,o),
(434,342,o),
(434,180,cs),
(434,98,o),
(374,40,o),
(288,40,cs),
(193,40,o),
(130,72,o),
(98,136,c),
(98,71,l),
(166,50,l),
(78,188,l),
(60,188,l),
(-6,66,l),
(75,16,o),
(185,-16,o),
(278,-16,cs)
);
}
);
width = 579;
},
{
anchors = (
{
name = bottom;
pos = (263,0);
},
{
name = top;
pos = (403,690);
}
);
layerId = "B15366B1-D24E-431F-AB58-0431975245D7";
shapes = (
{
closed = 1;
nodes = (
(470,-16,o),
(585,74,o),
(585,218,cs),
(585,445,o),
(275,407,o),
(275,540,cs),
(275,600,o),
(317,637,o),
(384,637,cs),
(446,637,o),
(494,611,o),
(539,552,c),
(536,619,l),
(430,640,l),
(536,468,l),
(562,468,l),
(658,625,l),
(587,673,o),
(470,706,o),
(376,706,cs),
(201,706,o),
(91,624,o),
(91,494,cs),
(91,267,o),
(401,305,o),
(401,172,cs),
(401,102,o),
(351,53,o),
(279,53,cs),
(210,53,o),
(160,79,o),
(114,138,c),
(117,71,l),
(213,50,l),
(96,225,l),
(70,225,l),
(-16,68,l),
(77,14,o),
(186,-16,o),
(287,-16,cs)
);
}
);
width = 625;
},
{
associatedMasterId = m01;
layerId = "6D23B707-4965-4086-ABBE-9B73DA0FB8D2";
name = "1 Dec 23 at 16:46";
shapes = (
{
closed = 1;
nodes = (
(506,364,o),
(166,406,o),
(191,553,cs),
(202,612,o),
(266,653,o),
(346,653,cs),
(389,653,o),
(424,640,o),
(460,611,c),
(460,669,l),
(393,669,l),
(464,537,l),
(482,537,l),
(554,652,l),
(500,687,o),
(428,706,o),
(353,706,cs),
(227,706,o),
(124,639,o),
(104,543,cs),
(63,343,o),
(403,301,o),
(378,154,cs),
(366,85,o),
(299,37,o),
(214,37,cs),
(166,37,o),
(125,51,o),
(90,79,c),
(90,21,l),
(157,21,l),
(86,153,l),
(68,153,l),
(-4,38,l),
(45,6,o),
(132,-16,o),
(207,-16,cs),
(342,-16,o),
(442,53,o),
(465,164,cs)
);
}
);
width = 517;
},
{
associatedMasterId = m01;
guides = (
{
angle = 90;
pos = (9,38);
}
);
layerId = "AD808626-862B-4D35-8E29-4AA9E889C76F";
name = "4 Dec 23 at 22:16";
shapes = (
{
closed = 1;
nodes = (
(431,94,o),
(344,37,o),
(234,37,cs),
(185,37,o),
(138,52,o),
(104,79,c),
(104,21,l),
(179,21,l),
(100,156,l),
(82,156,l),
(9,35,l),
(65,5,o),
(158,-16,o),
(234,-16,cs),
(404,-16,o),
(523,70,o),
(523,193,cs),
(523,375,o),
(193,399,o),
(193,540,cs),
(193,603,o),
(276,653,o),
(381,653,cs),
(428,653,o),
(468,639,o),
(503,611,c),
(503,669,l),
(428,669,l),
(507,534,l),
(525,534,l),
(598,655,l),
(542,685,o),
(453,706,o),
(381,706,cs),
(217,706,o),
(101,627,o),
(101,514,cs),
(101,332,o),
(431,308,o),
(431,167,cs)
);
}
);
width = 573;
},
{
associatedMasterId = m01;
background = {
shapes = (
{
closed = 1;
nodes = (
(451,-16,o),
(557,63,o),
(557,189,cs),
(557,391,o),
(216,411,o),
(216,552,cs),
(216,604,o),
(263,635,o),
(338,635,cs),
(414,635,o),
(467,618,o),
(514,580,c),
(514,650,l),
(422,663,l),
(527,478,l),
(547,478,l),
(624,641,l),
(524,688,o),
(445,706,o),
(342,706,cs),
(197,706,o),
(96,628,o),
(96,518,cs),
(96,316,o),
(435,296,o),
(435,154,cs),
(435,93,o),
(378,54,o),
(285,54,cs),
(206,54,o),
(153,84,o),
(107,154,c),
(107,68,l),
(183,56,l),
(93,240,l),
(73,240,l),
(-3,86,l),
(74,23,o),
(183,-16,o),
(280,-16,cs)
);
}
);
};
guides = (
{
angle = 90;
pos = (10,38);
}
);
layerId = "5608073E-BC66-4C8D-A8AB-58436594D5B7";
name = "8 Dec 23 at 22:23";
shapes = (
{
closed = 1;
nodes = (
(108,352,o),
(429,288,o),
(429,147,cs),
(429,81,o),
(372,40,o),
(280,40,cs),
(194,40,o),
(135,75,o),
(100,145,c),
(100,71,l),
(182,50,l),
(96,206,l),
(78,206,l),
(5,85,l),
(82,20,o),
(177,-16,o),
(270,-16,cs),
(419,-16,o),
(523,58,o),
(523,163,cs),
(523,355,o),
(202,419,o),
(202,560,cs),
(202,613,o),
(263,650,o),
(349,650,cs),
(415,650,o),
(473,622,o),
(500,577,c),
(516,636,l),
(418,659,l),
(509,512,l),
(527,512,l),
(600,633,l),
(540,674,o),
(434,706,o),
(359,706,cs),
(212,706,o),
(108,639,o),
(108,544,cs)
);
}
);
width = 579;
},
{
associatedMasterId = m01;
guides = (
{
angle = 90;
pos = (23,38);
}
);
layerId = "EB080778-EBDF-4310-BEE9-9ED0C5637509";
name = "11 Dec 23 at 10:34";
shapes = (
{
closed = 1;
nodes = (
(412,-16,o),
(516,66,o),
(516,183,cs),
(516,395,o),
(212,379,o),
(212,540,cs),
(212,605,o),
(274,650,o),
(362,650,cs),
(431,650,o),
(485,624,o),
(513,577,c),
(529,636,l),
(435,659,l),
(522,512,l),
(540,512,l),
(613,633,l),
(553,674,o),
(447,706,o),
(372,706,cs),
(223,706,o),
(118,631,o),
(118,524,cs),
(118,312,o),
(422,328,o),
(422,167,cs),
(422,89,o),
(365,40,o),
(273,40,cs),
(188,40,o),
(128,75,o),
(93,145,c),
(93,71,l),
(171,50,l),
(89,206,l),
(71,206,l),
(-2,85,l),
(75,20,o),
(170,-16,o),
(263,-16,cs)
);
}
);
width = 568;
},
{
associatedMasterId = "B15366B1-D24E-431F-AB58-0431975245D7";
layerId = "EF9F59AC-940C-4C90-8DF5-9FFBBEB28223";
name = "11 Dec 23 at 10:40";
shapes = (
{
closed = 1;
nodes = (
(459,-16,o),
(576,72,o),
(576,213,cs),
(576,435,o),
(282,409,o),
(282,540,cs),
(282,600,o),
(321,637,o),
(383,637,cs),
(446,637,o),
(504,607,o),
(546,552,c),
(543,619,l),
(437,640,l),
(533,463,l),
(559,463,l),
(665,615,l),
(593,668,o),
(476,706,o),
(383,706,cs),
(208,706,o),
(98,624,o),
(98,494,cs),
(98,272,o),
(392,298,o),
(392,167,cs),
(392,94,o),
(349,53,o),
(273,53,cs),
(202,53,o),
(157,77,o),
(110,138,c),
(113,71,l),
(209,50,l),
(110,237,l),
(84,237,l),
(-12,85,l),
(68,17,o),
(162,-16,o),
(273,-16,cs)
);
}
);
width = 617;
},
{
associatedMasterId = m01;
guides = (
{
angle = 90;
pos = (25,38);
}
);
layerId = "74859069-F0F7-41EA-859C-656F1967E509";
name = "11 Dec 23 at 21:36";
shapes = (
{
closed = 1;
nodes = (
(432,-16,o),
(528,62,o),
(528,186,cs),
(528,398,o),
(214,379,o),
(214,540,cs),
(214,605,o),
(276,650,o),
(364,650,cs),
(426,650,o),
(486,626,o),
(518,587,c),
(531,636,l),
(447,659,l),
(531,517,l),
(549,517,l),
(618,639,l),
(554,678,o),
(454,706,o),
(374,706,cs),
(218,706,o),
(120,636,o),
(120,524,cs),
(120,312,o),
(434,331,o),
(434,170,cs),
(434,97,o),
(370,40,o),
(288,40,cs),
(193,40,o),
(130,72,o),
(98,136,c),
(98,71,l),
(166,50,l),
(78,188,l),
(60,188,l),
(-6,66,l),
(75,16,o),
(185,-16,o),
(278,-16,cs)
);
}
);
width = 580;
},
{
anchors = (
{
name = bottom;
pos = (255,0);
},
{
name = top;
pos = (394,690);
}
);
associatedMasterId = m01;
guides = (
{
angle = 90;
pos = (25,38);
}
);
layerId = "319A6DCE-3E9F-4ECE-9E16-1BD3E08673F9";
name = "9 Jan 24 at 16:36";
shapes = (
{
closed = 1;
nodes = (
(432,-16,o),
(528,66,o),
(528,196,cs),
(528,408,o),
(214,379,o),
(214,540,cs),
(214,605,o),
(276,650,o),
(364,650,cs),
(426,650,o),
(486,626,o),
(518,587,c),
(531,636,l),
(447,659,l),
(531,517,l),
(549,517,l),
(618,639,l),
(554,678,o),
(454,706,o),
(374,706,cs),
(218,706,o),
(120,636,o),
(120,524,cs),
(120,312,o),
(434,341,o),
(434,180,cs),
(434,98,o),
(374,40,o),
(288,40,cs),
(193,40,o),
(130,72,o),
(98,136,c),
(98,71,l),
(166,50,l),
(78,188,l),
(60,188,l),
(-6,66,l),
(75,16,o),
(185,-16,o),
(278,-16,cs)
);
}
);
width = 579;
},
{
anchors = (
{
name = bottom;
pos = (263,0);
},
{
name = top;
pos = (403,690);
}
);
associatedMasterId = "B15366B1-D24E-431F-AB58-0431975245D7";
layerId = "C17EFAFD-4134-42A9-BF1E-512493E1A6D3";
name = "9 Jan 24 at 16:37";
shapes = (
{
closed = 1;
nodes = (
(475,-16,o),
(580,68,o),
(580,218,cs),
(580,450,o),
(275,409,o),
(275,540,cs),
(275,600,o),
(317,637,o),
(384,637,cs),
(446,637,o),
(494,611,o),
(539,552,c),
(536,619,l),
(430,640,l),
(536,468,l),
(562,468,l),
(658,625,l),
(587,673,o),
(470,706,o),
(376,706,cs),
(201,706,o),
(91,624,o),
(91,494,cs),
(91,262,o),
(396,303,o),
(396,172,cs),
(396,102,o),
(348,53,o),
(279,53,cs),
(210,53,o),
(160,79,o),
(114,138,c),
(117,71,l),
(213,50,l),
(96,225,l),
(70,225,l),
(-16,68,l),
(77,14,o),
(186,-16,o),
(287,-16,cs)
);
}
);
width = 621;
}
);
metricLeft = "=O";
metricRight = "=O";
unicode = 83;
userData = {
KernOnName = S;
};
},
{
color = 8;
glyphname = Saltillo;
lastChange = "2024-01-23 06:35:09 +0000";
layers = (
{
guides = (
{
pos = (50,359);
}
);
layerId = m01;
shapes = (
{
closed = 1;
nodes = (
(176,359,l),
(268,697,l),
(265,701,l),
(152,701,l),
(148,697,l),
(148,359,l)
);
}
);
width = 204;
},
{
guides = (
{
pos = (-128,314);
}
);
layerId = "B15366B1-D24E-431F-AB58-0431975245D7";
shapes = (
{
closed = 1;
nodes = (
(182,314,l),
(335,722,l),
(330,732,l),
(149,732,l),
(141,722,l),
(141,314,l)
);
}
);
width = 258;
}
);
metricLeft = "=o";
metricRight = "=o";
unicode = 42891;
},
{
color = 8;
glyphname = Germandbls;
kernLeft = KO_H;
lastChange = "2024-01-09 04:10:56 +0000";
layers = (
{
guides = (
{
pos = (1147,391);
}
);
layerId = m01;
shapes = (
{
closed = 1;
nodes = (
(141,0,l),
(301,690,l),
(126,690,l),
(122,674,l),
(221,590,l),
(197,651,l),
(55,39,l),
(95,99,l),
(-21,17,l),
(-25,0,l)
);
},
{
closed = 1;
nodes = (
(578,-16,o),
(691,89,o),
(691,223,cs),
(691,346,o),
(577,433,o),
(415,433,c),
(403,391,l),
(506,391,o),
(587,312,o),
(587,212,cs),
(587,109,o),
(516,37,o),
(416,37,cs),
(361,37,o),
(320,73,o),
(303,137,c),
(303,41,l),
(384,21,l),
(309,189,l),
(293,189,l),
(211,84,l),
(274,14,o),
(342,-16,o),
(434,-16,cs)
);
},
{
closed = 1;
nodes = (
(480,391,l),
(707,674,l),
(707,690,l),
(613,690,l),
(386,405,l),
(393,391,l)
);
},
{
closed = 1;
nodes = (
(673,645,l),
(677,690,l),
(244,690,l),
(244,645,l)
);
}
);
width = 735;
},
{
layerId = "B15366B1-D24E-431F-AB58-0431975245D7";
shapes = (
{
closed = 1;
nodes = (
(228,0,l),
(388,690,l),
(120,690,l),
(115,668,l),
(231,558,l),
(188,651,l),
(46,39,l),
(113,132,l),
(-23,24,l),
(-28,0,l)
);
},
{
closed = 1;
nodes = (
(708,-16,o),
(826,72,o),
(826,212,cs),
(826,341,o),
(679,443,o),
(493,443,c),
(443,384,l),
(548,384,o),
(622,308,o),
(622,201,cs),
(622,116,o),
(570,49,o),
(504,49,cs),
(445,49,o),
(404,84,o),
(388,147,c),
(388,41,l),
(519,21,l),
(415,219,l),
(388,219,l),
(296,70,l),
(348,17,o),
(435,-16,o),
(521,-16,cs)
);
},
{
closed = 1;
nodes = (
(605,384,l),
(837,666,l),
(837,690,l),
(648,690,l),
(416,408,l),
(427,384,l)
);
},
{
closed = 1;
nodes = (
(722,630,l),
(736,690,l),
(259,690,l),
(245,630,l)
);
}
);
width = 867;
}
);
metricLeft = "=I";
metricRight = "=B";
unicode = 7838;
},
{
color = 8;
glyphname = T;
kernLeft = KO_T;
kernRight = KO_T;
lastChange = "2024-03-02 06:05:35 +0000";
layers = (
{
anchors = (
{
name = bottom;
pos = (269,0);
},
{
name = center;
pos = (308,345);
},
{
name = top;
pos = (425,690);
}
);
guides = (
{
pos = (667,552);
},
{
pos = (135,17);
}
);
layerId = m01;
shapes = (
{
closed = 1;
nodes = (
(391,0,l),
(395,16,l),
(296,100,l),
(320,39,l),
(471,690,l),
(376,690,l),
(225,39,l),
(265,99,l),
(149,17,l),
(145,0,l)
);
},
{
closed = 1;
nodes = (
(131,542,l),
(256,646,l),
(266,690,l),
(151,698,l),
(140,698,l),
(115,542,l)
);
},
{
closed = 1;
nodes = (
(398,647,l),
(408,690,l),
(151,690,l),
(138,631,l)
);
},
{
closed = 1;
nodes = (
(697,690,l),
(440,690,l),
(430,647,l),
(683,631,l)
);
},
{
closed = 1;
nodes = (
(683,542,l),
(715,698,l),
(704,698,l),
(581,690,l),
(571,646,l),
(667,542,l)
);
}
);
width = 647;
},
{
associatedMasterId = m01;
layerId = "473D5E1B-AF73-4715-8E2F-20F4E6AEBFDE";
name = "21 Aug 23 at 21:13";
shapes = (
{
closed = 1;
nodes = (
(477,0,l),
(477,16,l),
(399,73,l),
(399,690,l),
(309,690,l),
(309,73,l),
(230,16,l),
(230,0,l)
);
},
{
closed = 1;
nodes = (
(638,690,l),
(377,690,l),
(377,652,l),
(638,636,l)
);
},
{
closed = 1;
nodes = (
(653,523,l),
(666,696,l),
(655,696,l),
(567,690,l),
(567,646,l),
(637,523,l)
);
},
{
closed = 1;
nodes = (
(331,652,l),
(331,690,l),
(70,690,l),
(70,636,l)
);
},
{
closed = 1;
nodes = (
(141,646,l),
(141,690,l),
(53,696,l),
(42,696,l),
(55,523,l),
(71,523,l)
);
}
);
width = 708;
},
{
associatedMasterId = m01;
layerId = "68CFE50F-F804-46A1-8977-A0B563FDE2E9";
name = "24 Aug 23 at 14:57";
shapes = (
{
closed = 1;
nodes = (
(403,0,l),
(407,16,l),
(334,64,l),
(239,64,l),
(155,16,l),
(151,0,l)
);
},
{
closed = 1;
nodes = (
(319,0,l),
(479,690,l),
(384,690,l),
(224,0,l)
);
},
{
closed = 1;
nodes = (
(731,690,l),
(444,690,l),
(434,647,l),
(717,631,l)
);
},
{
closed = 1;
nodes = (
(718,558,l),
(746,698,l),
(735,698,l),
(630,690,l),
(620,646,l),
(702,558,l)
);
},
{
closed = 1;
nodes = (
(406,647,l),
(416,690,l),
(129,690,l),
(116,631,l)
);
},
{
closed = 1;
nodes = (
(219,646,l),
(229,690,l),
(129,698,l),
(118,698,l),
(100,558,l),
(116,558,l)
);
}
);
width = 657;
},
{
anchors = (
{
name = bottom;
pos = (295,0);
},
{
name = center;
pos = (344,345);
},
{
name = top;
pos = (450,690);
}
);
layerId = "B15366B1-D24E-431F-AB58-0431975245D7";
shapes = (
{
closed = 1;
nodes = (
(464,0,l),
(469,22,l),
(353,132,l),
(396,39,l),
(547,690,l),
(356,690,l),
(205,39,l),
(272,132,l),
(136,24,l),
(131,0,l)
);
},
{
closed = 1;
nodes = (
(127,484,l),
(299,646,l),
(289,690,l),
(148,698,l),
(129,698,l),
(101,484,l)
);
},
{
closed = 1;
nodes = (
(411,648,l),
(421,690,l),
(185,690,l),
(165,608,l)
);
},
{
closed = 1;
nodes = (
(763,690,l),
(486,690,l),
(476,646,l),
(743,606,l)
);
},
{
closed = 1;
nodes = (
(733,484,l),
(780,698,l),
(760,698,l),
(591,690,l),
(581,646,l),
(707,484,l)
);
}
);
width = 705;
},
{
associatedMasterId = "B15366B1-D24E-431F-AB58-0431975245D7";
layerId = "7CE9EEC3-8A0A-46FF-9CB0-7E621780F6A7";
name = "28 Oct 23 at 16:23";
shapes = (
{
closed = 1;
nodes = (
(388,0,l),
(548,690,l),
(357,690,l),
(197,0,l)
);
},
{
closed = 1;
nodes = (
(466,0,l),
(473,22,l),
(407,82,l),
(217,86,l),
(142,23,l),
(135,0,l)
);
},
{
closed = 1;
nodes = (
(131,514,l),
(270,646,l),
(260,690,l),
(149,698,l),
(130,698,l),
(108,514,l)
);
},
{
closed = 1;
nodes = (
(412,648,l),
(422,690,l),
(186,690,l),
(166,608,l)
);
},
{
closed = 1;
nodes = (
(764,690,l),
(487,690,l),
(477,646,l),
(744,606,l)
);
},
{
closed = 1;
nodes = (
(740,514,l),
(780,698,l),
(761,698,l),
(622,690,l),
(612,646,l),
(717,514,l)
);
}
);
width = 706;
},
{
associatedMasterId = m01;
guides = (
{
pos = (667,552);
},
{
pos = (135,17);
}
);
layerId = "4576AD19-4A81-4279-87F4-3E67EA10E440";
name = "26 Nov 23 at 20:56";
shapes = (
{
closed = 1;
nodes = (
(391,0,l),
(395,16,l),
(296,100,l),
(320,39,l),
(471,690,l),
(376,690,l),
(225,39,l),
(265,99,l),
(149,17,l),
(145,0,l)
);
},
{
closed = 1;
nodes = (
(131,542,l),
(251,646,l),
(261,690,l),
(151,698,l),
(140,698,l),
(115,542,l)
);
},
{
closed = 1;
nodes = (
(398,647,l),
(408,690,l),
(151,690,l),
(138,631,l)
);
},
{
closed = 1;
nodes = (
(697,690,l),
(440,690,l),
(430,647,l),
(683,631,l)
);
},
{
closed = 1;
nodes = (
(683,542,l),
(715,698,l),
(704,698,l),
(586,690,l),
(576,646,l),
(667,542,l)
);
}
);
width = 647;
},
{
associatedMasterId = "B15366B1-D24E-431F-AB58-0431975245D7";
layerId = "B0C0DBF2-D1C0-4BF2-9584-8A01B2C77195";
name = "9 Dec 23 at 08:05";
shapes = (
{
closed = 1;
nodes = (
(464,0,l),
(469,22,l),
(353,132,l),
(396,39,l),
(547,690,l),
(356,690,l),
(205,39,l),
(272,132,l),
(136,24,l),
(131,0,l)
);
},
{
closed = 1;
nodes = (
(130,514,l),
(269,646,l),
(259,690,l),
(148,698,l),
(129,698,l),
(107,514,l)
);
},
{
closed = 1;
nodes = (
(411,648,l),
(421,690,l),
(185,690,l),
(165,608,l)
);
},
{
closed = 1;
nodes = (
(763,690,l),
(486,690,l),
(476,646,l),
(743,606,l)
);
},
{
closed = 1;
nodes = (
(739,514,l),
(780,698,l),
(760,698,l),
(621,690,l),
(611,646,l),
(716,514,l)
);
}
);
width = 704;
}
);
metricLeft = "=O";
metricRight = "=O";
unicode = 84;
userData = {
KernOnName = T;
};
},
{
color = 8;
glyphname = U;
kernLeft = KO_U;
kernRight = KO_U;
lastChange = "2024-03-02 06:05:35 +0000";
layers = (
{
anchors = (
{
name = bottom;
pos = (286,0);
},
{
name = ogonek;
pos = (363,0);
},
{
name = top;
pos = (452,690);
},
{
name = topright;
pos = (615,690);
}
);
layerId = m01;
shapes = (
{
closed = 1;
nodes = (
(67,91,o),
(144,-16,o),
(306,-16,cs),
(455,-16,o),
(552,85,o),
(599,289,cs),
(683,651,l),
(643,591,l),
(759,673,l),
(763,690,l),
(537,690,l),
(533,674,l),
(639,590,l),
(615,651,l),
(531,289,ls),
(493,127,o),
(426,46,o),
(326,46,cs),
(219,46,o),
(174,140,o),
(209,289,cs),
(293,651,l),
(253,591,l),
(369,673,l),
(373,690,l),
(126,690,l),
(122,674,l),
(221,590,l),
(197,651,l),
(107,262,ls)
);
}
);
width = 681;
},
{
anchors = (
{
name = bottom;
pos = (318,0);
},
{
name = ogonek;
pos = (395,0);
},
{
name = top;
pos = (508,690);
},
{
name = topright;
pos = (654,690);
}
);
guides = (
{
angle = 256.9011;
pos = (452,360);
}
);
layerId = "B15366B1-D24E-431F-AB58-0431975245D7";
shapes = (
{
closed = 1;
nodes = (
(58,94,o),
(150,-16,o),
(359,-16,cs),
(521,-16,o),
(625,85,o),
(672,289,cs),
(756,651,l),
(716,591,l),
(832,673,l),
(836,690,l),
(576,690,l),
(572,674,l),
(678,590,l),
(654,651,l),
(570,289,ls),
(535,138,o),
(489,87,o),
(388,87,cs),
(294,87,o),
(264,154,o),
(295,289,cs),
(379,651,l),
(312,558,l),
(448,666,l),
(453,690,l),
(120,690,l),
(115,668,l),
(231,558,l),
(188,651,l),
(104,290,ls)
);
}
);
width = 752;
},
{
associatedMasterId = m01;
layerId = "35077BCA-0AE8-4AD5-BEE7-5C18853F2B6A";
name = "1 Dec 23 at 17:07";
shapes = (
{
closed = 1;
nodes = (
(69,99,o),
(151,-16,o),
(306,-16,cs),
(455,-16,o),
(552,85,o),
(599,289,cs),
(683,651,l),
(643,591,l),
(759,673,l),
(763,690,l),
(537,690,l),
(533,674,l),
(639,590,l),
(615,651,l),
(531,289,ls),
(494,127,o),
(426,46,o),
(326,46,cs),
(219,46,o),
(174,140,o),
(209,289,cs),
(293,651,l),
(253,591,l),
(369,673,l),
(373,690,l),
(126,690,l),
(122,674,l),
(221,590,l),
(197,651,l),
(107,262,ls)
);
}
);
width = 681;
}
);
metricLeft = "=H";
metricRight = "=H";
unicode = 85;
userData = {
KernOnName = U;
};
},
{
color = 8;
glyphname = Uhorn;
kernLeft = KO_U;
kernRight = KO_Uhorn;
lastChange = "2024-01-12 07:09:40 +0000";
layers = (
{
anchors = (
{
name = bottom;
pos = (286,0);
},
{
name = ogonek;
pos = (363,0);
},
{
name = top;
pos = (452,690);
},
{
name = topright;
pos = (572,690);
}
);
layerId = m01;
shapes = (
{
closed = 1;
nodes = (
(455,-16,o),
(552,85,o),
(599,289,cs),
(692,690,l),
(537,690,l),
(533,674,l),
(639,590,l),
(615,651,l),
(531,289,ls),
(493,127,o),
(426,46,o),
(326,46,cs),
(219,46,o),
(174,140,o),
(209,289,cs),
(293,651,l),
(253,591,l),
(369,673,l),
(373,690,l),
(126,690,l),
(122,674,l),
(221,590,l),
(197,651,l),
(107,262,ls),
(67,91,o),
(144,-16,o),
(306,-16,cs)
);
},
{
pos = (416,0);
ref = horncomb.case;
}
);
width = 681;
},
{
anchors = (
{
name = bottom;
pos = (318,0);
},
{
name = ogonek;
pos = (395,0);
},
{
name = top;
pos = (508,690);
},
{
name = topright;
pos = (637,690);
}
);
layerId = "B15366B1-D24E-431F-AB58-0431975245D7";
shapes = (
{
closed = 1;
nodes = (
(521,-16,o),
(625,85,o),
(672,289,cs),
(765,690,l),
(576,690,l),
(572,674,l),
(678,590,l),
(654,651,l),
(570,289,ls),
(535,138,o),
(489,87,o),
(388,87,cs),
(294,87,o),
(264,154,o),
(295,289,cs),
(379,651,l),
(312,558,l),
(448,666,l),
(453,690,l),
(120,690,l),
(115,668,l),
(231,558,l),
(188,651,l),
(104,290,ls),
(58,94,o),
(150,-16,o),
(359,-16,cs)
);
},
{
pos = (503,0);
ref = horncomb.case;
}
);
width = 752;
}
);
unicode = 431;
},
{
color = 8;
glyphname = Uogonek;
kernLeft = KO_U;
kernRight = KO_U;
lastChange = "2024-02-09 08:27:17 +0000";
layers = (
{
layerId = m01;
shapes = (
{
ref = U;
},
{
closed = 1;
nodes = (
(320,-65,o),
(355,-19,o),
(419,8,c),
(419,21,l),
(326,21,l),
(326,-17,l),
(269,-46,o),
(234,-97,o),
(234,-149,cs),
(234,-211,o),
(277,-250,o),
(345,-250,cs),
(414,-250,o),
(468,-206,o),
(484,-136,c),
(461,-131,l),
(442,-164,o),
(413,-183,o),
(381,-183,cs),
(342,-183,o),
(320,-161,o),
(320,-122,cs)
);
}
);
width = 681;
},
{
layerId = "B15366B1-D24E-431F-AB58-0431975245D7";
shapes = (
{
ref = U;
},
{
closed = 1;
nodes = (
(366,-57,o),
(398,-20,o),
(455,-2,c),
(455,14,l),
(381,14,l),
(381,-17,l),
(300,-40,o),
(249,-92,o),
(249,-148,cs),
(249,-211,o),
(296,-251,o),
(372,-251,cs),
(445,-251,o),
(502,-199,o),
(520,-115,c),
(492,-110,l),
(473,-136,o),
(446,-151,o),
(417,-151,cs),
(386,-151,o),
(366,-134,o),
(366,-106,cs)
);
}
);
width = 752;
}
);
unicode = 370;
},
{
color = 8;
glyphname = V;
kernLeft = KO_V;
kernRight = KO_V;
lastChange = "2024-03-02 06:05:35 +0000";
layers = (
{
layerId = m01;
shapes = (
{
closed = 1;
nodes = (
(305,-16,l),
(697,659,l),
(642,593,l),
(746,673,l),
(750,690,l),
(500,690,l),
(496,674,l),
(601,596,l),
(594,660,l),
(319,89,l),
(352,89,l),
(237,665,l),
(217,596,l),
(325,673,l),
(329,690,l),
(106,690,l),
(102,674,l),
(174,594,l),
(145,665,l),
(281,-16,l)
);
}
);
width = 648;
},
{
associatedMasterId = m01;
layerId = "125D5B55-97C5-4F98-8FE2-6385646CCA56";
name = "24 Aug 23 at 15:01";
shapes = (
{
closed = 1;
nodes = (
(611,690,l),
(273,25,l),
(273,-16,l),
(291,-16,l),
(691,690,l)
);
},
{
closed = 1;
nodes = (
(136,690,l),
(267,-16,l),
(283,-16,l),
(336,79,l),
(228,690,l)
);
},
{
closed = 1;
nodes = (
(102,690,l),
(98,674,l),
(149,625,l),
(241,625,l),
(321,674,l),
(325,690,l)
);
},
{
closed = 1;
nodes = (
(502,690,l),
(498,674,l),
(577,625,l),
(653,625,l),
(722,674,l),
(726,690,l)
);
}
);
width = 620;
},
{
guides = (
{
pos = (126,602);
},
{
pos = (359,607);
}
);
layerId = "B15366B1-D24E-431F-AB58-0431975245D7";
shapes = (
{
closed = 1;
nodes = (
(387,0,l),
(791,662,l),
(715,569,l),
(824,668,l),
(830,690,l),
(548,690,l),
(542,667,l),
(646,571,l),
(631,651,l),
(416,127,l),
(450,127,l),
(327,664,l),
(298,571,l),
(407,667,l),
(413,690,l),
(104,690,l),
(99,668,l),
(190,555,l),
(140,656,l),
(290,0,l)
);
}
);
width = 730;
},
{
associatedMasterId = "B15366B1-D24E-431F-AB58-0431975245D7";
layerId = "DBF61D29-153D-48B4-A739-72BBEFA757E7";
name = "27 Oct 23 at 20:38";
shapes = (
{
closed = 1;
nodes = (
(387,0,l),
(808,690,l),
(647,690,l),
(376,30,l),
(376,0,l)
);
},
{
closed = 1;
nodes = (
(387,0,l),
(450,127,l),
(321,690,l),
(132,690,l),
(290,0,l)
);
},
{
closed = 1;
nodes = (
(339,607,l),
(407,667,l),
(413,690,l),
(104,690,l),
(99,668,l),
(151,605,l)
);
},
{
closed = 1;
nodes = (
(757,607,l),
(821,667,l),
(827,690,l),
(552,690,l),
(546,668,l),
(614,605,l)
);
}
);
width = 727;
},
{
associatedMasterId = "B15366B1-D24E-431F-AB58-0431975245D7";
layerId = "E4FC6A88-E41A-41BD-ADBB-3896E55B5316";
name = "28 Oct 23 at 16:26";
shapes = (
{
closed = 1;
nodes = (
(387,0,l),
(808,690,l),
(647,690,l),
(376,30,l),
(376,0,l)
);
},
{
closed = 1;
nodes = (
(387,0,l),
(450,127,l),
(321,690,l),
(132,690,l),
(290,0,l)
);
},
{
closed = 1;
nodes = (
(339,607,l),
(407,667,l),
(413,690,l),
(104,690,l),
(99,668,l),
(152,603,l)
);
},
{
closed = 1;
nodes = (
(757,607,l),
(821,667,l),
(827,690,l),
(552,690,l),
(546,668,l),
(613,603,l)
);
}
);
width = 727;
},
{
associatedMasterId = m01;
layerId = "BABC095C-C672-45FE-8708-D16C5AF614B2";
name = "28 Oct 23 at 16:38";
shapes = (
{
closed = 1;
nodes = (
(305,-16,l),
(715,690,l),
(618,690,l),
(287,25,l),
(287,-16,l)
);
},
{
closed = 1;
nodes = (
(297,-16,l),
(352,89,l),
(232,690,l),
(140,690,l),
(281,-16,l)
);
},
{
closed = 1;
nodes = (
(247,617,l),
(325,674,l),
(329,690,l),
(106,690,l),
(102,674,l),
(155,617,l)
);
},
{
closed = 1;
nodes = (
(673,617,l),
(746,674,l),
(750,690,l),
(509,690,l),
(505,674,l),
(582,617,l)
);
}
);
width = 648;
},
{
associatedMasterId = m01;
layerId = "148D904D-E694-4DB9-A6F3-203FC1BE37E6";
name = "29 Nov 23 at 15:31";
shapes = (
{
closed = 1;
nodes = (
(305,-16,l),
(697,659,l),
(642,593,l),
(746,673,l),
(750,690,l),
(509,690,l),
(505,674,l),
(610,592,l),
(603,660,l),
(319,89,l),
(352,89,l),
(237,665,l),
(217,596,l),
(325,673,l),
(329,690,l),
(106,690,l),
(102,674,l),
(174,594,l),
(145,665,l),
(281,-16,l)
);
}
);
width = 648;
},
{
associatedMasterId = m01;
layerId = "1A6A12AE-918A-410D-BC3E-F8082FB31163";
name = "1 Dec 23 at 18:47";
shapes = (
{
closed = 1;
nodes = (
(305,-16,l),
(697,659,l),
(642,593,l),
(746,673,l),
(750,690,l),
(506,690,l),
(502,674,l),
(607,592,l),
(600,660,l),
(319,89,l),
(352,89,l),
(237,665,l),
(217,596,l),
(325,673,l),
(329,690,l),
(106,690,l),
(102,674,l),
(174,594,l),
(145,665,l),
(281,-16,l)
);
}
);
width = 648;
}
);
metricRight = "=|";
unicode = 86;
userData = {
KernOnName = V;
};
},
{
color = 8;
glyphname = W;
kernLeft = KO_V;
kernRight = KO_W;
lastChange = "2024-03-02 06:05:36 +0000";
layers = (
{
anchors = (
{
name = bottom;
pos = (463,0);
},
{
name = top;
pos = (622,690);
}
);
layerId = m01;
shapes = (
{
closed = 1;
nodes = (
(702,-16,l),
(1084,659,l),
(1029,593,l),
(1133,673,l),
(1137,690,l),
(889,690,l),
(885,674,l),
(990,595,l),
(981,660,l),
(715,89,l),
(750,89,l),
(644,665,l),
(624,596,l),
(732,673,l),
(736,690,l),
(488,690,l),
(484,674,l),
(589,592,l),
(552,665,l),
(678,-16,l)
);
},
{
closed = 1;
nodes = (
(295,-16,l),
(627,568,l),
(582,660,l),
(308,89,l),
(343,89,l),
(237,665,l),
(217,596,l),
(325,673,l),
(329,690,l),
(106,690,l),
(102,674,l),
(174,594,l),
(145,665,l),
(271,-16,l)
);
}
);
width = 1035;
},
{
anchors = (
{
name = bottom;
pos = (518,0);
},
{
name = top;
pos = (698,690);
}
);
guides = (
{
pos = (894,608);
},
{
pos = (894,603);
}
);
layerId = "B15366B1-D24E-431F-AB58-0431975245D7";
shapes = (
{
closed = 1;
nodes = (
(819,0,l),
(1213,662,l),
(1137,567,l),
(1246,668,l),
(1252,690,l),
(972,690,l),
(966,667,l),
(1070,572,l),
(1055,651,l),
(849,127,l),
(883,127,l),
(769,664,l),
(740,573,l),
(849,667,l),
(855,690,l),
(546,690,l),
(541,668,l),
(632,555,l),
(582,656,l),
(722,0,l)
);
},
{
closed = 1;
nodes = (
(377,0,l),
(771,662,l),
(613,651,l),
(407,127,l),
(441,127,l),
(327,664,l),
(298,573,l),
(407,667,l),
(413,690,l),
(104,690,l),
(99,668,l),
(190,555,l),
(140,656,l),
(280,0,l)
);
}
);
width = 1152;
},
{
associatedMasterId = m01;
layerId = "46C89844-6B49-4AE6-A6F4-0D0D4E6D1F68";
name = "29 Nov 23 at 15:32";
shapes = (
{
closed = 1;
nodes = (
(585,660,l),
(308,89,l),
(343,89,l),
(237,665,l),
(217,596,l),
(325,673,l),
(329,690,l),
(106,690,l),
(102,674,l),
(174,594,l),
(145,665,l),
(271,-16,l),
(295,-16,l),
(677,659,l)
);
},
{
closed = 1;
nodes = (
(678,-16,l),
(702,-16,l),
(1084,659,l),
(1029,593,l),
(1133,673,l),
(1137,690,l),
(898,690,l),
(894,674,l),
(999,592,l),
(992,660,l),
(715,89,l),
(750,89,l),
(644,665,l),
(624,596,l),
(732,673,l),
(736,690,l),
(488,690,l),
(484,674,l),
(589,592,l),
(552,665,l)
);
}
);
width = 1035;
}
);
metricLeft = "=V";
metricRight = "=|";
unicode = 87;
userData = {
KernOnName = W;
};
},
{
color = 8;
glyphname = X;
kernLeft = KO_X;
kernRight = KO_X;
lastChange = "2024-03-02 06:05:35 +0000";
layers = (
{
layerId = m01;
shapes = (
{
closed = 1;
nodes = (
(629,0,l),
(633,16,l),
(552,92,l),
(591,25,l),
(297,665,l),
(292,594,l),
(384,673,l),
(388,690,l),
(160,690,l),
(156,674,l),
(237,598,l),
(198,665,l),
(492,25,l),
(497,96,l),
(405,17,l),
(401,0,l)
);
},
{
closed = 1;
nodes = (
(231,0,l),
(235,16,l),
(144,96,l),
(137,30,l),
(391,361,l),
(347,361,l),
(16,31,l),
(90,96,l),
(-29,17,l),
(-33,0,l)
);
},
{
closed = 1;
nodes = (
(400,329,l),
(731,659,l),
(657,594,l),
(776,673,l),
(780,690,l),
(516,690,l),
(512,674,l),
(603,594,l),
(610,660,l),
(359,329,l)
);
}
);
width = 707;
},
{
guides = (
{
pos = (126,602);
},
{
pos = (359,607);
},
{
pos = (327,23);
}
);
layerId = "B15366B1-D24E-431F-AB58-0431975245D7";
shapes = (
{
closed = 1;
nodes = (
(715,0,l),
(721,23,l),
(634,100,l),
(677,25,l),
(363,665,l),
(376,590,l),
(449,667,l),
(455,690,l),
(120,690,l),
(114,667,l),
(201,590,l),
(158,665,l),
(472,25,l),
(459,100,l),
(386,23,l),
(380,0,l)
);
},
{
closed = 1;
nodes = (
(257,0,l),
(263,23,l),
(180,120,l),
(174,39,l),
(397,356,l),
(347,356,l),
(-13,28,l),
(105,126,l),
(-34,22,l),
(-40,0,l)
);
},
{
closed = 1;
nodes = (
(447,334,l),
(809,662,l),
(691,564,l),
(830,668,l),
(836,690,l),
(539,690,l),
(533,667,l),
(616,570,l),
(622,651,l),
(412,334,l)
);
}
);
width = 791;
},
{
associatedMasterId = m01;
layerId = "F8A71C36-74DA-42B8-B48E-8DBBDB07641F";
name = "29 Nov 23 at 15:32";
shapes = (
{
closed = 1;
nodes = (
(621,0,l),
(625,16,l),
(544,92,l),
(583,25,l),
(289,665,l),
(284,594,l),
(376,673,l),
(380,690,l),
(152,690,l),
(148,674,l),
(229,598,l),
(190,665,l),
(484,25,l),
(489,96,l),
(397,17,l),
(393,0,l)
);
},
{
closed = 1;
nodes = (
(219,0,l),
(223,16,l),
(132,97,l),
(125,30,l),
(388,361,l),
(347,361,l),
(16,31,l),
(90,96,l),
(-29,17,l),
(-33,0,l)
);
},
{
closed = 1;
nodes = (
(381,329,l),
(712,659,l),
(638,594,l),
(757,673,l),
(761,690,l),
(509,690,l),
(505,674,l),
(596,593,l),
(603,660,l),
(340,329,l)
);
}
);
width = 699;
},
{
associatedMasterId = m01;
layerId = "87ED5AF1-A649-47E0-A454-7268CCA4CA98";
name = "1 Dec 23 at 18:49";
shapes = (
{
closed = 1;
nodes = (
(621,0,l),
(625,16,l),
(544,92,l),
(583,25,l),
(289,665,l),
(284,594,l),
(376,673,l),
(380,690,l),
(152,690,l),
(148,674,l),
(229,598,l),
(190,665,l),
(484,25,l),
(489,96,l),
(397,17,l),
(393,0,l)
);
},
{
closed = 1;
nodes = (
(222,0,l),
(226,16,l),
(135,97,l),
(128,30,l),
(388,361,l),
(347,361,l),
(16,31,l),
(90,96,l),
(-29,17,l),
(-33,0,l)
);
},
{
closed = 1;
nodes = (
(381,329,l),
(712,659,l),
(638,594,l),
(757,673,l),
(761,690,l),
(506,690,l),
(502,674,l),
(593,593,l),
(600,660,l),
(340,329,l)
);
}
);
width = 699;
},
{
associatedMasterId = m01;
layerId = "0C135F28-3074-48FA-8D81-BB3D638848D3";
name = "4 Dec 23 at 20:20";
shapes = (
{
closed = 1;
nodes = (
(629,0,l),
(633,16,l),
(552,92,l),
(591,25,l),
(297,665,l),
(292,594,l),
(384,673,l),
(388,690,l),
(160,690,l),
(156,674,l),
(237,598,l),
(198,665,l),
(492,25,l),
(497,96,l),
(405,17,l),
(401,0,l)
);
},
{
closed = 1;
nodes = (
(230,0,l),
(234,16,l),
(143,96,l),
(136,30,l),
(388,361,l),
(347,361,l),
(16,31,l),
(90,96,l),
(-29,17,l),
(-33,0,l)
);
},
{
closed = 1;
nodes = (
(400,329,l),
(731,659,l),
(657,594,l),
(776,673,l),
(780,690,l),
(517,690,l),
(513,674,l),
(604,594,l),
(611,660,l),
(359,329,l)
);
}
);
width = 707;
}
);
metricLeft = "=H";
metricRight = "=H";
unicode = 88;
userData = {
KernOnName = X;
};
},
{
color = 8;
glyphname = Y;
kernLeft = KO_Y;
kernRight = KO_Y;
lastChange = "2024-03-02 06:05:35 +0000";
layers = (
{
anchors = (
{
name = bottom;
pos = (269,0);
},
{
name = top;
pos = (418,690);
},
{
name = topleft;
pos = (124,690);
}
);
guides = (
{
pos = (675,276);
},
{
pos = (393,258);
}
);
layerId = m01;
shapes = (
{
closed = 1;
nodes = (
(343,217,l),
(697,659,l),
(632,596,l),
(746,673,l),
(750,690,l),
(493,690,l),
(489,674,l),
(586,597,l),
(587,660,l),
(348,286,l),
(367,286,l),
(237,665,l),
(230,598,l),
(325,673,l),
(329,690,l),
(106,690,l),
(102,674,l),
(180,594,l),
(141,665,l),
(296,217,l)
);
},
{
closed = 1;
nodes = (
(396,0,l),
(400,16,l),
(301,100,l),
(325,39,l),
(380,276,l),
(285,276,l),
(230,39,l),
(270,99,l),
(154,17,l),
(150,0,l)
);
}
);
width = 648;
},
{
anchors = (
{
name = bottom;
pos = (321,0);
},
{
name = top;
pos = (491,690);
},
{
name = topleft;
pos = (122,690);
}
);
guides = (
{
pos = (471,256);
},
{
pos = (564,602);
}
);
layerId = "B15366B1-D24E-431F-AB58-0431975245D7";
shapes = (
{
closed = 1;
nodes = (
(460,232,l),
(818,662,l),
(726,569,l),
(851,668,l),
(857,690,l),
(555,690,l),
(549,667,l),
(653,562,l),
(638,651,l),
(447,283,l),
(472,283,l),
(333,664,l),
(309,553,l),
(418,667,l),
(424,690,l),
(104,690,l),
(99,668,l),
(190,569,l),
(140,656,l),
(295,232,l)
);
},
{
closed = 1;
nodes = (
(495,0,l),
(500,22,l),
(384,132,l),
(427,39,l),
(481,273,l),
(290,273,l),
(236,39,l),
(303,132,l),
(167,24,l),
(162,0,l)
);
}
);
width = 757;
},
{
associatedMasterId = m01;
guides = (
{
pos = (665,276);
}
);
layerId = "3AC2EFC4-8654-419B-82A7-AAE3D21F583F";
name = "29 Nov 23 at 15:32";
shapes = (
{
closed = 1;
nodes = (
(353,217,l),
(677,659,l),
(612,593,l),
(726,673,l),
(730,690,l),
(481,690,l),
(477,674,l),
(574,593,l),
(575,660,l),
(355,286,l),
(377,286,l),
(237,665,l),
(230,597,l),
(325,673,l),
(329,690,l),
(106,690,l),
(102,674,l),
(180,594,l),
(141,665,l),
(306,217,l)
);
},
{
closed = 1;
nodes = (
(295,276,l),
(240,39,l),
(280,99,l),
(164,17,l),
(160,0,l),
(406,0,l),
(410,16,l),
(311,100,l),
(335,39,l),
(390,276,l)
);
}
);
width = 628;
},
{
associatedMasterId = m01;
guides = (
{
pos = (675,276);
}
);
layerId = "7CD877D5-69E0-4D79-8537-3CF7BDE7F4BD";
name = "4 Dec 23 at 20:22";
shapes = (
{
closed = 1;
nodes = (
(363,217,l),
(697,659,l),
(632,594,l),
(746,673,l),
(750,690,l),
(493,690,l),
(489,674,l),
(586,597,l),
(587,660,l),
(365,286,l),
(386,286,l),
(237,665,l),
(230,596,l),
(325,673,l),
(329,690,l),
(106,690,l),
(102,674,l),
(180,597,l),
(141,665,l),
(316,217,l)
);
},
{
closed = 1;
nodes = (
(305,276,l),
(250,39,l),
(290,99,l),
(174,17,l),
(170,0,l),
(416,0,l),
(420,16,l),
(321,100,l),
(345,39,l),
(400,276,l)
);
},
{
closed = 1;
nodes = (
(-18,160,l),
(278,160,l),
(296,242,l),
(0,242,l)
);
},
{
closed = 1;
nodes = (
(334,160,l),
(630,160,l),
(648,242,l),
(352,242,l)
);
}
);
width = 648;
}
);
metricLeft = "=V";
metricRight = "=|";
unicode = 89;
userData = {
KernOnName = Y;
};
},
{
color = 8;
glyphname = Z;
kernLeft = KO_Z;
kernRight = KO_Z;
lastChange = "2024-03-02 06:05:36 +0000";
layers = (
{
anchors = (
{
name = bottom;
pos = (233,0);
},
{
name = center;
pos = (312,345);
},
{
name = top;
pos = (372,690);
}
);
layerId = m01;
shapes = (
{
closed = 1;
nodes = (
(99,0,l),
(615,674,l),
(618,690,l),
(524,690,l),
(8,16,l),
(5,0,l)
);
},
{
closed = 1;
nodes = (
(465,0,l),
(479,59,l),
(94,43,l),
(84,0,l)
);
},
{
closed = 1;
nodes = (
(486,0,l),
(525,169,l),
(509,169,l),
(370,41,l),
(360,0,l)
);
},
{
closed = 1;
nodes = (
(141,542,l),
(251,646,l),
(261,690,l),
(151,698,l),
(140,698,l),
(125,542,l)
);
},
{
closed = 1;
nodes = (
(561,649,l),
(570,690,l),
(232,690,l),
(220,633,l)
);
}
);
width = 575;
},
{
anchors = (
{
name = bottom;
pos = (272,0);
},
{
name = center;
pos = (352,345);
},
{
name = top;
pos = (412,690);
}
);
layerId = "B15366B1-D24E-431F-AB58-0431975245D7";
shapes = (
{
closed = 1;
nodes = (
(189,0,l),
(683,666,l),
(689,690,l),
(487,690,l),
(-8,24,l),
(-13,0,l)
);
},
{
closed = 1;
nodes = (
(541,0,l),
(558,75,l),
(91,48,l),
(80,0,l)
);
},
{
closed = 1;
nodes = (
(574,0,l),
(622,196,l),
(595,196,l),
(392,47,l),
(382,0,l)
);
},
{
closed = 1;
nodes = (
(133,513,l),
(309,643,l),
(320,690,l),
(151,706,l),
(131,706,l),
(106,513,l)
);
},
{
closed = 1;
nodes = (
(502,643,l),
(513,690,l),
(192,690,l),
(175,617,l)
);
}
);
width = 660;
}
);
metricLeft = "=O";
metricRight = "=O";
unicode = 90;
userData = {
KernOnName = Z;
};
},
{
color = 8;
glyphname = a;
kernLeft = KO_a;
kernRight = KO_a;
lastChange = "2024-03-02 06:05:35 +0000";
layers = (
{
associatedMasterId = m01;
layerId = "DEA3867B-8AE6-4CC7-9DFE-1A36A2491B35";
name = "20 Aug 23 at 17:12";
shapes = (
{
closed = 1;
nodes = (
(40,45,o),
(95,-12,o),
(173,-12,cs),
(241,-12,o),
(305,18,o),
(366,79,c),
(381,79,l),
(381,140,l),
(334,88,o),
(275,59,o),
(215,59,cs),
(158,59,o),
(126,87,o),
(126,137,cs),
(126,188,o),
(160,216,o),
(247,239,cs),
(402,280,l),
(402,324,l),
(239,295,ls),
(111,272,o),
(40,212,o),
(40,125,cs)
);
},
{
closed = 1;
nodes = (
(154,405,o),
(203,425,o),
(264,425,cs),
(335,425,o),
(366,381,o),
(366,280,cs),
(366,79,l),
(375,79,l),
(398,-12,l),
(415,-12,l),
(518,53,l),
(518,68,l),
(411,134,l),
(452,77,l),
(452,304,ls),
(452,414,o),
(384,492,o),
(287,492,cs),
(190,492,o),
(113,466,o),
(52,420,c),
(89,324,l),
(106,324,l),
(216,463,l),
(145,440,l),
(123,390,l)
);
}
);
width = 538;
},
{
associatedMasterId = m01;
layerId = "CB6F6CE6-0ECF-4983-B68F-496129831CA4";
name = "20 Aug 23 at 20:47";
shapes = (
{
closed = 1;
nodes = (
(415,-12,l),
(518,53,l),
(518,68,l),
(411,134,l),
(452,77,l),
(452,316,ls),
(452,429,o),
(380,492,o),
(251,492,cs),
(176,492,o),
(109,468,o),
(50,421,c),
(92,334,l),
(109,334,l),
(207,463,l),
(142,449,l),
(142,413,l),
(161,432,o),
(186,440,o),
(224,440,cs),
(323,440,o),
(366,396,o),
(366,296,cs),
(366,79,l),
(375,79,l),
(398,-12,l)
);
},
{
closed = 1;
nodes = (
(241,-12,o),
(305,18,o),
(366,79,c),
(381,79,l),
(381,140,l),
(334,88,o),
(270,56,o),
(213,56,cs),
(155,56,o),
(123,85,o),
(123,137,cs),
(123,185,o),
(161,216,o),
(247,239,cs),
(402,280,l),
(402,324,l),
(239,295,ls),
(111,272,o),
(40,212,o),
(40,125,cs),
(40,45,o),
(95,-12,o),
(173,-12,cs)
);
}
);
width = 538;
},
{
associatedMasterId = m01;
layerId = "9E6EFF9A-A6C1-437F-BA1C-ACDA5F032A92";
name = "21 Aug 23 at 22:07";
shapes = (
{
closed = 1;
nodes = (
(227,-12,o),
(307,67,o),
(377,227,c),
(382,227,l),
(350,120,ls),
(326,39,o),
(345,-12,o),
(400,-12,cs),
(470,-12,o),
(530,39,o),
(556,120,c),
(533,131,l),
(501,68,o),
(479,44,o),
(453,44,cs),
(430,44,o),
(424,71,o),
(435,120,cs),
(521,492,l),
(504,492,l),
(431,428,l),
(419,441,l),
(367,214,o),
(270,55,o),
(185,55,cs),
(117,55,o),
(102,120,o),
(140,250,c),
(167,361,o),
(241,448,o),
(308,448,cs),
(375,448,o),
(422,395,o),
(422,320,c),
(450,351,l),
(450,416,l),
(427,465,o),
(380,492,o),
(319,492,cs),
(201,492,o),
(79,376,o),
(43,228,cs),
(6,81,o),
(41,-12,o),
(135,-12,cs)
);
}
);
width = 594;
},
{
associatedMasterId = m01;
layerId = "F30E5C10-5045-4AEE-B0B3-8D1ACFB1E2F3";
name = "23 Aug 23 at 09:48";
shapes = (
{
closed = 1;
nodes = (
(224,-12,o),
(297,67,o),
(367,227,c),
(372,227,l),
(340,120,ls),
(316,39,o),
(335,-12,o),
(390,-12,cs),
(460,-12,o),
(520,39,o),
(546,120,c),
(523,131,l),
(491,68,o),
(469,44,o),
(443,44,cs),
(420,44,o),
(414,71,o),
(425,120,cs),
(511,492,l),
(494,492,l),
(421,428,l),
(409,441,l),
(357,214,o),
(263,55,o),
(182,55,cs),
(118,55,o),
(103,125,o),
(140,250,c),
(167,361,o),
(239,448,o),
(304,448,cs),
(367,448,o),
(412,395,o),
(412,320,c),
(440,351,l),
(445,416,l),
(423,463,o),
(373,492,o),
(315,492,cs),
(199,492,o),
(79,376,o),
(43,228,cs),
(8,87,o),
(44,-12,o),
(132,-12,cs)
);
}
);
width = 584;
},
{
associatedMasterId = m01;
layerId = "4A4D4728-57B7-423A-9E76-03CD75C0D7A3";
name = "24 Aug 23 at 16:04";
shapes = (
{
closed = 1;
nodes = (
(211,-12,o),
(279,50,o),
(342,193,c),
(379,193,l),
(443,423,l),
(397,423,l),
(352,219,o),
(250,59,o),
(165,59,cs),
(113,59,o),
(104,117,o),
(134,250,cs),
(168,382,o),
(224,448,o),
(304,448,cs),
(343,448,o),
(375,425,o),
(393,385,c),
(456,404,l),
(416,460,o),
(361,492,o),
(303,492,cs),
(177,492,o),
(74,393,o),
(37,235,cs),
(2,83,o),
(33,-12,o),
(117,-12,cs)
);
},
{
closed = 1;
nodes = (
(452,-12,o),
(511,42,o),
(536,120,c),
(513,131,l),
(481,68,o),
(459,44,o),
(433,44,cs),
(411,44,o),
(405,74,o),
(417,127,cs),
(500,489,l),
(483,489,l),
(395,413,l),
(328,122,ls),
(308,36,o),
(332,-12,o),
(394,-12,cs)
);
}
);
width = 568;
},
{
associatedMasterId = m01;
layerId = "8AD1540C-19B8-4D98-B597-C9544CD87448";
name = "24 Aug 23 at 17:19";
shapes = (
{
closed = 1;
nodes = (
(215,-12,o),
(276,50,o),
(347,210,c),
(397,210,l),
(448,441,l),
(402,441,l),
(355,227,o),
(251,59,o),
(167,59,cs),
(115,59,o),
(106,117,o),
(136,250,cs),
(170,382,o),
(225,448,o),
(300,448,cs),
(363,448,o),
(417,412,o),
(450,347,c),
(450,430,l),
(403,471,o),
(354,492,o),
(302,492,cs),
(172,492,o),
(78,400,o),
(39,235,cs),
(4,83,o),
(38,-12,o),
(126,-12,cs)
);
},
{
closed = 1;
nodes = (
(453,-12,o),
(512,42,o),
(537,120,c),
(514,131,l),
(482,68,o),
(460,44,o),
(434,44,cs),
(412,44,o),
(406,74,o),
(418,127,cs),
(501,489,l),
(484,489,l),
(418,441,l),
(402,441,l),
(329,122,ls),
(309,36,o),
(333,-12,o),
(395,-12,cs)
);
}
);
width = 569;
},
{
associatedMasterId = m01;
layerId = "7B8E8921-3DA7-4E04-BF2E-B3E1478636AE";
name = "31 Aug 23 at 12:29";
shapes = (
{
closed = 1;
nodes = (
(453,-12,o),
(512,42,o),
(537,120,c),
(514,131,l),
(482,68,o),
(460,44,o),
(434,44,cs),
(412,44,o),
(406,74,o),
(418,127,cs),
(501,489,l),
(484,489,l),
(408,441,l),
(402,441,l),
(329,122,ls),
(309,36,o),
(333,-12,o),
(395,-12,cs)
);
},
{
closed = 1;
nodes = (
(215,-12,o),
(276,50,o),
(347,210,c),
(397,210,l),
(448,441,l),
(402,441,l),
(355,227,o),
(251,59,o),
(167,59,cs),
(116,59,o),
(107,117,o),
(137,250,cs),
(171,382,o),
(225,448,o),
(300,448,cs),
(358,448,o),
(415,405,o),
(450,337,c),
(450,430,l),
(403,471,o),
(354,492,o),
(302,492,cs),
(172,492,o),
(78,400,o),
(39,235,cs),
(4,83,o),
(38,-12,o),
(126,-12,cs)
);
}
);
width = 569;
},
{
associatedMasterId = m01;
layerId = "3F2C63E3-2AB5-4049-8CAD-FA65BB01C23B";
name = "31 Aug 23 at 13:44";
shapes = (
{
closed = 1;
nodes = (
(453,-12,o),
(512,42,o),
(537,120,c),
(514,131,l),
(482,68,o),
(460,44,o),
(434,44,cs),
(412,44,o),
(406,74,o),
(418,127,cs),
(501,489,l),
(484,489,l),
(414,441,l),
(402,441,l),
(329,122,ls),
(309,36,o),
(333,-12,o),
(395,-12,cs)
);
},
{
closed = 1;
nodes = (
(215,-12,o),
(276,50,o),
(347,210,c),
(397,210,l),
(448,441,l),
(402,441,l),
(355,227,o),
(251,59,o),
(167,59,cs),
(116,59,o),
(107,117,o),
(137,250,cs),
(171,382,o),
(231,448,o),
(317,448,cs),
(378,448,o),
(407,412,o),
(423,319,c),
(453,441,l),
(418,476,o),
(378,492,o),
(322,492,cs),
(185,492,o),
(76,393,o),
(39,235,cs),
(4,83,o),
(38,-12,o),
(126,-12,cs)
);
}
);
width = 569;
},
{
anchors = (
{
name = bottom;
pos = (264,0);
},
{
name = ogonek;
pos = (536,-2);
},
{
name = top;
pos = (380,500);
}
);
layerId = "B15366B1-D24E-431F-AB58-0431975245D7";
shapes = (
{
closed = 1;
nodes = (
(245,-16,o),
(311,48,o),
(367,194,c),
(478,194,l),
(478,385,l),
(420,420,l),
(362,213,o),
(299,97,o),
(244,97,cs),
(218,97,o),
(203,123,o),
(203,170,cs),
(203,259,o),
(252,461,o),
(371,461,cs),
(419,461,o),
(437,437,o),
(437,374,c),
(537,430,l),
(506,483,o),
(437,516,o),
(357,516,cs),
(168,516,o),
(20,356,o),
(20,153,cs),
(20,49,o),
(70,-16,o),
(150,-16,cs)
);
},
{
closed = 1;
nodes = (
(548,-16,o),
(600,29,o),
(623,119,c),
(589,130,l),
(568,77,o),
(555,59,o),
(538,59,cs),
(520,59,o),
(517,81,o),
(528,130,cs),
(613,502,l),
(584,502,l),
(474,467,l),
(431,467,l),
(358,149,ls),
(335,48,o),
(377,-16,o),
(466,-16,cs)
);
}
);
width = 643;
},
{
associatedMasterId = "B15366B1-D24E-431F-AB58-0431975245D7";
layerId = "B181EB28-E6CB-4818-A13D-E1E6AA714CE5";
name = "5 Oct 23 at 16:08";
shapes = (
{
closed = 1;
nodes = (
(247,-16,o),
(324,63,o),
(385,223,c),
(493,223,l),
(493,453,l),
(437,453,l),
(369,215,o),
(306,97,o),
(246,97,cs),
(201,97,o),
(187,171,o),
(214,277,cs),
(243,387,o),
(313,465,o),
(384,465,cs),
(453,465,o),
(480,408,o),
(480,258,c),
(534,425,l),
(501,483,o),
(446,516,o),
(379,516,cs),
(218,516,o),
(65,398,o),
(30,248,cs),
(-6,93,o),
(45,-16,o),
(152,-16,cs)
);
},
{
closed = 1;
nodes = (
(553,-16,o),
(607,32,o),
(629,119,c),
(606,128,l),
(587,78,o),
(574,59,o),
(557,59,cs),
(538,59,o),
(530,88,o),
(540,130,cs),
(627,512,l),
(598,512,l),
(507,458,l),
(442,458,l),
(365,125,ls),
(345,38,o),
(389,-16,o),
(478,-16,cs)
);
}
);
width = 661;
},
{
associatedMasterId = "B15366B1-D24E-431F-AB58-0431975245D7";
layerId = "D3BDE222-F9E1-4040-8322-4ACEDC4979EE";
name = "20 Oct 23 at 17:35";
shapes = (
{
closed = 1;
nodes = (
(247,-16,o),
(324,63,o),
(385,223,c),
(493,223,l),
(493,453,l),
(441,453,l),
(373,215,o),
(308,97,o),
(246,97,cs),
(201,97,o),
(187,171,o),
(214,277,cs),
(245,395,o),
(302,461,o),
(374,461,cs),
(438,461,o),
(483,417,o),
(500,338,c),
(549,430,l),
(520,480,o),
(441,516,o),
(359,516,cs),
(196,516,o),
(69,413,o),
(30,248,cs),
(-4,100,o),
(49,-16,o),
(152,-16,cs)
);
},
{
closed = 1;
nodes = (
(553,-16,o),
(607,32,o),
(629,119,c),
(606,128,l),
(587,78,o),
(574,59,o),
(557,59,cs),
(538,59,o),
(530,88,o),
(540,130,cs),
(625,504,l),
(596,504,l),
(486,466,l),
(444,466,l),
(365,125,ls),
(345,38,o),
(389,-16,o),
(478,-16,cs)
);
}
);
width = 661;
},
{
associatedMasterId = "B15366B1-D24E-431F-AB58-0431975245D7";
layerId = "70600D45-BB5E-4946-932F-B56E039CC67C";
name = "20 Oct 23 at 18:35";
shapes = (
{
closed = 1;
nodes = (
(236,-16,o),
(302,48,o),
(358,194,c),
(466,194,l),
(469,385,l),
(411,420,l),
(353,213,o),
(290,97,o),
(235,97,cs),
(191,97,o),
(182,166,o),
(210,277,cs),
(242,400,o),
(292,461,o),
(362,461,cs),
(425,461,o),
(460,424,o),
(479,338,c),
(528,430,l),
(497,483,o),
(428,516,o),
(348,516,cs),
(189,516,o),
(65,413,o),
(26,248,cs),
(-10,93,o),
(38,-16,o),
(141,-16,cs)
);
},
{
closed = 1;
nodes = (
(532,-16,o),
(586,32,o),
(608,119,c),
(585,128,l),
(566,78,o),
(553,59,o),
(536,59,cs),
(517,59,o),
(509,88,o),
(519,130,cs),
(604,504,l),
(575,504,l),
(465,466,l),
(422,466,l),
(344,125,ls),
(324,38,o),
(368,-16,o),
(457,-16,cs)
);
}
);
width = 628;
},
{
associatedMasterId = "B15366B1-D24E-431F-AB58-0431975245D7";
layerId = "AF247C9C-9773-42CF-9D50-ADC788D16763";
name = "22 Oct 23 at 14:45";
shapes = (
{
closed = 1;
nodes = (
(236,-16,o),
(302,48,o),
(358,194,c),
(469,194,l),
(469,385,l),
(411,420,l),
(353,213,o),
(290,97,o),
(235,97,cs),
(191,97,o),
(182,166,o),
(210,277,cs),
(242,400,o),
(292,461,o),
(362,461,cs),
(410,461,o),
(428,437,o),
(428,374,c),
(528,430,l),
(497,483,o),
(428,516,o),
(348,516,cs),
(189,516,o),
(65,413,o),
(26,248,cs),
(-10,93,o),
(38,-16,o),
(141,-16,cs)
);
},
{
closed = 1;
nodes = (
(532,-16,o),
(586,32,o),
(608,119,c),
(585,128,l),
(566,78,o),
(553,59,o),
(536,59,cs),
(517,59,o),
(509,88,o),
(519,130,cs),
(604,504,l),
(575,504,l),
(465,466,l),
(422,466,l),
(344,125,ls),
(324,38,o),
(368,-16,o),
(457,-16,cs)
);
}
);
width = 628;
},
{
associatedMasterId = m01;
layerId = "DB7C178E-09F5-4C7E-B937-6D1D2CCC4F37";
name = "27 Oct 23 at 19:50";
shapes = (
{
closed = 1;
nodes = (
(212,-12,o),
(273,50,o),
(344,210,c),
(394,210,l),
(445,441,l),
(399,441,l),
(352,227,o),
(249,59,o),
(166,59,cs),
(134,59,o),
(118,85,o),
(118,136,cs),
(118,311,o),
(206,448,o),
(318,448,cs),
(384,448,o),
(421,393,o),
(421,296,c),
(454,444,l),
(418,476,o),
(376,492,o),
(329,492,cs),
(158,492,o),
(24,335,o),
(24,136,cs),
(24,45,o),
(63,-12,o),
(125,-12,cs)
);
},
{
closed = 1;
nodes = (
(450,-12,o),
(509,42,o),
(534,120,c),
(511,131,l),
(479,68,o),
(457,44,o),
(431,44,cs),
(416,44,o),
(409,57,o),
(409,81,cs),
(409,94,o),
(411,109,o),
(415,127,cs),
(498,489,l),
(481,489,l),
(411,441,l),
(399,441,l),
(326,122,ls),
(321,102,o),
(319,84,o),
(319,69,cs),
(319,16,o),
(344,-12,o),
(392,-12,cs)
);
}
);
width = 564;
},
{
anchors = (
{
name = bottom;
pos = (227,0);
},
{
name = ogonek;
pos = (436,-4);
},
{
name = top;
pos = (337,480);
}
);
layerId = m01;
name = "Light Italic";
shapes = (
{
closed = 1;
nodes = (
(217,-12,o),
(278,50,o),
(349,210,c),
(399,210,l),
(450,441,l),
(404,441,l),
(357,227,o),
(254,59,o),
(171,59,cs),
(139,59,o),
(123,85,o),
(123,136,cs),
(123,311,o),
(211,448,o),
(323,448,cs),
(389,448,o),
(426,393,o),
(426,296,c),
(459,444,l),
(423,476,o),
(381,492,o),
(334,492,cs),
(163,492,o),
(29,335,o),
(29,136,cs),
(29,45,o),
(68,-12,o),
(130,-12,cs)
);
},
{
closed = 1;
nodes = (
(455,-12,o),
(514,42,o),
(539,120,c),
(516,131,l),
(484,68,o),
(462,44,o),
(436,44,cs),
(414,44,o),
(408,74,o),
(420,127,cs),
(503,489,l),
(486,489,l),
(416,441,l),
(404,441,l),
(331,122,ls),
(311,36,o),
(335,-12,o),
(397,-12,cs)
);
}
);
width = 563;
}
);
metricLeft = "=o";
metricRight = "=n";
unicode = 97;
userData = {
KernOnName = a;
};
},
{
color = 8;
glyphname = ae;
kernLeft = KO_a;
kernRight = KO_e;
lastChange = "2024-01-14 07:35:59 +0000";
layers = (
{
anchors = (
{
name = bottom;
pos = (332,0);
},
{
name = top;
pos = (482,480);
}
);
layerId = m01;
shapes = (
{
closed = 1;
nodes = (
(217,-12,o),
(278,50,o),
(349,210,c),
(399,210,l),
(442,405,l),
(404,441,l),
(357,227,o),
(254,59,o),
(171,59,cs),
(139,59,o),
(123,85,o),
(123,136,cs),
(123,311,o),
(211,448,o),
(323,448,cs),
(389,448,o),
(426,393,o),
(426,296,c),
(471,398,l),
(449,456,o),
(396,492,o),
(334,492,cs),
(163,492,o),
(29,335,o),
(29,136,cs),
(29,45,o),
(68,-12,o),
(130,-12,cs)
);
},
{
closed = 1;
nodes = (
(587,-12,o),
(649,23,o),
(699,95,c),
(675,112,l),
(633,62,o),
(591,40,o),
(535,40,cs),
(470,40,o),
(433,91,o),
(433,182,cs),
(433,329,o),
(511,444,o),
(611,444,cs),
(638,444,o),
(655,427,o),
(655,401,cs),
(655,313,o),
(548,258,o),
(411,258,c),
(411,227,l),
(615,227,o),
(743,294,o),
(743,401,cs),
(743,459,o),
(702,492,o),
(628,492,cs),
(472,492,o),
(349,351,o),
(349,171,cs),
(349,54,o),
(407,-12,o),
(510,-12,cs)
);
}
);
width = 774;
},
{
anchors = (
{
name = bottom;
pos = (383,0);
},
{
name = top;
pos = (539,500);
}
);
layerId = "B15366B1-D24E-431F-AB58-0431975245D7";
shapes = (
{
closed = 1;
nodes = (
(245,-16,o),
(311,48,o),
(367,194,c),
(478,194,l),
(478,385,l),
(429,447,l),
(365,222,o),
(299,97,o),
(244,97,cs),
(218,97,o),
(203,123,o),
(203,170,cs),
(203,259,o),
(252,461,o),
(371,461,cs),
(419,461,o),
(437,437,o),
(437,374,c),
(521,434,l),
(487,486,o),
(430,516,o),
(357,516,cs),
(168,516,o),
(20,356,o),
(20,153,cs),
(20,49,o),
(70,-16,o),
(150,-16,cs)
);
},
{
closed = 1;
nodes = (
(686,-16,o),
(763,28,o),
(818,117,c),
(789,137,l),
(754,99,o),
(704,77,o),
(651,77,cs),
(577,77,o),
(536,124,o),
(536,207,cs),
(536,346,o),
(595,455,o),
(670,455,cs),
(686,455,o),
(695,442,o),
(695,419,cs),
(695,327,o),
(594,255,o),
(466,255,c),
(466,223,l),
(733,223,o),
(866,279,o),
(866,392,cs),
(866,465,o),
(794,516,o),
(691,516,cs),
(510,516,o),
(368,373,o),
(368,191,cs),
(368,58,o),
(446,-16,o),
(586,-16,cs)
);
}
);
width = 881;
}
);
metricLeft = "=a";
metricRight = "=e";
unicode = 230;
},
{
color = 8;
glyphname = b;
kernLeft = KO_l;
kernRight = KO_p;
lastChange = "2024-03-02 06:05:35 +0000";
layers = (
{
background = {
shapes = (
{
closed = 1;
nodes = (
(363,-12,o),
(497,145,o),
(497,344,cs),
(497,435,o),
(458,492,o),
(396,492,cs),
(309,492,o),
(248,430,o),
(177,270,c),
(127,270,l),
(76,39,l),
(122,39,l),
(169,253,o),
(272,421,o),
(355,421,cs),
(387,421,o),
(403,395,o),
(403,344,cs),
(403,169,o),
(315,32,o),
(203,32,cs),
(137,32,o),
(100,87,o),
(100,184,c),
(67,36,l),
(103,4,o),
(145,-12,o),
(192,-12,cs)
);
}
);
};
guides = (
{
angle = 257.1086;
pos = (117,406);
}
);
layerId = m01;
shapes = (
{
closed = 1;
nodes = (
(363,-12,o),
(497,145,o),
(497,344,cs),
(497,435,o),
(458,492,o),
(396,492,cs),
(309,492,o),
(248,430,o),
(177,270,c),
(127,270,l),
(76,39,l),
(122,39,l),
(169,253,o),
(272,421,o),
(355,421,cs),
(387,421,o),
(403,395,o),
(403,344,cs),
(403,169,o),
(315,32,o),
(203,32,cs),
(137,32,o),
(100,87,o),
(100,184,c),
(35,47,l),
(62,11,o),
(122,-12,o),
(192,-12,cs)
);
},
{
closed = 1;
nodes = (
(128,70,l),
(287,765,l),
(270,765,l),
(106,716,l),
(102,701,l),
(206,650,l),
(182,690,l),
(35,47,l)
);
}
);
width = 526;
},
{
layerId = "B15366B1-D24E-431F-AB58-0431975245D7";
shapes = (
{
closed = 1;
nodes = (
(457,-16,o),
(605,144,o),
(605,347,cs),
(605,451,o),
(555,516,o),
(475,516,cs),
(380,516,o),
(314,452,o),
(258,306,c),
(147,306,l),
(147,115,l),
(205,80,l),
(263,287,o),
(326,403,o),
(381,403,cs),
(407,403,o),
(422,377,o),
(422,330,cs),
(422,241,o),
(373,39,o),
(254,39,cs),
(206,39,o),
(188,63,o),
(188,126,c),
(25,52,l),
(64,12,o),
(164,-16,o),
(268,-16,cs)
);
},
{
closed = 1;
nodes = (
(198,48,l),
(361,765,l),
(332,765,l),
(94,700,l),
(89,679,l),
(192,599,l),
(172,698,l),
(25,52,l)
);
}
);
width = 625;
},
{
associatedMasterId = m01;
background = {
shapes = (
{
closed = 1;
nodes = (
(363,-12,o),
(497,145,o),
(497,344,cs),
(497,435,o),
(458,492,o),
(396,492,cs),
(309,492,o),
(248,430,o),
(177,270,c),
(127,270,l),
(76,39,l),
(122,39,l),
(169,253,o),
(272,421,o),
(355,421,cs),
(387,421,o),
(403,395,o),
(403,344,cs),
(403,169,o),
(315,32,o),
(203,32,cs),
(137,32,o),
(100,87,o),
(100,184,c),
(67,36,l),
(103,4,o),
(145,-12,o),
(192,-12,cs)
);
}
);
};
guides = (
{
angle = 257.1086;
pos = (117,406);
}
);
layerId = "F1EEC7DB-3066-4181-B1E2-0672FC07E018";
name = "24 Nov 23 at 14:00";
shapes = (
{
closed = 1;
nodes = (
(363,-12,o),
(497,145,o),
(497,344,cs),
(497,435,o),
(458,492,o),
(396,492,cs),
(309,492,o),
(248,430,o),
(177,270,c),
(127,270,l),
(76,39,l),
(122,39,l),
(169,253,o),
(272,421,o),
(355,421,cs),
(387,421,o),
(403,395,o),
(403,344,cs),
(403,169,o),
(315,32,o),
(203,32,cs),
(137,32,o),
(100,87,o),
(100,184,c),
(35,47,l),
(62,11,o),
(122,-12,o),
(192,-12,cs)
);
},
{
closed = 1;
nodes = (
(128,70,l),
(287,765,l),
(270,765,l),
(106,716,l),
(102,701,l),
(206,650,l),
(182,690,l),
(35,47,l)
);
}
);
width = 526;
},
{
associatedMasterId = "B15366B1-D24E-431F-AB58-0431975245D7";
layerId = "1C98ABE7-F71A-44AE-AEFE-C30DF83C41F6";
name = "24 Nov 23 at 14:01";
shapes = (
{
closed = 1;
nodes = (
(457,-16,o),
(605,144,o),
(605,347,cs),
(605,451,o),
(555,516,o),
(475,516,cs),
(380,516,o),
(314,452,o),
(258,306,c),
(147,306,l),
(147,115,l),
(205,80,l),
(263,287,o),
(326,403,o),
(381,403,cs),
(407,403,o),
(422,377,o),
(422,330,cs),
(422,241,o),
(373,39,o),
(254,39,cs),
(206,39,o),
(188,63,o),
(188,126,c),
(28,65,l),
(56,15,o),
(148,-16,o),
(268,-16,cs)
);
},
{
closed = 1;
nodes = (
(198,48,l),
(361,765,l),
(332,765,l),
(94,700,l),
(89,679,l),
(192,599,l),
(172,698,l),
(28,65,l)
);
}
);
width = 625;
},
{
associatedMasterId = "B15366B1-D24E-431F-AB58-0431975245D7";
layerId = "A232E91E-0AA7-4EBF-8564-38646BA88083";
name = "10 Dec 23 at 16:16";
shapes = (
{
closed = 1;
nodes = (
(457,-16,o),
(605,144,o),
(605,347,cs),
(605,451,o),
(555,516,o),
(475,516,cs),
(380,516,o),
(314,452,o),
(258,306,c),
(147,306,l),
(147,115,l),
(205,80,l),
(263,287,o),
(326,403,o),
(381,403,cs),
(407,403,o),
(422,377,o),
(422,330,cs),
(422,241,o),
(373,39,o),
(254,39,cs),
(206,39,o),
(188,63,o),
(188,126,c),
(28,65,l),
(56,15,o),
(148,-16,o),
(268,-16,cs)
);
},
{
closed = 1;
nodes = (
(198,48,l),
(361,765,l),
(332,765,l),
(94,700,l),
(89,679,l),
(192,599,l),
(172,698,l),
(28,65,l)
);
}
);
width = 625;
}
);
metricLeft = "=l";
metricRight = "=p";
unicode = 98;
userData = {
KernOnName = b;
};
},
{
color = 8;
glyphname = c;
kernLeft = KO_e;
kernRight = KO_c;
lastChange = "2024-03-02 06:05:36 +0000";
layers = (
{
anchors = (
{
name = bottom;
pos = (187,0);
},
{
name = top;
pos = (307,480);
}
);
layerId = m01;
shapes = (
{
closed = 1;
nodes = (
(284,-12,o),
(346,23,o),
(396,95,c),
(372,112,l),
(330,62,o),
(288,40,o),
(232,40,cs),
(167,40,o),
(130,91,o),
(130,182,cs),
(130,329,o),
(208,444,o),
(308,444,cs),
(336,444,o),
(358,435,o),
(376,416,c),
(376,467,l),
(314,467,l),
(393,345,l),
(407,345,l),
(457,455,l),
(417,479,o),
(370,492,o),
(325,492,cs),
(163,492,o),
(36,351,o),
(36,171,cs),
(36,59,o),
(102,-12,o),
(207,-12,cs)
);
}
);
width = 463;
},
{
associatedMasterId = m01;
layerId = "48DD4368-4CB3-4F3B-876B-7DD7DF9B2E0C";
name = "20 Aug 23 at 17:29";
shapes = (
{
closed = 1;
nodes = (
(357,-11,o),
(422,19,o),
(461,72,c),
(437,99,l),
(402,64,o),
(355,46,o),
(298,46,cs),
(196,46,o),
(125,135,o),
(125,261,cs),
(125,367,o),
(185,441,o),
(270,441,cs),
(304,441,o),
(327,433,o),
(344,416,c),
(344,467,l),
(287,467,l),
(397,343,l),
(414,343,l),
(463,436,l),
(417,474,o),
(357,493,o),
(283,493,cs),
(140,493,o),
(40,380,o),
(40,220,cs),
(40,91,o),
(146,-11,o),
(281,-11,cs)
);
}
);
width = 503;
},
{
associatedMasterId = m01;
layerId = "483F391A-15A3-4D9D-AB99-EA84F63CE35D";
name = "21 Aug 23 at 20:40";
shapes = (
{
closed = 1;
nodes = (
(359,-11,o),
(427,27,o),
(472,96,c),
(442,118,l),
(402,70,o),
(355,46,o),
(298,46,cs),
(196,46,o),
(125,135,o),
(125,261,cs),
(125,367,o),
(185,441,o),
(270,441,cs),
(304,441,o),
(327,433,o),
(344,416,c),
(344,467,l),
(287,467,l),
(397,343,l),
(414,343,l),
(463,436,l),
(417,474,o),
(357,493,o),
(283,493,cs),
(140,493,o),
(40,380,o),
(40,220,cs),
(40,91,o),
(146,-11,o),
(281,-11,cs)
);
}
);
width = 512;
},
{
associatedMasterId = m01;
background = {
shapes = (
{
closed = 1;
nodes = (
(398,362,l),
(410,362,l),
(461,451,l),
(422,478,o),
(380,492,o),
(337,492,cs),
(205,492,o),
(75,376,o),
(40,229,cs),
(7,81,o),
(68,-12,o),
(201,-12,cs),
(296,-12,o),
(376,47,o),
(423,151,c),
(399,160,l),
(349,76,o),
(300,39,o),
(236,39,cs),
(140,39,o),
(104,115,o),
(138,251,cs),
(169,380,o),
(231,452,o),
(311,452,c)
);
}
);
};
layerId = "C6AF3E79-29A6-4B7C-BD7E-5B7632B79CCE";
name = "23 Aug 23 at 10:59";
shapes = (
{
closed = 1;
nodes = (
(441,474,o),
(378,492,o),
(326,492,cs),
(196,492,o),
(80,383,o),
(45,228,cs),
(11,87,o),
(77,-12,o),
(204,-12,cs),
(301,-12,o),
(385,49,o),
(425,149,c),
(400,160,l),
(358,82,o),
(299,43,o),
(221,43,cs),
(142,43,o),
(112,123,o),
(142,250,cs),
(169,359,o),
(243,444,o),
(310,444,cs),
(367,444,o),
(400,414,o),
(418,346,c),
(431,346,l),
(470,451,l)
);
}
);
width = 494;
},
{
associatedMasterId = m01;
layerId = "9CB5A2A6-298E-4CDF-8B70-E9E5284F4BC4";
name = "24 Aug 23 at 16:27";
shapes = (
{
closed = 1;
nodes = (
(305,-12,o),
(373,32,o),
(423,131,c),
(396,146,l),
(351,76,o),
(295,42,o),
(227,42,cs),
(139,42,o),
(108,117,o),
(140,250,cs),
(171,377,o),
(231,444,o),
(307,444,cs),
(362,444,o),
(397,411,o),
(413,345,c),
(427,345,l),
(467,455,l),
(433,478,o),
(378,492,o),
(324,492,cs),
(194,492,o),
(79,392,o),
(46,249,cs),
(8,89,o),
(68,-12,o),
(202,-12,cs)
);
}
);
width = 492;
},
{
associatedMasterId = m01;
layerId = "A03A7752-0737-41F4-A927-A8F852EB6B00";
name = "12 Sep 23 at 21:35";
shapes = (
{
closed = 1;
nodes = (
(366,113,l),
(322,60,o),
(282,40,o),
(219,40,cs),
(138,40,o),
(106,121,o),
(137,250,cs),
(167,374,o),
(227,444,o),
(303,444,cs),
(350,444,o),
(382,411,o),
(398,345,c),
(412,345,l),
(452,455,l),
(415,480,o),
(372,492,o),
(320,492,cs),
(190,492,o),
(75,392,o),
(42,249,cs),
(4,89,o),
(66,-12,o),
(202,-12,cs),
(278,-12,o),
(341,23,o),
(391,95,c)
);
}
);
width = 464;
},
{
anchors = (
{
name = bottom;
pos = (212,0);
},
{
name = top;
pos = (341,500);
}
);
layerId = "B15366B1-D24E-431F-AB58-0431975245D7";
shapes = (
{
closed = 1;
nodes = (
(347,-16,o),
(434,41,o),
(467,131,c),
(436,147,l),
(409,103,o),
(365,78,o),
(315,78,cs),
(248,78,o),
(210,128,o),
(210,217,cs),
(210,347,o),
(279,450,o),
(366,450,cs),
(392,450,o),
(451,429,o),
(464,399,c),
(464,479,l),
(318,479,l),
(408,318,l),
(435,318,l),
(530,459,l),
(487,496,o),
(428,516,o),
(365,516,cs),
(176,516,o),
(27,373,o),
(27,191,cs),
(27,64,o),
(109,-16,o),
(240,-16,cs)
);
}
);
width = 520;
},
{
associatedMasterId = "B15366B1-D24E-431F-AB58-0431975245D7";
layerId = "6E7A2736-7BC6-4129-8E06-0AB7D4F6C135";
name = "20 Oct 23 at 17:57";
shapes = (
{
closed = 1;
nodes = (
(356,-16,o),
(439,26,o),
(497,110,c),
(461,135,l),
(433,101,o),
(379,79,o),
(323,79,cs),
(233,79,o),
(193,149,o),
(219,261,cs),
(248,377,o),
(309,450,o),
(377,450,cs),
(429,450,o),
(468,404,o),
(477,330,c),
(505,330,l),
(562,460,l),
(512,496,o),
(444,516,o),
(373,516,cs),
(200,516,o),
(69,420,o),
(34,268,cs),
(-4,101,o),
(85,-16,o),
(248,-16,cs)
);
}
);
width = 559;
},
{
associatedMasterId = m01;
layerId = "DD49110C-B14C-4EC0-A8FA-3B257087D1F6";
name = "20 Oct 23 at 18:11";
shapes = (
{
closed = 1;
nodes = (
(278,-12,o),
(341,23,o),
(391,95,c),
(366,113,l),
(322,60,o),
(282,40,o),
(219,40,cs),
(138,40,o),
(106,121,o),
(137,250,cs),
(167,374,o),
(227,444,o),
(303,444,cs),
(350,444,o),
(382,411,o),
(398,345,c),
(412,345,l),
(452,455,l),
(415,480,o),
(372,492,o),
(320,492,cs),
(190,492,o),
(75,392,o),
(42,249,cs),
(4,89,o),
(66,-12,o),
(202,-12,cs)
);
}
);
width = 464;
},
{
associatedMasterId = "B15366B1-D24E-431F-AB58-0431975245D7";
layerId = "FE603101-E1C8-48B1-BA93-3379DB96DB89";
name = "23 Oct 23 at 10:52";
shapes = (
{
closed = 1;
nodes = (
(355,-16,o),
(433,36,o),
(475,130,c),
(435,147,l),
(411,105,o),
(364,79,o),
(312,79,cs),
(222,79,o),
(190,133,o),
(215,243,cs),
(244,363,o),
(307,438,o),
(377,438,cs),
(413,438,o),
(449,429,o),
(462,399,c),
(462,479,l),
(349,479,l),
(420,314,l),
(448,314,l),
(538,450,l),
(491,492,o),
(428,516,o),
(363,516,cs),
(196,516,o),
(69,418,o),
(33,261,cs),
(-5,98,o),
(88,-16,o),
(258,-16,cs)
);
}
);
width = 533;
},
{
associatedMasterId = "B15366B1-D24E-431F-AB58-0431975245D7";
layerId = "B7CF51F9-CC8B-42F0-B220-9BD064FA146A";
name = "23 Oct 23 at 11:09";
shapes = (
{
closed = 1;
nodes = (
(362,-16,o),
(439,32,o),
(483,128,c),
(448,142,l),
(427,105,o),
(373,79,o),
(317,79,cs),
(231,79,o),
(192,142,o),
(215,243,cs),
(242,358,o),
(318,448,o),
(389,448,cs),
(425,448,o),
(449,429,o),
(462,399,c),
(462,479,l),
(326,479,l),
(420,314,l),
(448,314,l),
(538,459,l),
(490,497,o),
(425,516,o),
(343,516,cs),
(195,516,o),
(67,411,o),
(33,261,cs),
(-5,98,o),
(85,-16,o),
(252,-16,cs)
);
}
);
width = 541;
},
{
associatedMasterId = "B15366B1-D24E-431F-AB58-0431975245D7";
layerId = "595AD9D1-2191-4F0C-B5A1-25657574D777";
name = "23 Oct 23 at 11:10";
shapes = (
{
closed = 1;
nodes = (
(353,-16,o),
(426,32,o),
(470,128,c),
(435,142,l),
(414,105,o),
(365,79,o),
(317,79,cs),
(231,79,o),
(192,142,o),
(215,243,cs),
(242,358,o),
(318,448,o),
(389,448,cs),
(425,448,o),
(449,429,o),
(462,399,c),
(462,479,l),
(326,479,l),
(420,314,l),
(448,314,l),
(538,459,l),
(490,497,o),
(425,516,o),
(343,516,cs),
(195,516,o),
(67,411,o),
(33,261,cs),
(-5,98,o),
(85,-16,o),
(252,-16,cs)
);
}
);
width = 528;
},
{
associatedMasterId = m01;
layerId = "C6D062F3-2DCB-49F1-81EB-03A780614526";
name = "27 Oct 23 at 20:05";
shapes = (
{
closed = 1;
nodes = (
(274,-12,o),
(337,23,o),
(387,95,c),
(362,113,l),
(318,60,o),
(278,40,o),
(215,40,cs),
(134,40,o),
(102,121,o),
(133,250,cs),
(162,369,o),
(226,444,o),
(299,444,c),
(327,444,o),
(349,435,o),
(367,416,c),
(367,467,l),
(306,467,l),
(384,345,l),
(398,345,l),
(448,455,l),
(411,480,o),
(368,492,o),
(316,492,cs),
(186,492,o),
(71,392,o),
(38,249,cs),
(0,89,o),
(62,-12,o),
(198,-12,cs)
);
}
);
width = 456;
},
{
associatedMasterId = "B15366B1-D24E-431F-AB58-0431975245D7";
layerId = "8549D0C2-9510-4C63-9737-0531582FC03B";
name = "27 Oct 23 at 20:08";
shapes = (
{
closed = 1;
nodes = (
(349,-16,o),
(429,39,o),
(474,137,c),
(438,153,l),
(411,106,o),
(368,79,o),
(317,79,cs),
(231,79,o),
(192,142,o),
(215,243,cs),
(242,358,o),
(318,448,o),
(389,448,cs),
(425,448,o),
(449,429,o),
(462,399,c),
(462,479,l),
(326,479,l),
(421,321,l),
(448,321,l),
(538,459,l),
(490,497,o),
(425,516,o),
(343,516,cs),
(195,516,o),
(67,411,o),
(33,261,cs),
(-5,98,o),
(85,-16,o),
(252,-16,cs)
);
}
);
width = 530;
},
{
associatedMasterId = "B15366B1-D24E-431F-AB58-0431975245D7";
layerId = "69529BFC-AF70-4C79-885F-F4F7D4557DDD";
name = "27 Oct 23 at 20:16";
shapes = (
{
closed = 1;
nodes = (
(366,-16,o),
(445,37,o),
(479,132,c),
(448,148,l),
(422,105,o),
(375,78,o),
(326,78,cs),
(254,78,o),
(208,132,o),
(208,217,cs),
(208,347,o),
(277,450,o),
(364,450,cs),
(390,450,o),
(449,429,o),
(462,399,c),
(462,479,l),
(326,479,l),
(421,321,l),
(448,321,l),
(538,459,l),
(493,494,o),
(426,516,o),
(363,516,cs),
(174,516,o),
(25,373,o),
(25,191,cs),
(25,64,o),
(115,-16,o),
(258,-16,cs)
);
}
);
width = 536;
},
{
associatedMasterId = "B15366B1-D24E-431F-AB58-0431975245D7";
layerId = "139F8A90-C3EB-455F-9435-1C4150124E48";
name = "27 Oct 23 at 20:41";
shapes = (
{
closed = 1;
nodes = (
(353,-16,o),
(431,37,o),
(465,131,c),
(434,147,l),
(407,103,o),
(365,78,o),
(316,78,cs),
(250,78,o),
(208,132,o),
(208,217,cs),
(208,347,o),
(277,450,o),
(364,450,cs),
(390,450,o),
(449,429,o),
(462,399,c),
(462,479,l),
(326,479,l),
(421,321,l),
(448,321,l),
(538,459,l),
(493,494,o),
(426,516,o),
(363,516,cs),
(174,516,o),
(25,373,o),
(25,191,cs),
(25,64,o),
(111,-16,o),
(248,-16,cs)
);
}
);
width = 522;
},
{
associatedMasterId = "B15366B1-D24E-431F-AB58-0431975245D7";
layerId = "0CF76180-2829-4509-948C-47AEFE404110";
name = "27 Oct 23 at 20:43";
shapes = (
{
closed = 1;
nodes = (
(353,-16,o),
(431,37,o),
(465,131,c),
(434,147,l),
(407,103,o),
(365,78,o),
(316,78,cs),
(250,78,o),
(208,132,o),
(208,217,cs),
(208,347,o),
(277,450,o),
(364,450,cs),
(390,450,o),
(449,429,o),
(462,399,c),
(462,479,l),
(326,479,l),
(406,318,l),
(433,318,l),
(528,459,l),
(485,496,o),
(426,516,o),
(363,516,cs),
(174,516,o),
(25,373,o),
(25,191,cs),
(25,64,o),
(111,-16,o),
(248,-16,cs)
);
}
);
width = 522;
}
);
metricLeft = "=o";
metricRight = "=o*0.8";
unicode = 99;
userData = {
KernOnName = c;
};
},
{
color = 8;
glyphname = d;
kernLeft = KO_a;
kernRight = KO_l;
lastChange = "2024-03-02 06:05:36 +0000";
layers = (
{
anchors = (
{
name = bottom;
pos = (227,0);
},
{
name = center;
pos = (478,573);
},
{
name = top;
pos = (461,765);
},
{
name = topright;
pos = (566,765);
}
);
layerId = m01;
shapes = (
{
closed = 1;
nodes = (
(217,-12,o),
(278,50,o),
(349,210,c),
(399,210,l),
(450,441,l),
(404,441,l),
(357,227,o),
(254,59,o),
(171,59,cs),
(139,59,o),
(123,85,o),
(123,136,cs),
(123,311,o),
(211,448,o),
(323,448,cs),
(389,448,o),
(426,393,o),
(426,296,c),
(459,444,l),
(423,476,o),
(381,492,o),
(334,492,cs),
(163,492,o),
(29,335,o),
(29,136,cs),
(29,45,o),
(68,-12,o),
(130,-12,cs)
);
},
{
closed = 1;
nodes = (
(455,-12,o),
(514,42,o),
(539,120,c),
(516,131,l),
(484,68,o),
(462,44,o),
(436,44,cs),
(414,44,o),
(408,74,o),
(420,127,cs),
(566,765,l),
(549,765,l),
(385,716,l),
(381,701,l),
(485,650,l),
(461,690,l),
(331,122,ls),
(311,36,o),
(335,-12,o),
(397,-12,cs)
);
}
);
width = 563;
},
{
associatedMasterId = m01;
layerId = "0D9CE029-676D-40B3-8A37-5ACF96666BC7";
name = "20 Aug 23 at 20:19";
shapes = (
{
closed = 1;
nodes = (
(296,-12,o),
(344,13,o),
(410,79,c),
(425,79,l),
(425,140,l),
(372,81,o),
(330,59,o),
(271,59,cs),
(177,59,o),
(125,128,o),
(125,252,cs),
(125,362,o),
(191,440,o),
(285,440,cs),
(350,440,o),
(399,414,o),
(433,363,c),
(462,433,l),
(403,477,o),
(363,492,o),
(302,492,cs),
(148,492,o),
(40,378,o),
(40,215,cs),
(40,82,o),
(121,-12,o),
(237,-12,cs)
);
},
{
closed = 1;
nodes = (
(459,-12,l),
(562,53,l),
(562,68,l),
(455,134,l),
(496,77,l),
(496,765,l),
(471,765,l),
(335,703,l),
(335,688,l),
(451,607,l),
(410,684,l),
(410,617,l),
(415,467,l),
(410,467,l),
(410,79,l),
(419,79,l),
(442,-12,l)
);
}
);
width = 582;
},
{
associatedMasterId = m01;
layerId = "654EA096-4488-45F9-BA95-FFA48100525F";
name = "21 Aug 23 at 22:09";
shapes = (
{
closed = 1;
nodes = (
(227,-12,o),
(307,67,o),
(377,227,c),
(382,227,l),
(350,120,ls),
(326,39,o),
(345,-12,o),
(400,-12,cs),
(470,-12,o),
(530,39,o),
(556,120,c),
(533,131,l),
(501,68,o),
(479,44,o),
(453,44,cs),
(430,44,o),
(424,71,o),
(435,120,cs),
(584,765,l),
(567,765,l),
(407,718,l),
(407,703,l),
(504,664,l),
(480,706,l),
(428,480,ls),
(373,242,o),
(267,55,o),
(185,55,cs),
(117,55,o),
(102,120,o),
(140,250,c),
(167,361,o),
(241,448,o),
(308,448,cs),
(375,448,o),
(422,395,o),
(422,320,c),
(450,351,l),
(450,416,l),
(427,465,o),
(380,492,o),
(319,492,cs),
(201,492,o),
(79,376,o),
(43,228,cs),
(6,81,o),
(41,-12,o),
(135,-12,cs)
);
}
);
width = 594;
},
{
associatedMasterId = m01;
layerId = "6AB32866-3CFC-471F-A68D-B19FD4F7BC4E";
name = "23 Aug 23 at 09:16";
shapes = (
{
closed = 1;
nodes = (
(224,-12,o),
(297,67,o),
(367,227,c),
(372,227,l),
(340,120,ls),
(316,39,o),
(334,-12,o),
(388,-12,cs),
(458,-12,o),
(518,39,o),
(544,120,c),
(521,131,l),
(489,68,o),
(467,44,o),
(441,44,cs),
(418,44,o),
(412,71,o),
(423,120,cs),
(572,765,l),
(555,765,l),
(397,718,l),
(397,703,l),
(494,664,l),
(470,706,l),
(409,441,ls),
(357,214,o),
(263,55,o),
(182,55,cs),
(118,55,o),
(103,125,o),
(140,250,c),
(167,361,o),
(239,448,o),
(304,448,cs),
(367,448,o),
(412,395,o),
(412,320,c),
(440,351,l),
(445,416,l),
(423,463,o),
(373,492,o),
(315,492,cs),
(199,492,o),
(79,376,o),
(43,228,cs),
(8,87,o),
(44,-12,o),
(132,-12,cs)
);
}
);
width = 584;
},
{
associatedMasterId = m01;
layerId = "00A24006-B071-4D5A-8D65-8BCB7CB7CD50";
name = "24 Aug 23 at 15:46";
shapes = (
{
closed = 1;
nodes = (
(458,-12,o),
(517,42,o),
(542,120,c),
(519,131,l),
(487,68,o),
(465,44,o),
(439,44,cs),
(417,44,o),
(411,74,o),
(423,127,cs),
(569,765,l),
(552,765,l),
(388,716,l),
(384,701,l),
(488,660,l),
(464,690,l),
(334,122,ls),
(314,36,o),
(338,-12,o),
(400,-12,cs)
);
},
{
closed = 1;
nodes = (
(183,492,o),
(80,393,o),
(43,235,cs),
(8,83,o),
(39,-12,o),
(123,-12,cs),
(213,-12,o),
(283,60,o),
(355,223,c),
(392,223,l),
(462,480,l),
(416,480,l),
(364,244,o),
(256,59,o),
(171,59,cs),
(119,59,o),
(110,117,o),
(140,250,cs),
(174,382,o),
(230,448,o),
(310,448,cs),
(349,448,o),
(381,425,o),
(399,385,c),
(462,404,l),
(422,460,o),
(367,492,o),
(309,492,cs)
);
}
);
width = 576;
},
{
associatedMasterId = m01;
layerId = "80A6D560-F8B9-4A7E-9E2A-A927E842D23A";
name = "24 Aug 23 at 16:11";
shapes = (
{
closed = 1;
nodes = (
(451,-12,o),
(510,42,o),
(535,120,c),
(512,131,l),
(480,68,o),
(458,44,o),
(432,44,cs),
(410,44,o),
(404,74,o),
(416,127,cs),
(562,765,l),
(545,765,l),
(381,716,l),
(377,701,l),
(481,660,l),
(457,690,l),
(327,122,ls),
(307,36,o),
(331,-12,o),
(393,-12,cs)
);
},
{
closed = 1;
nodes = (
(172,492,o),
(76,400,o),
(37,235,cs),
(2,83,o),
(36,-12,o),
(124,-12,cs),
(208,-12,o),
(277,60,o),
(349,223,c),
(386,223,l),
(456,480,l),
(410,480,l),
(358,244,o),
(250,59,o),
(165,59,cs),
(113,59,o),
(104,117,o),
(134,250,cs),
(168,382,o),
(223,448,o),
(298,448,cs),
(345,448,o),
(393,427,o),
(423,394,c),
(473,429,l),
(427,468,o),
(363,492,o),
(305,492,cs)
);
}
);
width = 567;
},
{
associatedMasterId = m01;
layerId = "E5F1107F-BA5A-407F-AD64-33ADCD714137";
name = "24 Aug 23 at 17:18";
shapes = (
{
closed = 1;
nodes = (
(215,-12,o),
(276,50,o),
(347,210,c),
(397,210,l),
(448,441,l),
(402,441,l),
(355,227,o),
(251,59,o),
(167,59,cs),
(115,59,o),
(106,117,o),
(136,250,cs),
(170,382,o),
(225,448,o),
(300,448,cs),
(363,448,o),
(417,412,o),
(450,347,c),
(450,430,l),
(403,471,o),
(354,492,o),
(302,492,cs),
(172,492,o),
(78,400,o),
(39,235,cs),
(4,83,o),
(38,-12,o),
(126,-12,cs)
);
},
{
closed = 1;
nodes = (
(453,-12,o),
(512,42,o),
(537,120,c),
(514,131,l),
(482,68,o),
(460,44,o),
(434,44,cs),
(412,44,o),
(406,74,o),
(418,127,cs),
(564,765,l),
(547,765,l),
(383,716,l),
(379,701,l),
(483,660,l),
(459,690,l),
(329,122,ls),
(309,36,o),
(333,-12,o),
(395,-12,cs)
);
}
);
width = 569;
},
{
associatedMasterId = m01;
layerId = "47E52E50-3DE3-42B5-8B99-C584F6A97062";
name = "31 Aug 23 at 12:25";
shapes = (
{
closed = 1;
nodes = (
(453,-12,o),
(512,42,o),
(537,120,c),
(514,131,l),
(482,68,o),
(460,44,o),
(434,44,cs),
(412,44,o),
(406,74,o),
(418,127,cs),
(564,765,l),
(547,765,l),
(383,716,l),
(379,701,l),
(483,660,l),
(459,690,l),
(329,122,ls),
(309,36,o),
(333,-12,o),
(395,-12,cs)
);
},
{
closed = 1;
nodes = (
(215,-12,o),
(276,50,o),
(347,210,c),
(397,210,l),
(448,441,l),
(402,441,l),
(355,227,o),
(251,59,o),
(167,59,cs),
(116,59,o),
(107,117,o),
(137,250,cs),
(171,382,o),
(225,448,o),
(300,448,cs),
(358,448,o),
(415,405,o),
(450,337,c),
(450,430,l),
(403,471,o),
(354,492,o),
(302,492,cs),
(172,492,o),
(78,400,o),
(39,235,cs),
(4,83,o),
(38,-12,o),
(126,-12,cs)
);
}
);
width = 569;
},
{
associatedMasterId = m01;
layerId = "E62E8AF6-AA05-4105-A2CC-25F837EF0AB0";
name = "31 Aug 23 at 12:31";
shapes = (
{
closed = 1;
nodes = (
(215,-12,o),
(276,50,o),
(347,210,c),
(397,210,l),
(448,441,l),
(402,441,l),
(355,227,o),
(251,59,o),
(167,59,cs),
(116,59,o),
(107,117,o),
(137,250,cs),
(171,382,o),
(229,448,o),
(312,448,cs),
(371,448,o),
(418,413,o),
(453,343,c),
(453,454,l),
(418,478,o),
(373,492,o),
(327,492,cs),
(181,492,o),
(78,400,o),
(39,235,cs),
(4,83,o),
(38,-12,o),
(126,-12,cs)
);
},
{
closed = 1;
nodes = (
(453,-12,o),
(512,42,o),
(537,120,c),
(514,131,l),
(482,68,o),
(460,44,o),
(434,44,cs),
(412,44,o),
(406,74,o),
(418,127,cs),
(564,765,l),
(547,765,l),
(383,716,l),
(379,701,l),
(483,660,l),
(459,690,l),
(329,122,ls),
(309,36,o),
(333,-12,o),
(395,-12,cs)
);
}
);
width = 569;
},
{
associatedMasterId = m01;
layerId = "02BC825B-215C-4BA9-94BE-91456670E460";
name = "31 Aug 23 at 13:43";
shapes = (
{
closed = 1;
nodes = (
(215,-12,o),
(276,50,o),
(347,210,c),
(397,210,l),
(448,441,l),
(402,441,l),
(355,227,o),
(251,59,o),
(167,59,cs),
(116,59,o),
(107,117,o),
(137,250,cs),
(171,382,o),
(231,448,o),
(317,448,cs),
(378,448,o),
(407,412,o),
(423,319,c),
(453,441,l),
(418,476,o),
(378,492,o),
(322,492,cs),
(185,492,o),
(76,393,o),
(39,235,cs),
(4,83,o),
(38,-12,o),
(126,-12,cs)
);
},
{
closed = 1;
nodes = (
(453,-12,o),
(512,42,o),
(537,120,c),
(514,131,l),
(482,68,o),
(460,44,o),
(434,44,cs),
(412,44,o),
(406,74,o),
(418,127,cs),
(564,765,l),
(547,765,l),
(383,716,l),
(379,701,l),
(483,660,l),
(459,690,l),
(329,122,ls),
(309,36,o),
(333,-12,o),
(395,-12,cs)
);
}
);
width = 569;
},
{
associatedMasterId = m01;
layerId = "A08474F5-21A8-4FC7-8EE4-EC581C639008";
name = "21 Sep 23 at 16:16";
shapes = (
{
closed = 1;
nodes = (
(215,-12,o),
(276,50,o),
(347,210,c),
(397,210,l),
(448,441,l),
(402,441,l),
(355,227,o),
(252,59,o),
(169,59,cs),
(119,59,o),
(108,122,o),
(137,250,cs),
(170,377,o),
(232,448,o),
(311,448,cs),
(383,448,o),
(419,400,o),
(419,303,c),
(457,444,l),
(422,475,o),
(374,492,o),
(322,492,cs),
(185,492,o),
(76,393,o),
(39,235,cs),
(6,90,o),
(42,-12,o),
(128,-12,cs)
);
},
{
closed = 1;
nodes = (
(453,-12,o),
(512,42,o),
(537,120,c),
(514,131,l),
(482,68,o),
(460,44,o),
(434,44,cs),
(412,44,o),
(406,74,o),
(418,127,cs),
(564,765,l),
(547,765,l),
(383,716,l),
(379,701,l),
(483,660,l),
(459,690,l),
(329,122,ls),
(309,36,o),
(333,-12,o),
(395,-12,cs)
);
}
);
width = 569;
},
{
anchors = (
{
name = bottom;
pos = (264,0);
},
{
name = center;
pos = (560,576);
},
{
name = top;
pos = (441,765);
},
{
name = topright;
pos = (673,765);
}
);
layerId = "B15366B1-D24E-431F-AB58-0431975245D7";
shapes = (
{
closed = 1;
nodes = (
(245,-16,o),
(311,48,o),
(367,194,c),
(478,194,l),
(478,385,l),
(420,420,l),
(362,213,o),
(299,97,o),
(244,97,cs),
(218,97,o),
(203,123,o),
(203,170,cs),
(203,259,o),
(252,461,o),
(371,461,cs),
(419,461,o),
(437,437,o),
(437,374,c),
(537,430,l),
(506,483,o),
(437,516,o),
(357,516,cs),
(168,516,o),
(20,356,o),
(20,153,cs),
(20,49,o),
(70,-16,o),
(150,-16,cs)
);
},
{
closed = 1;
nodes = (
(548,-16,o),
(600,29,o),
(623,119,c),
(589,130,l),
(568,77,o),
(555,59,o),
(538,59,cs),
(520,59,o),
(517,81,o),
(528,130,cs),
(673,765,l),
(644,765,l),
(406,700,l),
(401,679,l),
(504,599,l),
(484,698,l),
(358,149,ls),
(335,48,o),
(377,-16,o),
(466,-16,cs)
);
}
);
width = 643;
},
{
associatedMasterId = "B15366B1-D24E-431F-AB58-0431975245D7";
layerId = "C6EEC869-D95A-4FCE-84CF-684EA06E62F8";
name = "20 Oct 23 at 17:34";
shapes = (
{
closed = 1;
nodes = (
(247,-16,o),
(324,63,o),
(385,223,c),
(493,223,l),
(493,453,l),
(441,453,l),
(373,215,o),
(308,97,o),
(246,97,cs),
(201,97,o),
(187,171,o),
(214,277,cs),
(245,395,o),
(302,461,o),
(374,461,cs),
(438,461,o),
(483,417,o),
(500,338,c),
(549,430,l),
(520,480,o),
(441,516,o),
(359,516,cs),
(196,516,o),
(69,413,o),
(30,248,cs),
(-4,100,o),
(49,-16,o),
(152,-16,cs)
);
},
{
closed = 1;
nodes = (
(553,-16,o),
(607,32,o),
(629,119,c),
(606,128,l),
(587,78,o),
(574,59,o),
(557,59,cs),
(538,59,o),
(530,88,o),
(540,130,cs),
(685,765,l),
(656,765,l),
(418,698,l),
(413,680,l),
(517,602,l),
(496,698,l),
(365,125,ls),
(345,38,o),
(389,-16,o),
(478,-16,cs)
);
}
);
width = 661;
},
{
associatedMasterId = "B15366B1-D24E-431F-AB58-0431975245D7";
layerId = "09D40DC8-88A5-4B14-9D71-793744AC5ED7";
name = "20 Oct 23 at 18:36";
shapes = (
{
closed = 1;
nodes = (
(236,-16,o),
(302,48,o),
(358,194,c),
(466,194,l),
(469,385,l),
(411,420,l),
(353,213,o),
(290,97,o),
(235,97,cs),
(191,97,o),
(182,166,o),
(210,277,cs),
(242,400,o),
(292,461,o),
(362,461,cs),
(425,461,o),
(460,424,o),
(479,338,c),
(528,430,l),
(497,483,o),
(428,516,o),
(348,516,cs),
(189,516,o),
(65,413,o),
(26,248,cs),
(-10,93,o),
(38,-16,o),
(141,-16,cs)
);
},
{
closed = 1;
nodes = (
(532,-16,o),
(586,32,o),
(608,119,c),
(585,128,l),
(566,78,o),
(553,59,o),
(536,59,cs),
(517,59,o),
(509,88,o),
(519,130,cs),
(664,765,l),
(635,765,l),
(397,698,l),
(392,680,l),
(496,602,l),
(475,698,l),
(344,125,ls),
(324,38,o),
(368,-16,o),
(457,-16,cs)
);
}
);
width = 628;
},
{
associatedMasterId = "B15366B1-D24E-431F-AB58-0431975245D7";
layerId = "1B2E6EF8-6C2D-4119-9DD4-DF018E4B3D48";
name = "22 Oct 23 at 14:42";
shapes = (
{
closed = 1;
nodes = (
(236,-16,o),
(302,48,o),
(358,194,c),
(469,194,l),
(469,385,l),
(411,420,l),
(353,213,o),
(290,97,o),
(235,97,cs),
(191,97,o),
(182,166,o),
(210,277,cs),
(242,400,o),
(292,461,o),
(362,461,cs),
(410,461,o),
(428,437,o),
(428,374,c),
(528,430,l),
(497,483,o),
(428,516,o),
(348,516,cs),
(189,516,o),
(65,413,o),
(26,248,cs),
(-10,93,o),
(38,-16,o),
(141,-16,cs)
);
},
{
closed = 1;
nodes = (
(532,-16,o),
(586,32,o),
(608,119,c),
(585,128,l),
(566,78,o),
(553,59,o),
(536,59,cs),
(517,59,o),
(509,88,o),
(519,130,cs),
(664,765,l),
(635,765,l),
(397,698,l),
(392,680,l),
(496,602,l),
(475,698,l),
(344,125,ls),
(324,38,o),
(368,-16,o),
(457,-16,cs)
);
}
);
width = 628;
},
{
associatedMasterId = m01;
layerId = "B2BF7853-3F9F-458A-801C-D7E2D5791359";
name = "19 Nov 23 at 14:04";
shapes = (
{
closed = 1;
nodes = (
(217,-12,o),
(278,50,o),
(349,210,c),
(399,210,l),
(450,441,l),
(404,441,l),
(357,227,o),
(254,59,o),
(171,59,cs),
(139,59,o),
(123,85,o),
(123,136,cs),
(123,311,o),
(211,448,o),
(323,448,cs),
(389,448,o),
(426,393,o),
(426,296,c),
(459,444,l),
(423,476,o),
(381,492,o),
(334,492,cs),
(163,492,o),
(29,335,o),
(29,136,cs),
(29,45,o),
(68,-12,o),
(130,-12,cs)
);
},
{
closed = 1;
nodes = (
(455,-12,o),
(514,42,o),
(539,120,c),
(516,131,l),
(484,68,o),
(462,44,o),
(436,44,cs),
(414,44,o),
(408,74,o),
(420,127,cs),
(566,765,l),
(549,765,l),
(385,716,l),
(381,701,l),
(485,660,l),
(461,690,l),
(331,122,ls),
(311,36,o),
(335,-12,o),
(397,-12,cs)
);
}
);
width = 563;
}
);
metricLeft = "=o";
metricRight = "=n";
unicode = 100;
userData = {
KernOnName = d;
};
},
{
color = 8;
glyphname = eth;
kernLeft = KO_odieresis;
kernRight = KO_p;
lastChange = "2024-02-07 10:14:39 +0000";
layers = (
{
layerId = m01;
shapes = (
{
closed = 1;
nodes = (
(379,-12,o),
(493,137,o),
(493,375,cs),
(493,576,o),
(408,696,o),
(215,768,c),
(211,768,l),
(188,730,l),
(188,726,l),
(334,673,o),
(415,569,o),
(415,436,c),
(437,389,l),
(437,447,o),
(384,492,o),
(317,492,cs),
(160,492,o),
(36,350,o),
(36,170,cs),
(36,58,o),
(98,-12,o),
(198,-12,cs)
);
},
{
closed = 1;
nodes = (
(162,34,o),
(127,81,o),
(127,155,cs),
(127,250,o),
(180,446,o),
(306,446,cs),
(362,446,o),
(397,399,o),
(397,325,cs),
(397,230,o),
(344,34,o),
(218,34,cs)
);
},
{
closed = 1;
nodes = (
(505,693,l),
(505,739,l),
(180,585,l),
(180,539,l)
);
}
);
width = 521;
},
{
layerId = "B15366B1-D24E-431F-AB58-0431975245D7";
shapes = (
{
closed = 1;
nodes = (
(450,-16,o),
(591,136,o),
(591,353,cs),
(591,554,o),
(454,714,o),
(235,767,c),
(232,767,l),
(199,711,l),
(199,708,l),
(353,665,o),
(449,556,o),
(449,426,c),
(521,349,l),
(521,443,o),
(447,516,o),
(353,516,cs),
(172,516,o),
(29,378,o),
(29,203,cs),
(29,74,o),
(120,-16,o),
(249,-16,cs)
);
},
{
closed = 1;
nodes = (
(224,42,o),
(203,77,o),
(203,139,cs),
(203,225,o),
(250,458,o),
(352,458,cs),
(389,458,o),
(410,423,o),
(410,361,cs),
(410,275,o),
(363,42,o),
(261,42,cs)
);
},
{
closed = 1;
nodes = (
(584,709,l),
(584,765,l),
(186,578,l),
(186,522,l)
);
}
);
width = 612;
}
);
metricLeft = "=o";
metricRight = "=o";
unicode = 240;
},
{
color = 8;
glyphname = e;
kernLeft = KO_e;
kernRight = KO_e;
lastChange = "2024-03-02 06:05:35 +0000";
layers = (
{
anchors = (
{
name = bottom;
pos = (182,0);
},
{
name = ogonek;
pos = (207,-12);
},
{
name = top;
pos = (302,480);
}
);
guides = (
{
angle = 77;
pos = (348,351);
},
{
angle = 77;
pos = (422,307);
}
);
layerId = m01;
shapes = (
{
closed = 1;
nodes = (
(284,-12,o),
(346,23,o),
(396,95,c),
(372,112,l),
(330,62,o),
(288,40,o),
(232,40,cs),
(167,40,o),
(130,91,o),
(130,182,cs),
(130,329,o),
(208,444,o),
(308,444,cs),
(335,444,o),
(352,427,o),
(352,401,cs),
(352,313,o),
(245,258,o),
(108,258,c),
(108,227,l),
(312,227,o),
(440,294,o),
(440,401,cs),
(440,459,o),
(399,492,o),
(325,492,cs),
(163,492,o),
(36,351,o),
(36,171,cs),
(36,59,o),
(102,-12,o),
(207,-12,cs)
);
}
);
width = 471;
},
{
associatedMasterId = m01;
layerId = "16AFB800-1CC2-49EF-B81A-3F0A059CAF5D";
name = "21 Aug 23 at 20:33";
shapes = (
{
closed = 1;
nodes = (
(466,255,ls),
(466,401,o),
(395,493,o),
(283,493,cs),
(140,493,o),
(40,380,o),
(40,220,cs),
(40,91,o),
(146,-11,o),
(281,-11,cs),
(358,-11,o),
(423,19,o),
(463,73,c),
(437,99,l),
(402,64,o),
(355,46,o),
(298,46,cs),
(196,46,o),
(125,135,o),
(125,261,cs),
(125,367,o),
(180,441,o),
(258,441,cs),
(323,441,o),
(369,389,o),
(369,315,c),
(82,289,l),
(82,254,l),
(466,254,l)
);
}
);
width = 506;
},
{
associatedMasterId = m01;
layerId = "BC5794FA-FA8C-463D-848B-219CBBB97331";
name = "23 Aug 23 at 10:53";
shapes = (
{
closed = 1;
nodes = (
(301,-12,o),
(385,49,o),
(425,149,c),
(400,160,l),
(358,82,o),
(299,43,o),
(221,43,cs),
(142,43,o),
(112,123,o),
(142,250,cs),
(169,359,o),
(236,444,o),
(303,444,cs),
(339,444,o),
(362,424,o),
(362,391,cs),
(362,317,o),
(252,259,o),
(112,259,c),
(112,226,l),
(301,226,o),
(449,301,o),
(449,397,cs),
(449,450,o),
(395,492,o),
(326,492,cs),
(196,492,o),
(80,383,o),
(45,228,cs),
(11,87,o),
(77,-12,o),
(204,-12,cs)
);
}
);
width = 494;
},
{
associatedMasterId = m01;
guides = (
{
angle = 77;
pos = (341,351);
},
{
angle = 77;
pos = (415,307);
}
);
layerId = "60BD17B6-401B-4C2D-BAEA-4A32F4D37DF0";
name = "24 Aug 23 at 16:28";
shapes = (
{
closed = 1;
nodes = (
(188,492,o),
(73,392,o),
(40,249,cs),
(2,89,o),
(64,-12,o),
(200,-12,cs),
(295,-12,o),
(372,46,o),
(415,149,c),
(388,160,l),
(345,77,o),
(293,40,o),
(217,40,cs),
(135,40,o),
(103,121,o),
(134,250,cs),
(165,377,o),
(225,444,o),
(301,444,cs),
(340,444,o),
(361,416,o),
(351,377,cs),
(334,304,o),
(237,258,o),
(101,258,c),
(101,227,l),
(285,227,o),
(414,282,o),
(435,369,cs),
(452,441,o),
(403,492,o),
(318,492,cs)
);
}
);
width = 474;
},
{
associatedMasterId = m01;
guides = (
{
angle = 77;
pos = (341,351);
},
{
angle = 77;
pos = (415,307);
}
);
layerId = "89C86430-EAAE-4CC0-8389-199E26B55004";
name = "24 Aug 23 at 16:31";
shapes = (
{
closed = 1;
nodes = (
(188,492,o),
(73,392,o),
(40,249,cs),
(2,89,o),
(64,-12,o),
(200,-12,cs),
(293,-12,o),
(362,41,o),
(407,149,c),
(380,160,l),
(333,70,o),
(293,40,o),
(217,40,cs),
(135,40,o),
(103,121,o),
(134,250,cs),
(165,377,o),
(225,444,o),
(301,444,cs),
(337,444,o),
(354,418,o),
(343,377,cs),
(325,301,o),
(238,258,o),
(101,258,c),
(101,227,l),
(280,227,o),
(406,282,o),
(427,369,cs),
(445,445,o),
(403,492,o),
(318,492,cs)
);
}
);
width = 466;
},
{
associatedMasterId = m01;
guides = (
{
angle = 77;
pos = (343,351);
},
{
angle = 77;
pos = (417,307);
}
);
layerId = "91B89255-AA36-4D35-9B3D-940C05D143DE";
name = "24 Aug 23 at 17:18";
shapes = (
{
closed = 1;
nodes = (
(370,138,l),
(328,65,o),
(290,40,o),
(219,40,cs),
(137,40,o),
(105,121,o),
(136,250,cs),
(167,377,o),
(227,444,o),
(303,444,cs),
(339,444,o),
(356,418,o),
(345,377,cs),
(327,301,o),
(240,258,o),
(103,258,c),
(103,227,l),
(282,227,o),
(408,282,o),
(429,369,cs),
(447,445,o),
(405,492,o),
(320,492,cs),
(190,492,o),
(75,392,o),
(42,249,cs),
(4,89,o),
(66,-12,o),
(202,-12,cs),
(289,-12,o),
(354,34,o),
(399,126,c)
);
}
);
width = 465;
},
{
associatedMasterId = m01;
guides = (
{
angle = 77;
pos = (343,351);
},
{
angle = 77;
pos = (417,307);
}
);
layerId = "708A99EB-0980-484D-A211-839465635123";
name = "12 Sep 23 at 21:35";
shapes = (
{
closed = 1;
nodes = (
(370,138,l),
(328,65,o),
(290,40,o),
(219,40,cs),
(138,40,o),
(106,121,o),
(137,250,cs),
(167,374,o),
(227,444,o),
(303,444,cs),
(339,444,o),
(355,418,o),
(344,377,cs),
(326,301,o),
(240,258,o),
(103,258,c),
(103,227,l),
(282,227,o),
(408,282,o),
(429,369,cs),
(447,445,o),
(405,492,o),
(320,492,cs),
(190,492,o),
(75,392,o),
(42,249,cs),
(4,89,o),
(66,-12,o),
(202,-12,cs),
(289,-12,o),
(354,34,o),
(399,126,c)
);
}
);
width = 465;
},
{
anchors = (
{
name = bottom;
pos = (224,0);
},
{
name = ogonek;
pos = (260,-16);
},
{
name = top;
pos = (346,500);
}
);
layerId = "B15366B1-D24E-431F-AB58-0431975245D7";
shapes = (
{
closed = 1;
nodes = (
(360,-16,o),
(437,28,o),
(492,117,c),
(463,137,l),
(428,99,o),
(378,77,o),
(325,77,cs),
(251,77,o),
(210,124,o),
(210,207,cs),
(210,346,o),
(269,455,o),
(344,455,cs),
(360,455,o),
(369,442,o),
(369,419,cs),
(369,327,o),
(268,255,o),
(140,255,c),
(140,223,l),
(407,223,o),
(540,279,o),
(540,392,cs),
(540,465,o),
(468,516,o),
(365,516,cs),
(176,516,o),
(27,373,o),
(27,191,cs),
(27,64,o),
(117,-16,o),
(260,-16,cs)
);
}
);
width = 555;
},
{
associatedMasterId = "B15366B1-D24E-431F-AB58-0431975245D7";
layerId = "EB563329-7EEE-48A1-A203-1950C2A70791";
name = "15 Oct 23 at 15:15";
shapes = (
{
closed = 1;
nodes = (
(356,-16,o),
(439,26,o),
(497,110,c),
(461,135,l),
(433,101,o),
(379,79,o),
(323,79,cs),
(234,79,o),
(193,149,o),
(219,261,cs),
(250,387,o),
(294,458,o),
(342,458,cs),
(372,458,o),
(382,424,o),
(369,369,c),
(347,297,o),
(277,266,o),
(138,266,c),
(138,223,l),
(391,223,o),
(529,269,o),
(554,362,cs),
(577,448,o),
(498,516,o),
(373,516,cs),
(208,516,o),
(68,414,o),
(34,268,cs),
(-4,101,o),
(84,-16,o),
(248,-16,cs)
);
},
{
closed = 0;
nodes = (
(-2286,2515,l)
);
}
);
width = 559;
},
{
associatedMasterId = m01;
guides = (
{
angle = 77;
pos = (343,351);
},
{
angle = 77;
pos = (417,307);
}
);
layerId = "9B5BBC2C-02A4-4EB2-A2FF-ADF75653A15F";
name = "15 Oct 23 at 15:15";
shapes = (
{
closed = 1;
nodes = (
(278,-12,o),
(341,23,o),
(391,95,c),
(366,113,l),
(322,60,o),
(282,40,o),
(219,40,cs),
(138,40,o),
(106,121,o),
(137,250,cs),
(167,374,o),
(227,444,o),
(303,444,cs),
(339,444,o),
(355,418,o),
(344,377,cs),
(326,301,o),
(240,258,o),
(103,258,c),
(103,227,l),
(282,227,o),
(408,282,o),
(429,369,cs),
(447,445,o),
(405,492,o),
(320,492,cs),
(190,492,o),
(75,392,o),
(42,249,cs),
(4,89,o),
(66,-12,o),
(202,-12,cs)
);
}
);
width = 464;
},
{
anchors = (
{
name = bottom;
pos = (222,0);
},
{
name = ogonek;
pos = (448,10);
},
{
name = top;
pos = (338,500);
}
);
associatedMasterId = "B15366B1-D24E-431F-AB58-0431975245D7";
layerId = "CD37F10E-F8A7-4578-BB5D-CC3B5116DC11";
name = "20 Oct 23 at 17:57";
shapes = (
{
closed = 1;
nodes = (
(356,-16,o),
(439,26,o),
(497,110,c),
(461,135,l),
(433,101,o),
(379,79,o),
(323,79,cs),
(234,79,o),
(193,149,o),
(219,261,cs),
(250,387,o),
(294,458,o),
(342,458,cs),
(365,458,o),
(372,424,o),
(359,369,c),
(337,297,o),
(270,266,o),
(138,266,c),
(138,223,l),
(391,223,o),
(519,269,o),
(544,362,cs),
(567,448,o),
(492,516,o),
(373,516,cs),
(200,516,o),
(69,420,o),
(34,268,cs),
(-6,94,o),
(77,-16,o),
(248,-16,cs)
);
}
);
width = 559;
},
{
anchors = (
{
name = bottom;
pos = (218,0);
},
{
name = ogonek;
pos = (444,10);
},
{
name = top;
pos = (334,500);
}
);
associatedMasterId = "B15366B1-D24E-431F-AB58-0431975245D7";
layerId = "5D5D15EB-49D8-46B7-BCD5-419A19CDBB58";
name = "23 Oct 23 at 10:37";
shapes = (
{
closed = 1;
nodes = (
(356,-16,o),
(435,26,o),
(493,110,c),
(457,135,l),
(427,99,o),
(378,79,o),
(319,79,cs),
(221,79,o),
(186,133,o),
(211,243,cs),
(243,375,o),
(292,458,o),
(338,458,cs),
(363,458,o),
(370,432,o),
(358,381,c),
(333,302,o),
(253,258,o),
(134,258,c),
(134,223,l),
(378,223,o),
(511,269,o),
(536,362,cs),
(559,448,o),
(481,516,o),
(359,516,cs),
(192,516,o),
(65,418,o),
(29,261,cs),
(-9,98,o),
(84,-16,o),
(254,-16,cs)
);
}
);
width = 551;
},
{
anchors = (
{
name = bottom;
pos = (222,0);
},
{
name = ogonek;
pos = (448,10);
},
{
name = top;
pos = (338,500);
}
);
associatedMasterId = "B15366B1-D24E-431F-AB58-0431975245D7";
layerId = "61BF549B-2781-47BA-88FB-E22864E1E968";
name = "27 Oct 23 at 20:01";
shapes = (
{
closed = 1;
nodes = (
(358,-16,o),
(435,28,o),
(490,117,c),
(458,139,l),
(428,102,o),
(376,79,o),
(323,79,cs),
(230,79,o),
(191,138,o),
(215,243,cs),
(244,362,o),
(300,455,o),
(342,455,cs),
(368,455,o),
(374,430,o),
(360,381,c),
(336,304,o),
(250,255,o),
(138,255,c),
(138,223,l),
(378,223,o),
(509,269,o),
(534,362,cs),
(557,448,o),
(482,516,o),
(363,516,cs),
(196,516,o),
(69,418,o),
(33,261,cs),
(-5,98,o),
(88,-16,o),
(258,-16,cs)
);
}
);
width = 551;
},
{
anchors = (
{
name = bottom;
pos = (173,0);
},
{
name = ogonek;
pos = (361,10);
},
{
name = top;
pos = (283,480);
}
);
associatedMasterId = m01;
guides = (
{
angle = 77;
pos = (339,351);
},
{
angle = 77;
pos = (413,307);
}
);
layerId = "613FF3C8-64E2-4157-BAE5-CD3BBC7450A4";
name = "27 Oct 23 at 20:03";
shapes = (
{
closed = 1;
nodes = (
(274,-12,o),
(337,23,o),
(387,95,c),
(362,113,l),
(318,60,o),
(278,40,o),
(215,40,cs),
(134,40,o),
(102,121,o),
(133,250,cs),
(163,374,o),
(223,444,o),
(299,444,cs),
(335,444,o),
(351,418,o),
(340,377,cs),
(322,301,o),
(236,258,o),
(99,258,c),
(99,227,l),
(279,227,o),
(406,282,o),
(427,369,cs),
(445,445,o),
(402,492,o),
(316,492,cs),
(186,492,o),
(71,392,o),
(38,249,cs),
(0,89,o),
(62,-12,o),
(198,-12,cs)
);
}
);
width = 456;
},
{
anchors = (
{
name = bottom;
pos = (175,0);
},
{
name = ogonek;
pos = (363,10);
},
{
name = top;
pos = (285,480);
}
);
associatedMasterId = m01;
guides = (
{
angle = 77;
pos = (341,351);
},
{
angle = 77;
pos = (415,307);
}
);
layerId = "A6E9CC4E-77B7-4AE6-956E-CF10CB51F8D6";
name = "27 Oct 23 at 20:07";
shapes = (
{
closed = 1;
nodes = (
(277,-12,o),
(339,23,o),
(389,95,c),
(365,112,l),
(323,62,o),
(281,40,o),
(225,40,cs),
(160,40,o),
(123,87,o),
(123,172,cs),
(123,324,o),
(201,444,o),
(301,444,cs),
(328,444,o),
(345,427,o),
(345,401,cs),
(345,313,o),
(238,258,o),
(101,258,c),
(101,227,l),
(305,227,o),
(433,294,o),
(433,401,cs),
(433,459,o),
(392,492,o),
(318,492,cs),
(156,492,o),
(29,346,o),
(29,161,cs),
(29,55,o),
(95,-12,o),
(200,-12,cs)
);
}
);
width = 459;
},
{
anchors = (
{
name = bottom;
pos = (222,0);
},
{
name = ogonek;
pos = (448,10);
},
{
name = top;
pos = (338,500);
}
);
associatedMasterId = "B15366B1-D24E-431F-AB58-0431975245D7";
layerId = "53AEC127-01A0-4C68-B2A3-EF8FF2D6CEDD";
name = "27 Oct 23 at 20:08";
shapes = (
{
closed = 1;
nodes = (
(358,-16,o),
(435,28,o),
(490,117,c),
(461,137,l),
(431,100,o),
(378,77,o),
(323,77,cs),
(249,77,o),
(208,116,o),
(208,187,cs),
(208,271,o),
(275,455,o),
(342,455,cs),
(359,455,o),
(367,445,o),
(367,424,cs),
(367,325,o),
(272,255,o),
(138,255,c),
(138,223,l),
(405,223,o),
(538,279,o),
(538,392,cs),
(538,465,o),
(466,516,o),
(363,516,cs),
(174,516,o),
(25,373,o),
(25,191,cs),
(25,64,o),
(115,-16,o),
(258,-16,cs)
);
}
);
width = 551;
}
);
metricLeft = "=o";
metricRight = "=o";
unicode = 101;
userData = {
KernOnName = e;
};
},
{
color = 8;
glyphname = eogonek;
kernLeft = KO_e;
kernRight = KO_e;
lastChange = "2024-02-09 08:04:08 +0000";
layers = (
{
layerId = m01;
shapes = (
{
ref = e;
},
{
closed = 1;
nodes = (
(253,-251,o),
(304,-218,o),
(330,-158,c),
(318,-148,l),
(294,-173,o),
(268,-184,o),
(234,-184,cs),
(201,-184,o),
(181,-161,o),
(181,-129,cs),
(181,-71,o),
(213,-28,o),
(294,6,c),
(294,20,l),
(213,20,l),
(213,-13,l),
(137,-54,o),
(94,-110,o),
(94,-169,cs),
(94,-219,o),
(130,-251,o),
(187,-251,cs)
);
}
);
width = 471;
},
{
layerId = "B15366B1-D24E-431F-AB58-0431975245D7";
shapes = (
{
ref = e;
},
{
closed = 1;
nodes = (
(327,-251,o),
(384,-199,o),
(402,-115,c),
(377,-110,l),
(352,-137,o),
(326,-151,o),
(299,-151,cs),
(267,-151,o),
(244,-130,o),
(244,-100,cs),
(244,-59,o),
(279,-27,o),
(350,-2,c),
(350,20,l),
(260,20,l),
(260,-18,l),
(183,-49,o),
(140,-101,o),
(140,-162,cs),
(140,-217,o),
(184,-251,o),
(254,-251,cs)
);
}
);
width = 555;
}
);
unicode = 281;
},
{
color = 8;
glyphname = f;
kernLeft = KO_f;
kernRight = KO_f;
lastChange = "2024-03-02 06:05:35 +0000";
layers = (
{
guides = (
{
angle = 76.9544;
pos = (347,451);
}
);
layerId = m01;
shapes = (
{
closed = 1;
nodes = (
(-16,-251,o),
(64,-151,o),
(101,7,cs),
(229,559,ls),
(253,663,o),
(291,729,o),
(328,729,cs),
(355,729,o),
(374,717,o),
(387,692,c),
(390,752,l),
(310,752,l),
(377,644,l),
(391,644,l),
(441,757,l),
(414,770,o),
(381,777,o),
(347,777,cs),
(247,777,o),
(169,684,o),
(131,519,cs),
(3,-33,ls),
(-22,-142,o),
(-58,-203,o),
(-96,-203,c),
(-96,-226,l),
(-68,-226,l),
(-135,-118,l),
(-149,-118,l),
(-199,-231,l),
(-170,-245,o),
(-143,-251,o),
(-109,-251,cs)
);
},
{
closed = 1;
nodes = (
(129,414,l),
(129,499,l),
(28,429,l),
(28,414,l)
);
},
{
closed = 1;
nodes = (
(337,410,l),
(356,492,l),
(344,492,l),
(167,471,l),
(158,434,l),
(327,404,l)
);
}
);
width = 332;
},
{
guides = (
{
angle = 77.1397;
pos = (272,296);
},
{
angle = 257.2213;
pos = (95,283);
},
{
angle = 76.8368;
pos = (468,457);
}
);
layerId = "B15366B1-D24E-431F-AB58-0431975245D7";
shapes = (
{
closed = 1;
nodes = (
(77,-251,o),
(170,-154,o),
(205,0,cs),
(331,556,ls),
(358,673,o),
(392,731,o),
(435,731,cs),
(470,731,o),
(494,719,o),
(508,696,c),
(508,740,l),
(379,740,l),
(470,579,l),
(497,579,l),
(571,745,l),
(514,767,o),
(468,777,o),
(421,777,cs),
(284,777,o),
(187,688,o),
(151,528,cs),
(15,-70,ls),
(-8,-171,o),
(-41,-205,o),
(-117,-205,c),
(-117,-224,l),
(5,-224,l),
(-94,-69,l),
(-121,-69,l),
(-190,-215,l),
(-134,-242,o),
(-95,-251,o),
(-36,-251,cs)
);
},
{
closed = 1;
nodes = (
(157,393,l),
(157,511,l),
(21,417,l),
(21,393,l)
);
},
{
closed = 1;
nodes = (
(460,374,l),
(492,509,l),
(470,509,l),
(247,462,l),
(235,421,l),
(446,365,l)
);
}
);
width = 459;
},
{
associatedMasterId = m01;
layerId = "3396077D-AA59-48D5-AF82-643090DC8515";
name = "19 Nov 23 at 13:56";
shapes = (
{
closed = 1;
nodes = (
(-101,-251,l),
(7,-235,o),
(73,-145,o),
(117,46,cs),
(235,559,ls),
(261,673,o),
(292,729,o),
(329,729,cs),
(359,729,o),
(383,708,o),
(391,674,c),
(397,752,l),
(326,752,l),
(384,640,l),
(398,640,l),
(448,750,l),
(424,767,o),
(388,777,o),
(354,777,cs),
(248,777,o),
(174,679,o),
(128,480,cs),
(10,-33,ls),
(-16,-147,o),
(-58,-218,o),
(-107,-229,c)
);
},
{
closed = 1;
nodes = (
(40,429,l),
(36,414,l),
(158,414,l),
(136,499,l)
);
},
{
closed = 1;
nodes = (
(350,415,l),
(368,492,l),
(356,492,l),
(174,475,l),
(163,430,l),
(340,409,l)
);
}
);
width = 326;
},
{
associatedMasterId = m01;
layerId = "64687B8C-E9C3-4311-B298-0F89F131FA5C";
name = "20 Nov 23 at 11:13";
shapes = (
{
closed = 1;
nodes = (
(-106,-251,l),
(2,-235,o),
(68,-145,o),
(112,46,cs),
(230,559,ls),
(255,668,o),
(291,729,o),
(330,729,cs),
(355,729,o),
(378,706,o),
(386,674,c),
(392,752,l),
(312,752,l),
(379,640,l),
(393,640,l),
(443,750,l),
(414,766,o),
(375,777,o),
(349,777,cs),
(243,777,o),
(169,679,o),
(123,480,cs),
(5,-33,ls),
(-21,-147,o),
(-63,-218,o),
(-112,-229,c)
);
},
{
closed = 1;
nodes = (
(45,429,l),
(45,414,l),
(131,414,l),
(131,499,l)
);
},
{
closed = 1;
nodes = (
(344,410,l),
(363,492,l),
(351,492,l),
(169,471,l),
(160,434,l),
(334,404,l)
);
}
);
width = 321;
},
{
associatedMasterId = m01;
layerId = "F12A6C20-08A5-4561-A713-8C22C4AF56BD";
name = "20 Nov 23 at 11:28";
shapes = (
{
closed = 1;
nodes = (
(46,429,l),
(46,414,l),
(132,414,l),
(132,499,l)
);
},
{
closed = 1;
nodes = (
(345,410,l),
(364,492,l),
(352,492,l),
(170,471,l),
(161,434,l),
(335,404,l)
);
},
{
closed = 1;
nodes = (
(-19,-142,o),
(-55,-203,o),
(-94,-203,cs),
(-119,-203,o),
(-142,-180,o),
(-150,-148,c),
(-156,-226,l),
(-76,-226,l),
(-143,-114,l),
(-157,-114,l),
(-207,-224,l),
(-178,-240,o),
(-139,-251,o),
(-113,-251,cs),
(-8,-251,o),
(66,-153,o),
(112,46,cs),
(230,559,ls),
(255,668,o),
(291,729,o),
(331,729,cs),
(356,729,o),
(379,706,o),
(387,674,c),
(393,752,l),
(313,752,l),
(380,640,l),
(394,640,l),
(444,750,l),
(415,766,o),
(376,777,o),
(350,777,cs),
(245,777,o),
(170,679,o),
(124,480,cs),
(6,-33,ls)
);
}
);
width = 322;
},
{
associatedMasterId = "B15366B1-D24E-431F-AB58-0431975245D7";
guides = (
{
angle = 77.1397;
pos = (331,296);
},
{
angle = 257.2213;
pos = (154,283);
}
);
layerId = "0C3266E1-98B1-4071-95CB-E6567459A3B9";
name = "26 Nov 23 at 18:02";
shapes = (
{
closed = 1;
nodes = (
(127,-251,o),
(227,-162,o),
(263,-2,cs),
(390,556,ls),
(411,647,o),
(456,711,o),
(500,711,cs),
(533,711,o),
(549,684,o),
(563,651,c),
(573,740,l),
(458,740,l),
(518,579,l),
(545,579,l),
(640,720,l),
(595,758,o),
(544,777,o),
(486,777,cs),
(346,777,o),
(246,688,o),
(210,528,cs),
(83,-30,ls),
(62,-121,o),
(17,-185,o),
(-27,-185,cs),
(-60,-185,o),
(-76,-158,o),
(-90,-125,c),
(-100,-214,l),
(15,-214,l),
(-45,-53,l),
(-72,-53,l),
(-167,-194,l),
(-122,-232,o),
(-71,-251,o),
(-13,-251,cs)
);
},
{
closed = 1;
nodes = (
(216,390,l),
(216,511,l),
(106,414,l),
(106,390,l)
);
},
{
closed = 1;
nodes = (
(505,400,l),
(534,524,l),
(512,524,l),
(306,470,l),
(294,416,l),
(483,386,l)
);
}
);
width = 547;
},
{
associatedMasterId = "B15366B1-D24E-431F-AB58-0431975245D7";
guides = (
{
angle = 77.1397;
pos = (262,296);
},
{
angle = 257.2213;
pos = (85,283);
}
);
layerId = "EDDBC8AC-D987-4549-9B00-163D79FFA743";
name = "10 Dec 23 at 16:18";
shapes = (
{
closed = 1;
nodes = (
(58,-251,o),
(158,-162,o),
(194,-2,cs),
(321,556,ls),
(345,662,o),
(385,721,o),
(431,721,cs),
(466,721,o),
(488,705,o),
(504,667,c),
(504,740,l),
(369,740,l),
(469,579,l),
(496,579,l),
(573,743,l),
(532,764,o),
(472,777,o),
(417,777,cs),
(277,777,o),
(177,688,o),
(141,528,cs),
(14,-30,ls),
(-10,-136,o),
(-50,-195,o),
(-96,-195,cs),
(-131,-195,o),
(-153,-179,o),
(-169,-141,c),
(-169,-214,l),
(-34,-214,l),
(-134,-53,l),
(-161,-53,l),
(-238,-217,l),
(-197,-238,o),
(-137,-251,o),
(-82,-251,cs)
);
},
{
closed = 1;
nodes = (
(147,390,l),
(147,511,l),
(37,414,l),
(37,390,l)
);
},
{
closed = 1;
nodes = (
(436,400,l),
(465,524,l),
(443,524,l),
(237,470,l),
(225,426,l),
(414,386,l)
);
}
);
width = 449;
},
{
associatedMasterId = m01;
guides = (
{
angle = 76.9544;
pos = (347,451);
}
);
layerId = "A973CF38-58D8-4B1A-815F-AEF07872BCDE";
name = "10 Dec 23 at 16:32";
shapes = (
{
closed = 1;
nodes = (
(-15,-251,o),
(63,-158,o),
(101,7,cs),
(229,559,ls),
(253,663,o),
(291,729,o),
(328,729,cs),
(355,729,o),
(374,717,o),
(387,692,c),
(390,752,l),
(310,752,l),
(377,644,l),
(391,644,l),
(441,757,l),
(414,770,o),
(381,777,o),
(347,777,cs),
(247,777,o),
(169,684,o),
(131,519,cs),
(3,-33,ls),
(-21,-137,o),
(-59,-203,o),
(-96,-203,cs),
(-123,-203,o),
(-143,-183,o),
(-152,-148,c),
(-158,-226,l),
(-78,-226,l),
(-145,-118,l),
(-159,-118,l),
(-209,-231,l),
(-182,-244,o),
(-149,-251,o),
(-115,-251,cs)
);
},
{
closed = 1;
nodes = (
(129,414,l),
(129,499,l),
(28,429,l),
(28,414,l)
);
},
{
closed = 1;
nodes = (
(337,410,l),
(356,492,l),
(344,492,l),
(167,471,l),
(158,434,l),
(327,404,l)
);
}
);
width = 332;
}
);
unicode = 102;
userData = {
KernOnName = f;
};
},
